<?xml version="1.0" encoding="utf-8"?>
<!-- Generator: Adobe Illustrator 15.0.0, SVG Export Plug-In . SVG Version: 6.00 Build 0)  -->
<!DOCTYPE svg PUBLIC "-//W3C//DTD SVG 1.1//EN" "http://www.w3.org/Graphics/SVG/1.1/DTD/svg11.dtd">
<svg version="1.1" id="图层_1" xmlns="http://www.w3.org/2000/svg" xmlns:xlink="http://www.w3.org/1999/xlink" x="0px" y="0px"
	 width="100px" height="100px" viewBox="0 0 100 100" enable-background="new 0 0 100 100" xml:space="preserve">
<g>
	<path fill="#404040" d="M57.624,96.831l-0.356-4.382L35.784,56.894c-0.067-0.112-0.031-0.257,0.078-0.319
		c0.111-0.068,0.254-0.031,0.316,0.077c0,0,15.978,26.438,20.456,33.852L41.841,45.896c-0.042-0.12,0.024-0.252,0.146-0.294
		c0.122-0.04,0.256,0.026,0.295,0.148c0,0,13.674,41.229,15.043,45.361l-4.397-40.786c-0.013-0.127,0.078-0.243,0.205-0.257
		c0.129-0.012,0.243,0.077,0.255,0.208c0,0,2.616,24.252,3.88,35.955c-0.38-15.55-1.473-60.761-1.473-60.761
		c-0.004-0.129,0.097-0.235,0.228-0.239c0.128-0.003,0.237,0.098,0.238,0.227l1.605,66.26c0.858-6.437,7.436-55.762,7.436-55.762
		c0.021-0.126,0.138-0.216,0.263-0.199c0.129,0.016,0.217,0.133,0.201,0.261l-7.344,55.056c2.771-7.157,15.773-40.759,15.773-40.759
		c0.045-0.119,0.18-0.177,0.301-0.132c0.119,0.048,0.179,0.183,0.132,0.303L58.256,92.79l0.34,4.2L57.624,96.831z"/>
	<g>
		<path fill="#8BC53F" d="M50.229,11.457c0.617-5.446,4.069-9.526,7.717-9.114c3.645,0.412,6.1,5.159,5.483,10.604
			c-0.553,4.917-3.423,8.707-6.657,9.099l0.291,2.135l-4.083-0.461l1.089-2.187C51.365,20.101,49.714,16.031,50.229,11.457z"/>
		<path opacity="0.7" fill="#A7D16C" d="M51.859,10.117c-0.505,4.456,1.379,8.327,4.21,8.645c2.827,0.319,5.527-3.032,6.031-7.49
			c0.504-4.455-1.384-8.325-4.21-8.646C55.059,2.309,52.36,5.663,51.859,10.117z"/>
		
			<ellipse transform="matrix(-0.9937 -0.1123 0.1123 -0.9937 113.0779 23.3988)" opacity="0.6" fill="#C3DE9A" cx="57.198" cy="8.516" rx="3.766" ry="5.413"/>
		
			<ellipse transform="matrix(-0.9937 -0.1124 0.1124 -0.9937 114.5035 19.4432)" opacity="0.15" fill="#FFFFFF" cx="57.8" cy="6.494" rx="2.19" ry="3.008"/>
	</g>
	<g>
		<path fill="#FFCA05" d="M59.999,15.677c4.49,3.045,5.663,9.155,2.619,13.648c-1.806,2.662-4.688,4.146-7.668,4.29l0.421,2.196
			l-4.901-0.474l1.399-2.061c-1.007-0.276-1.987-0.712-2.9-1.331c-4.492-3.044-5.665-9.155-2.621-13.648
			C49.395,13.804,55.507,12.631,59.999,15.677z"/>
		<path fill="#FFDD00" d="M48.203,18.367c-2.436,3.593-1.5,8.482,2.096,10.917c3.594,2.437,8.48,1.499,10.919-2.094
			c2.434-3.596,1.499-8.484-2.096-10.92S50.638,14.771,48.203,18.367z"/>
	</g>
	<g>
		<path fill="#00A551" d="M59.156,22.775c1.232-6.392,6.04-10.839,10.737-9.934c4.697,0.905,7.506,6.821,6.273,13.212
			c-1.113,5.769-5.138,9.941-9.367,10.034l0.208,2.569l-5.261-1.015l1.586-2.47C59.945,33.161,58.123,28.143,59.156,22.775z"/>
		
			<ellipse transform="matrix(-0.9819 -0.1893 0.1893 -0.9819 129.3298 58.0895)" opacity="0.6" fill="#29B473" cx="67.439" cy="22.869" rx="6.72" ry="9.644"/>
		
			<ellipse transform="matrix(-0.9819 -0.1893 0.1893 -0.9819 129.4807 52.7388)" opacity="0.6" fill="#80C99B" cx="67.259" cy="20.185" rx="4.911" ry="6.429"/>
		
			<ellipse transform="matrix(-0.9819 -0.1895 0.1895 -0.9819 129.222 47.8884)" opacity="0.15" fill="#FFFFFF" cx="66.9" cy="17.768" rx="2.857" ry="3.573"/>
		<path opacity="0.35" fill="#FFFFFF" d="M65.037,16.555c-0.232,1.21,0.362,2.342,1.33,2.529c0.968,0.186,1.943-0.645,2.175-1.855
			c0.236-1.209-0.361-2.342-1.329-2.527C66.243,14.513,65.269,15.343,65.037,16.555z"/>
	</g>
	<g>
		<path fill="#EC1C24" d="M37.381,10.036c5.409-0.439,10.15,3.589,10.591,8.998c0.26,3.206-1.056,6.167-3.288,8.148l1.702,1.447
			l-4.12,2.701l-0.201-2.481c-0.958,0.414-1.993,0.688-3.091,0.778c-5.41,0.439-10.151-3.589-10.594-8.999
			C27.941,15.217,31.973,10.476,37.381,10.036z"/>
		
			<ellipse transform="matrix(-0.9052 0.425 -0.425 -0.9052 78.5642 18.7016)" fill="#F16548" cx="37.196" cy="18.114" rx="7.861" ry="7.364"/>
		<path fill="#F59579" d="M31.468,19.786c1.295,2.762,4.655,3.917,7.506,2.579c2.849-1.338,4.11-4.661,2.815-7.422
			c-1.3-2.761-4.66-3.915-7.509-2.578C31.43,13.703,30.17,17.025,31.468,19.786z"/>
		<path opacity="0.15" fill="#FFFFFF" d="M32.58,17.536c0.714,1.518,2.606,2.131,4.229,1.371c1.621-0.761,2.356-2.609,1.641-4.127
			c-0.711-1.52-2.601-2.133-4.225-1.372C32.604,14.167,31.867,16.015,32.58,17.536z"/>
	</g>
	<g>
		<path fill="#5B57A4" d="M54.965,17.72c-0.556-6.823-4.837-12.042-9.559-11.658c-4.725,0.385-8.103,6.226-7.547,13.05
			c0.499,6.157,4.036,10.995,8.197,11.599l-0.47,2.659l5.289-0.432l-1.309-2.77C53.114,28.473,55.432,23.449,54.965,17.72z"/>
		
			<ellipse transform="matrix(0.9967 -0.081 0.081 0.9967 -1.1981 3.7525)" opacity="0.3" fill="#8680BC" cx="45.626" cy="16.635" rx="6.657" ry="10.141"/>
		
			<ellipse transform="matrix(0.9967 -0.0809 0.0809 0.9967 -1.0056 3.6734)" opacity="0.3" fill="#8680BC" cx="44.818" cy="14.243" rx="4.867" ry="6.76"/>
		<path opacity="0.15" fill="#FFFFFF" d="M47.161,12.339c0.17,2.068-0.96,3.846-2.519,3.973c-1.557,0.127-2.958-1.446-3.124-3.515
			c-0.169-2.067,0.96-3.846,2.515-3.972C45.594,8.699,46.995,10.272,47.161,12.339z"/>
		
			<ellipse transform="matrix(0.9967 -0.0811 0.0811 0.9967 -0.8187 3.6014)" opacity="0.35" fill="#FFFFFF" cx="43.922" cy="11.879" rx="1.77" ry="2.349"/>
	</g>
	<g>
		<path fill="#EC145A" d="M65.604,42.138c-0.45-5.52,3.659-10.355,9.177-10.805c5.517-0.449,10.353,3.662,10.805,9.179
			c0.449,5.519-3.663,10.355-9.177,10.805c-0.554,0.045-1.098,0.029-1.631-0.015l0.258,0.125l-0.316,1.011l0.554,1.927l-5.087-1.951
			l1.519-0.716l0.553-0.926C68.648,49.496,65.934,46.2,65.604,42.138z"/>
		<path fill="#F06678" d="M66.91,41.241c0.396,4.869,4.75,8.488,9.729,8.083c4.975-0.406,8.69-4.679,8.293-9.549
			c-0.394-4.868-4.75-8.485-9.726-8.081C70.229,32.099,66.513,36.374,66.91,41.241z"/>
		<path opacity="0.6" fill="#F4969B" d="M68.734,39.445c0.326,3.966,3.883,6.912,7.958,6.581c4.069-0.33,7.106-3.812,6.785-7.778
			c-0.322-3.965-3.882-6.911-7.955-6.579C71.452,31.999,68.414,35.48,68.734,39.445z"/>
		<path opacity="0.15" fill="#FFFFFF" d="M71.882,36.881c0.199,2.495,2.389,4.354,4.882,4.151c2.498-0.205,4.356-2.392,4.154-4.886
			c-0.203-2.496-2.393-4.354-4.887-4.151C73.534,32.199,71.678,34.384,71.882,36.881z"/>
		<circle opacity="0.35" fill="#FFFFFF" cx="76.287" cy="35.144" r="2.336"/>
	</g>
	<g>
		<path fill="#FFCA05" d="M31.595,21.14c4.81-2.102,11.132,1.736,14.123,8.578c2.7,6.173,1.75,12.668-1.996,15.423l1.832,2.304
			l-5.388,2.355l-0.155-3.342c-4.344,0.231-9.204-3.381-11.712-9.125C25.307,30.493,26.783,23.242,31.595,21.14z"/>
		
			<ellipse transform="matrix(-0.9163 0.4006 -0.4006 -0.9163 81.7749 48.7831)" fill="#FFDD00" cx="35.789" cy="32.939" rx="7.055" ry="11.06"/>
		<path fill="#FFF100" d="M29.404,33.496c1.628,3.73,5.16,5.788,7.889,4.598c2.729-1.191,3.619-5.185,1.989-8.916
			c-1.633-3.731-5.167-5.791-7.893-4.596C28.661,25.774,27.772,29.766,29.404,33.496z"/>
	</g>
	<g>
		<path fill="#EB008B" d="M43.149,40.018c-0.581-7.141,3.201-13.276,8.448-13.702c5.249-0.427,9.974,5.017,10.554,12.157
			c0.524,6.446-2.513,12.058-6.968,13.403l0.979,2.663l-5.881,0.478l0.955-3.087C47.046,50.798,43.634,46.015,43.149,40.018z"/>
		
			<ellipse transform="matrix(-0.9967 0.0809 -0.0809 -0.9967 106.7896 71.0163)" opacity="0.7" fill="#EF67A5" cx="51.956" cy="37.672" rx="7.397" ry="10.614"/>
		
			<ellipse transform="matrix(-0.9967 0.0811 -0.0811 -0.9967 104.6084 65.5085)" opacity="0.6" fill="#F399C0" cx="50.973" cy="34.879" rx="5.405" ry="7.077"/>
		<path opacity="0.15" fill="#FFFFFF" d="M46.743,32.678c0.176,2.165,1.723,3.804,3.455,3.664c1.729-0.141,2.992-2.009,2.817-4.174
			c-0.178-2.163-1.725-3.803-3.455-3.663C47.83,28.646,46.569,30.516,46.743,32.678z"/>
		<path opacity="0.35" fill="#FFFFFF" d="M47.544,31.687c0.107,1.351,1.077,2.376,2.159,2.288c1.081-0.088,1.87-1.256,1.759-2.607
			c-0.11-1.352-1.077-2.377-2.158-2.29C48.224,29.167,47.433,30.332,47.544,31.687z"/>
	</g>
	<g>
		<path fill="#FFCA05" d="M30.663,39.257c5.409-0.439,10.151,3.591,10.591,9c0.261,3.204-1.055,6.167-3.29,8.149l1.705,1.444
			l-4.12,2.702l-0.203-2.48c-0.958,0.41-1.992,0.685-3.092,0.775c-5.408,0.438-10.152-3.589-10.592-8.998
			C21.223,44.438,25.253,39.698,30.663,39.257z"/>
		<path fill="#FFDD00" d="M23.151,48.743c0.351,4.327,4.146,7.55,8.472,7.196c4.332-0.351,7.553-4.145,7.2-8.472
			c-0.35-4.328-4.146-7.551-8.474-7.198C26.023,40.621,22.8,44.416,23.151,48.743z"/>
		
			<ellipse transform="matrix(-0.9967 0.081 -0.081 -0.9967 65.1457 91.6391)" fill="#FFF100" cx="30.713" cy="47.142" rx="5.7" ry="5.895"/>
		<circle fill="#FFFACB" cx="30.087" cy="45.517" r="3.243"/>
	</g>
</g>
</svg>
