<?xml version="1.0" encoding="utf-8"?>
<!-- Generator: Adobe Illustrator 16.0.0, SVG Export Plug-In . SVG Version: 6.00 Build 0)  -->
<!DOCTYPE svg PUBLIC "-//W3C//DTD SVG 1.1//EN" "http://www.w3.org/Graphics/SVG/1.1/DTD/svg11.dtd">
<svg version="1.1" id="图层_1" xmlns="http://www.w3.org/2000/svg" xmlns:xlink="http://www.w3.org/1999/xlink" x="0px" y="0px"
	 width="283.46px" height="283.46px" viewBox="0 0 283.46 283.46" enable-background="new 0 0 283.46 283.46" xml:space="preserve">
<g id="book">
	<g>
		<rect x="10.146" y="170.481" fill="#FFFFFC" width="266.992" height="16.09"/>
		<g>
			<g>
				<path fill="#2999B7" d="M109.235,168.403v-20.509H20.401c-5.666,0-10.256,4.59-10.256,10.255v3.764v0.123
					c0.809,4.858,5.167,8.445,10.256,8.445h88.834v-20.511"/>
				<path fill="#FBF7C2" d="M109.235,149.971H21.529c-5.256,0-9.518,4.261-9.518,9.517c0,5.257,4.261,9.52,9.518,9.52h87.707
					V149.971z"/>
			</g>
			<g>
				<path fill="#643E1C" d="M109.235,145.819v-20.508H20.401c-5.666,0-10.256,4.59-10.256,10.254v3.764v0.124
					c0.809,4.857,5.167,8.441,10.256,8.441h88.834v-20.51"/>
				<path fill="#FBF7C2" d="M109.235,127.385H21.529c-5.256,0-9.518,4.262-9.518,9.519s4.261,9.518,9.518,9.518h87.707V127.385z"/>
			</g>
			<g>
				<path fill="#96685A" d="M109.235,123.47v-18.196H30.418c-5.027,0-9.099,4.071-9.099,9.098v3.34v0.108
					c0.717,4.311,4.584,7.491,9.099,7.491h78.817v-18.197"/>
				<path fill="#FBF7C2" d="M109.235,107.114H31.419c-4.664,0-8.444,3.78-8.444,8.444c0,4.665,3.78,8.445,8.444,8.445h77.816
					V107.114z"/>
			</g>
		</g>
		<g>
			<path fill="#96685A" d="M273.466,168.639v-18.196H189.55c-5.025,0-9.098,4.072-9.098,9.097v3.339v0.11
				c0.717,4.313,4.584,7.493,9.098,7.493h83.916v-18.199"/>
			<path fill="#FBF7C2" d="M273.466,152.282h-82.913c-4.664,0-8.445,3.779-8.445,8.443c0,4.665,3.781,8.446,8.445,8.446h82.913
				V152.282z"/>
		</g>
		
			<rect x="119.013" y="76.008" transform="matrix(0.977 -0.2133 0.2133 0.977 -23.2591 30.0741)" fill="#2999B7" width="17.516" height="93.681"/>
		
			<rect x="137.549" y="76.008" transform="matrix(0.977 -0.2133 0.2133 0.977 -22.8343 34.0297)" fill="#96685A" width="17.514" height="93.682"/>
	</g>
	<g>
		<path fill="#2999B7" d="M273.466,148.602v-18.196h-78.816c-5.027,0-9.1,4.071-9.1,9.096v3.339v0.109
			c0.715,4.313,4.583,7.492,9.1,7.492h78.816v-18.198"/>
		<path fill="#FBF7C2" d="M273.466,132.244H195.65c-4.666,0-8.446,3.781-8.446,8.446c0,4.662,3.78,8.442,8.446,8.442h77.815V132.244
			z"/>
	</g>
</g>
</svg>
