<?xml version="1.0" encoding="utf-8"?>
<!-- Generator: Adobe Illustrator 16.0.0, SVG Export Plug-In . SVG Version: 6.00 Build 0)  -->
<!DOCTYPE svg PUBLIC "-//W3C//DTD SVG 1.1//EN" "http://www.w3.org/Graphics/SVG/1.1/DTD/svg11.dtd">
<svg version="1.1" id="图层_1" xmlns="http://www.w3.org/2000/svg" xmlns:xlink="http://www.w3.org/1999/xlink" x="0px" y="0px"
	 width="100px" height="100px" viewBox="0 0 100 100" enable-background="new 0 0 100 100" xml:space="preserve">
<g opacity="0.2">
	<path fill="#040000" d="M84,32.562C84,31.786,82.428,31,81.613,31H12.814C12,31,11,31.786,11,32.562v45.023
		C11,78.362,12,79,12.814,79h68.799C82.428,79,84,78.362,84,77.585V32.562z"/>
	<path fill="#040000" d="M87.666,17H6.158C4,17,3.735,18.179,5.099,20.337L11.175,30H82.6l6.818-10.762
		C90.222,17.977,89.626,17,87.666,17z"/>
</g>
<path fill-rule="evenodd" clip-rule="evenodd" fill="#333333" d="M82,34.389C82,34.476,82.425,35,82.34,35h-1.754
	C80.5,35,80,34.476,80,34.389v-3.817C80,30.486,80.5,30,80.586,30h1.754c0.085,0-0.34,0.486-0.34,0.572V34.389z"/>
<g>
	<path fill-rule="evenodd" clip-rule="evenodd" fill="#FFFFFF" d="M10.699,30.728h68.42c0.878,0,1.595,0.719,1.595,1.596v44.375
		c0,0.879-0.718,1.597-1.595,1.597h-68.42c-0.876,0-1.596-0.718-1.596-1.597V32.324C9.103,31.447,9.821,30.728,10.699,30.728z"/>
	<path fill-rule="evenodd" clip-rule="evenodd" fill="#333333" d="M4.087,17.04h81.508c1.959,0,2.555,0.914,1.752,2.176l-6.819,10.7
		H9.103l-6.075-9.602C1.664,18.157,1.927,17.04,4.087,17.04z"/>
	<polygon fill-rule="evenodd" clip-rule="evenodd" fill="#17A196" points="83.174,20.3 78.215,28.475 11.473,28.475 6.461,20.3 	"/>
	<path fill-rule="evenodd" clip-rule="evenodd" fill="#4E4D4D" d="M3.636,17.337h82.61c0.176,0,0.319,0.145,0.319,0.32l0,0
		c0,0.176-0.144,0.319-0.319,0.319H3.636c-0.175,0-0.319-0.144-0.319-0.319l0,0C3.317,17.482,3.461,17.337,3.636,17.337z"/>
	<g>
		<path fill-rule="evenodd" clip-rule="evenodd" fill="#4E4D4D" d="M73.746,37.068h2.211c0.249,0,0.455,0.205,0.455,0.456v1.642
			c0,0.25-0.206,0.456-0.455,0.456h-2.211c-0.251,0-0.457-0.206-0.457-0.456v-1.642C73.289,37.272,73.495,37.068,73.746,37.068z"/>
		<path fill-rule="evenodd" clip-rule="evenodd" fill="#4E4D4D" d="M73.847,40.2h2.007c0.308,0,0.559,0.251,0.559,0.558v2.225
			c0,0.307-0.251,0.559-0.559,0.559h-2.007c-0.306,0-0.558-0.251-0.558-0.559v-2.225C73.289,40.451,73.541,40.2,73.847,40.2z"/>
		<path fill-rule="evenodd" clip-rule="evenodd" fill="#4E4D4D" d="M73.847,44.118h2.007c0.308,0,0.559,0.25,0.559,0.559V46.9
			c0,0.306-0.251,0.558-0.559,0.558h-2.007c-0.306,0-0.558-0.251-0.558-0.558v-2.224C73.289,44.368,73.541,44.118,73.847,44.118z"/>
		<path fill-rule="evenodd" clip-rule="evenodd" fill="#4E4D4D" d="M73.847,48.036h2.007c0.308,0,0.559,0.25,0.559,0.558v2.224
			c0,0.308-0.251,0.559-0.559,0.559h-2.007c-0.306,0-0.558-0.251-0.558-0.559v-2.224C73.289,48.286,73.541,48.036,73.847,48.036z"/>
		<path fill-rule="evenodd" clip-rule="evenodd" fill="#4E4D4D" d="M73.847,51.953h2.007c0.308,0,0.559,0.25,0.559,0.559v2.223
			c0,0.307-0.251,0.559-0.559,0.559h-2.007c-0.306,0-0.558-0.252-0.558-0.559v-2.223C73.289,52.203,73.541,51.953,73.847,51.953z"/>
		<path fill-rule="evenodd" clip-rule="evenodd" fill="#4E4D4D" d="M73.847,55.87h2.007c0.308,0,0.559,0.251,0.559,0.558v2.226
			c0,0.307-0.251,0.559-0.559,0.559h-2.007c-0.306,0-0.558-0.252-0.558-0.559v-2.226C73.289,56.121,73.541,55.87,73.847,55.87z"/>
		<path fill-rule="evenodd" clip-rule="evenodd" fill="#4E4D4D" d="M69.843,37.068h2.208c0.252,0,0.458,0.205,0.458,0.456v1.642
			c0,0.25-0.206,0.456-0.458,0.456h-2.208c-0.252,0-0.458-0.206-0.458-0.456v-1.642C69.385,37.272,69.591,37.068,69.843,37.068z"/>
		<path fill-rule="evenodd" clip-rule="evenodd" fill="#4E4D4D" d="M66.377,40.2h5.535c0.328,0,0.597,0.269,0.597,0.597v2.146
			c0,0.328-0.269,0.598-0.597,0.598h-5.535c-0.328,0-0.596-0.27-0.596-0.598v-2.146C65.781,40.469,66.049,40.2,66.377,40.2z"/>
		<path fill-rule="evenodd" clip-rule="evenodd" fill="#4E4D4D" d="M68.919,44.118h2.993c0.328,0,0.597,0.268,0.597,0.597v2.147
			c0,0.327-0.269,0.596-0.597,0.596h-2.993c-0.329,0-0.598-0.269-0.598-0.596v-2.147C68.321,44.386,68.59,44.118,68.919,44.118z"/>
		<path fill-rule="evenodd" clip-rule="evenodd" fill="#4E4D4D" d="M65.938,48.036h5.975c0.328,0,0.597,0.269,0.597,0.596v2.147
			c0,0.329-0.269,0.597-0.597,0.597h-5.975c-0.328,0-0.597-0.269-0.597-0.597v-2.147C65.341,48.304,65.609,48.036,65.938,48.036z"/>
		<path fill-rule="evenodd" clip-rule="evenodd" fill="#4E4D4D" d="M69.944,51.953h2.007c0.308,0,0.558,0.25,0.558,0.559v2.223
			c0,0.307-0.25,0.559-0.558,0.559h-2.007c-0.307,0-0.56-0.252-0.56-0.559v-2.223C69.385,52.203,69.638,51.953,69.944,51.953z"/>
		<path fill-rule="evenodd" clip-rule="evenodd" fill="#4E4D4D" d="M69.944,55.87h2.007c0.308,0,0.558,0.251,0.558,0.558v2.226
			c0,0.307-0.25,0.559-0.558,0.559h-2.007c-0.307,0-0.56-0.252-0.56-0.559v-2.226C69.385,56.121,69.638,55.87,69.944,55.87z"/>
		<path fill-rule="evenodd" clip-rule="evenodd" fill="#4E4D4D" d="M66.236,37.068h1.912c0.251,0,0.458,0.205,0.458,0.456v1.642
			c0,0.25-0.207,0.456-0.458,0.456h-1.912c-0.25,0-0.455-0.206-0.455-0.456v-1.642C65.781,37.272,65.986,37.068,66.236,37.068z"/>
		<path fill-rule="evenodd" clip-rule="evenodd" fill="#4E4D4D" d="M62.572,37.068h1.913c0.25,0,0.456,0.205,0.456,0.456v1.642
			c0,0.25-0.206,0.456-0.456,0.456h-1.913c-0.25,0-0.456-0.206-0.456-0.456v-1.642C62.116,37.272,62.322,37.068,62.572,37.068z"/>
		<path fill-rule="evenodd" clip-rule="evenodd" fill="#4E4D4D" d="M58.908,37.068h1.912c0.252,0,0.457,0.205,0.457,0.456v1.642
			c0,0.25-0.205,0.456-0.457,0.456h-1.912c-0.251,0-0.456-0.206-0.456-0.456v-1.642C58.452,37.272,58.657,37.068,58.908,37.068z"/>
		<path fill-rule="evenodd" clip-rule="evenodd" fill="#4E4D4D" d="M55.244,37.068h1.911c0.251,0,0.458,0.205,0.458,0.456v1.642
			c0,0.25-0.207,0.456-0.458,0.456h-1.911c-0.251,0-0.456-0.206-0.456-0.456v-1.642C54.788,37.272,54.993,37.068,55.244,37.068z"/>
		<path fill-rule="evenodd" clip-rule="evenodd" fill="#4E4D4D" d="M51.581,37.068h1.91c0.251,0,0.457,0.205,0.457,0.456v1.642
			c0,0.25-0.206,0.456-0.457,0.456h-1.91c-0.252,0-0.458-0.206-0.458-0.456v-1.642C51.123,37.272,51.329,37.068,51.581,37.068z"/>
		<path fill-rule="evenodd" clip-rule="evenodd" fill="#4E4D4D" d="M47.916,37.068h1.911c0.252,0,0.457,0.205,0.457,0.456v1.642
			c0,0.25-0.205,0.456-0.457,0.456h-1.911c-0.251,0-0.456-0.206-0.456-0.456v-1.642C47.46,37.272,47.665,37.068,47.916,37.068z"/>
		<path fill-rule="evenodd" clip-rule="evenodd" fill="#4E4D4D" d="M44.251,37.068h1.912c0.251,0,0.457,0.205,0.457,0.456v1.642
			c0,0.25-0.206,0.456-0.457,0.456h-1.912c-0.251,0-0.456-0.206-0.456-0.456v-1.642C43.795,37.272,44,37.068,44.251,37.068z"/>
		<path fill-rule="evenodd" clip-rule="evenodd" fill="#4E4D4D" d="M40.586,37.068h1.912c0.251,0,0.458,0.205,0.458,0.456v1.642
			c0,0.25-0.206,0.456-0.458,0.456h-1.912c-0.25,0-0.456-0.206-0.456-0.456v-1.642C40.13,37.272,40.336,37.068,40.586,37.068z"/>
		<path fill-rule="evenodd" clip-rule="evenodd" fill="#4E4D4D" d="M36.923,37.068h1.91c0.252,0,0.457,0.205,0.457,0.456v1.642
			c0,0.25-0.205,0.456-0.457,0.456h-1.91c-0.251,0-0.456-0.206-0.456-0.456v-1.642C36.467,37.272,36.672,37.068,36.923,37.068z"/>
		<path fill-rule="evenodd" clip-rule="evenodd" fill="#4E4D4D" d="M33.258,37.068h1.912c0.251,0,0.457,0.205,0.457,0.456v1.642
			c0,0.25-0.206,0.456-0.457,0.456h-1.912c-0.25,0-0.456-0.206-0.456-0.456v-1.642C32.803,37.272,33.008,37.068,33.258,37.068z"/>
		<path fill-rule="evenodd" clip-rule="evenodd" fill="#4E4D4D" d="M29.593,37.068h1.912c0.251,0,0.457,0.205,0.457,0.456v1.642
			c0,0.25-0.206,0.456-0.457,0.456h-1.912c-0.25,0-0.456-0.206-0.456-0.456v-1.642C29.138,37.272,29.344,37.068,29.593,37.068z"/>
		<path fill-rule="evenodd" clip-rule="evenodd" fill="#4E4D4D" d="M25.929,37.068h1.912c0.251,0,0.457,0.205,0.457,0.456v1.642
			c0,0.25-0.206,0.456-0.457,0.456h-1.912c-0.25,0-0.456-0.206-0.456-0.456v-1.642C25.473,37.272,25.679,37.068,25.929,37.068z"/>
		<path fill-rule="evenodd" clip-rule="evenodd" fill="#4E4D4D" d="M22.266,37.068h1.912c0.251,0,0.456,0.205,0.456,0.456v1.642
			c0,0.25-0.205,0.456-0.456,0.456h-1.912c-0.251,0-0.458-0.206-0.458-0.456v-1.642C21.808,37.272,22.014,37.068,22.266,37.068z"/>
		<path fill-rule="evenodd" clip-rule="evenodd" fill="#4E4D4D" d="M18.601,37.068h1.912c0.251,0,0.457,0.205,0.457,0.456v1.642
			c0,0.25-0.206,0.456-0.457,0.456h-1.912c-0.251,0-0.456-0.206-0.456-0.456v-1.642C18.145,37.272,18.35,37.068,18.601,37.068z"/>
		<path fill-rule="evenodd" clip-rule="evenodd" fill="#4E4D4D" d="M14.484,37.068h2.21c0.251,0,0.456,0.205,0.456,0.456v1.642
			c0,0.25-0.205,0.456-0.456,0.456h-2.21c-0.251,0-0.457-0.206-0.457-0.456v-1.642C14.027,37.272,14.233,37.068,14.484,37.068z"/>
		<path fill-rule="evenodd" clip-rule="evenodd" fill="#4E4D4D" d="M62.424,40.2h1.97c0.301,0,0.548,0.247,0.548,0.548v2.246
			c0,0.3-0.247,0.547-0.548,0.547h-1.97c-0.302,0-0.547-0.247-0.547-0.547v-2.246C61.877,40.447,62.122,40.2,62.424,40.2z"/>
		<path fill-rule="evenodd" clip-rule="evenodd" fill="#4E4D4D" d="M58.448,40.2h1.97c0.302,0,0.548,0.247,0.548,0.548v2.246
			c0,0.3-0.246,0.547-0.548,0.547h-1.97c-0.302,0-0.548-0.247-0.548-0.547v-2.246C57.9,40.447,58.146,40.2,58.448,40.2z"/>
		<path fill-rule="evenodd" clip-rule="evenodd" fill="#4E4D4D" d="M54.473,40.2h1.971c0.3,0,0.547,0.247,0.547,0.548v2.246
			c0,0.3-0.247,0.547-0.547,0.547h-1.971c-0.301,0-0.546-0.247-0.546-0.547v-2.246C53.927,40.447,54.172,40.2,54.473,40.2z"/>
		<path fill-rule="evenodd" clip-rule="evenodd" fill="#4E4D4D" d="M50.497,40.2h1.97c0.302,0,0.548,0.247,0.548,0.548v2.246
			c0,0.3-0.246,0.547-0.548,0.547h-1.97c-0.301,0-0.548-0.247-0.548-0.547v-2.246C49.949,40.447,50.196,40.2,50.497,40.2z"/>
		<path fill-rule="evenodd" clip-rule="evenodd" fill="#4E4D4D" d="M46.521,40.2h1.97c0.302,0,0.549,0.247,0.549,0.548v2.246
			c0,0.3-0.247,0.547-0.549,0.547h-1.97c-0.3,0-0.547-0.247-0.547-0.547v-2.246C45.974,40.447,46.221,40.2,46.521,40.2z"/>
		<path fill-rule="evenodd" clip-rule="evenodd" fill="#4E4D4D" d="M42.546,40.2h1.97c0.3,0,0.547,0.247,0.547,0.548v2.246
			c0,0.3-0.247,0.547-0.547,0.547h-1.97c-0.302,0-0.548-0.247-0.548-0.547v-2.246C41.998,40.447,42.245,40.2,42.546,40.2z"/>
		<path fill-rule="evenodd" clip-rule="evenodd" fill="#4E4D4D" d="M38.57,40.2h1.97c0.301,0,0.547,0.247,0.547,0.548v2.246
			c0,0.3-0.246,0.547-0.547,0.547h-1.97c-0.302,0-0.547-0.247-0.547-0.547v-2.246C38.023,40.447,38.269,40.2,38.57,40.2z"/>
		<path fill-rule="evenodd" clip-rule="evenodd" fill="#4E4D4D" d="M34.594,40.2h1.97c0.301,0,0.548,0.247,0.548,0.548v2.246
			c0,0.3-0.247,0.547-0.548,0.547h-1.97c-0.301,0-0.547-0.247-0.547-0.547v-2.246C34.047,40.447,34.293,40.2,34.594,40.2z"/>
		<path fill-rule="evenodd" clip-rule="evenodd" fill="#4E4D4D" d="M30.619,40.2h1.97c0.301,0,0.547,0.247,0.547,0.548v2.246
			c0,0.3-0.246,0.547-0.547,0.547h-1.97c-0.301,0-0.547-0.247-0.547-0.547v-2.246C30.072,40.447,30.318,40.2,30.619,40.2z"/>
		<path fill-rule="evenodd" clip-rule="evenodd" fill="#4E4D4D" d="M26.643,40.2h1.97c0.301,0,0.548,0.247,0.548,0.548v2.246
			c0,0.3-0.247,0.547-0.548,0.547h-1.97c-0.301,0-0.547-0.247-0.547-0.547v-2.246C26.096,40.447,26.342,40.2,26.643,40.2z"/>
		<path fill-rule="evenodd" clip-rule="evenodd" fill="#4E4D4D" d="M22.668,40.2h1.97c0.301,0,0.547,0.247,0.547,0.548v2.246
			c0,0.3-0.246,0.547-0.547,0.547h-1.97c-0.301,0-0.547-0.247-0.547-0.547v-2.246C22.121,40.447,22.367,40.2,22.668,40.2z"/>
		<path fill-rule="evenodd" clip-rule="evenodd" fill="#4E4D4D" d="M18.692,40.2h1.97c0.301,0,0.547,0.247,0.547,0.548v2.246
			c0,0.3-0.246,0.547-0.547,0.547h-1.97c-0.301,0-0.547-0.247-0.547-0.547v-2.246C18.145,40.447,18.391,40.2,18.692,40.2z"/>
		<path fill-rule="evenodd" clip-rule="evenodd" fill="#4E4D4D" d="M14.586,40.2h2.007c0.306,0,0.558,0.251,0.558,0.558v2.225
			c0,0.307-0.251,0.559-0.558,0.559h-2.007c-0.306,0-0.559-0.251-0.559-0.559v-2.225C14.027,40.451,14.28,40.2,14.586,40.2z"/>
		<path fill-rule="evenodd" clip-rule="evenodd" fill="#4E4D4D" d="M14.625,44.118h4.13c0.328,0,0.597,0.268,0.597,0.597v2.147
			c0,0.327-0.269,0.596-0.597,0.596h-4.13c-0.328,0-0.597-0.269-0.597-0.596v-2.147C14.027,44.386,14.296,44.118,14.625,44.118z"/>
		<path fill-rule="evenodd" clip-rule="evenodd" fill="#4E4D4D" d="M14.625,48.036h4.911c0.328,0,0.597,0.269,0.597,0.596v2.147
			c0,0.329-0.27,0.597-0.597,0.597h-4.911c-0.328,0-0.597-0.269-0.597-0.597v-2.147C14.027,48.304,14.296,48.036,14.625,48.036z"/>
		<path fill-rule="evenodd" clip-rule="evenodd" fill="#4E4D4D" d="M14.625,51.953h7.04c0.329,0,0.597,0.268,0.597,0.596v2.148
			c0,0.328-0.268,0.596-0.597,0.596h-7.04c-0.328,0-0.597-0.268-0.597-0.596v-2.148C14.027,52.221,14.296,51.953,14.625,51.953z"/>
		<path fill-rule="evenodd" clip-rule="evenodd" fill="#4E4D4D" d="M14.625,55.87h2.923c0.33,0,0.598,0.269,0.598,0.598v2.146
			c0,0.328-0.268,0.598-0.598,0.598h-2.923c-0.328,0-0.597-0.27-0.597-0.598v-2.146C14.027,56.139,14.296,55.87,14.625,55.87z"/>
		<path fill-rule="evenodd" clip-rule="evenodd" fill="#4E4D4D" d="M20.435,44.118h2.108c0.322,0,0.587,0.264,0.587,0.586v2.167
			c0,0.323-0.265,0.586-0.587,0.586h-2.108c-0.323,0-0.588-0.264-0.588-0.586v-2.167C19.847,44.381,20.112,44.118,20.435,44.118z"/>
		<path fill-rule="evenodd" clip-rule="evenodd" fill="#4E4D4D" d="M24.484,44.118h2.11c0.322,0,0.586,0.264,0.586,0.586v2.167
			c0,0.323-0.264,0.586-0.586,0.586h-2.11c-0.322,0-0.586-0.264-0.586-0.586v-2.167C23.898,44.381,24.162,44.118,24.484,44.118z"/>
		<path fill-rule="evenodd" clip-rule="evenodd" fill="#4E4D4D" d="M28.535,44.118h2.11c0.323,0,0.586,0.264,0.586,0.586v2.167
			c0,0.323-0.264,0.586-0.586,0.586h-2.11c-0.322,0-0.586-0.264-0.586-0.586v-2.167C27.949,44.381,28.212,44.118,28.535,44.118z"/>
		<path fill-rule="evenodd" clip-rule="evenodd" fill="#4E4D4D" d="M32.584,44.118h2.11c0.322,0,0.586,0.264,0.586,0.586v2.167
			c0,0.323-0.264,0.586-0.586,0.586h-2.11c-0.322,0-0.586-0.264-0.586-0.586v-2.167C31.998,44.381,32.263,44.118,32.584,44.118z"/>
		<path fill-rule="evenodd" clip-rule="evenodd" fill="#4E4D4D" d="M36.635,44.118h2.11c0.322,0,0.586,0.264,0.586,0.586v2.167
			c0,0.323-0.264,0.586-0.586,0.586h-2.11c-0.322,0-0.586-0.264-0.586-0.586v-2.167C36.049,44.381,36.313,44.118,36.635,44.118z"/>
		<path fill-rule="evenodd" clip-rule="evenodd" fill="#4E4D4D" d="M40.686,44.118h2.108c0.323,0,0.588,0.264,0.588,0.586v2.167
			c0,0.323-0.265,0.586-0.588,0.586h-2.108c-0.322,0-0.586-0.264-0.586-0.586v-2.167C40.1,44.381,40.363,44.118,40.686,44.118z"/>
		<path fill-rule="evenodd" clip-rule="evenodd" fill="#4E4D4D" d="M44.735,44.118h2.11c0.322,0,0.586,0.264,0.586,0.586v2.167
			c0,0.323-0.264,0.586-0.586,0.586h-2.11c-0.323,0-0.586-0.264-0.586-0.586v-2.167C44.148,44.381,44.412,44.118,44.735,44.118z"/>
		<path fill-rule="evenodd" clip-rule="evenodd" fill="#4E4D4D" d="M48.785,44.118h2.11c0.322,0,0.586,0.264,0.586,0.586v2.167
			c0,0.323-0.264,0.586-0.586,0.586h-2.11c-0.322,0-0.586-0.264-0.586-0.586v-2.167C48.199,44.381,48.463,44.118,48.785,44.118z"/>
		<path fill-rule="evenodd" clip-rule="evenodd" fill="#4E4D4D" d="M52.836,44.118h2.109c0.321,0,0.586,0.264,0.586,0.586v2.167
			c0,0.323-0.265,0.586-0.586,0.586h-2.109c-0.322,0-0.586-0.264-0.586-0.586v-2.167C52.25,44.381,52.514,44.118,52.836,44.118z"/>
		<path fill-rule="evenodd" clip-rule="evenodd" fill="#4E4D4D" d="M56.887,44.118h2.108c0.322,0,0.588,0.264,0.588,0.586v2.167
			c0,0.323-0.266,0.586-0.588,0.586h-2.108c-0.322,0-0.586-0.264-0.586-0.586v-2.167C56.301,44.381,56.564,44.118,56.887,44.118z"/>
		<path fill-rule="evenodd" clip-rule="evenodd" fill="#4E4D4D" d="M60.937,44.118h2.109c0.322,0,0.588,0.264,0.588,0.586v2.167
			c0,0.323-0.266,0.586-0.588,0.586h-2.109c-0.323,0-0.586-0.264-0.586-0.586v-2.167C60.351,44.381,60.613,44.118,60.937,44.118z"/>
		<path fill-rule="evenodd" clip-rule="evenodd" fill="#4E4D4D" d="M64.987,44.118h2.109c0.322,0,0.586,0.264,0.586,0.586v2.167
			c0,0.323-0.264,0.586-0.586,0.586h-2.109c-0.323,0-0.587-0.264-0.587-0.586v-2.167C64.4,44.381,64.664,44.118,64.987,44.118z"/>
		<path fill-rule="evenodd" clip-rule="evenodd" fill="#4E4D4D" d="M21.561,48.036h2.109c0.322,0,0.586,0.264,0.586,0.586v2.167
			c0,0.323-0.264,0.587-0.586,0.587h-2.109c-0.322,0-0.587-0.264-0.587-0.587v-2.167C20.974,48.299,21.239,48.036,21.561,48.036z"/>
		<path fill-rule="evenodd" clip-rule="evenodd" fill="#4E4D4D" d="M25.611,48.036h2.11c0.323,0,0.586,0.264,0.586,0.586v2.167
			c0,0.323-0.264,0.587-0.586,0.587h-2.11c-0.322,0-0.586-0.264-0.586-0.587v-2.167C25.025,48.299,25.289,48.036,25.611,48.036z"/>
		<path fill-rule="evenodd" clip-rule="evenodd" fill="#4E4D4D" d="M29.662,48.036h2.108c0.323,0,0.587,0.264,0.587,0.586v2.167
			c0,0.323-0.265,0.587-0.587,0.587h-2.108c-0.323,0-0.586-0.264-0.586-0.587v-2.167C29.076,48.299,29.339,48.036,29.662,48.036z"/>
		<path fill-rule="evenodd" clip-rule="evenodd" fill="#4E4D4D" d="M33.711,48.036h2.11c0.322,0,0.587,0.264,0.587,0.586v2.167
			c0,0.323-0.265,0.587-0.587,0.587h-2.11c-0.322,0-0.586-0.264-0.586-0.587v-2.167C33.125,48.299,33.389,48.036,33.711,48.036z"/>
		<path fill-rule="evenodd" clip-rule="evenodd" fill="#4E4D4D" d="M37.762,48.036h2.109c0.323,0,0.586,0.264,0.586,0.586v2.167
			c0,0.323-0.264,0.587-0.586,0.587h-2.109c-0.322,0-0.586-0.264-0.586-0.587v-2.167C37.176,48.299,37.439,48.036,37.762,48.036z"/>
		<path fill-rule="evenodd" clip-rule="evenodd" fill="#4E4D4D" d="M41.812,48.036h2.11c0.323,0,0.586,0.264,0.586,0.586v2.167
			c0,0.323-0.263,0.587-0.586,0.587h-2.11c-0.323,0-0.586-0.264-0.586-0.587v-2.167C41.226,48.299,41.489,48.036,41.812,48.036z"/>
		<path fill-rule="evenodd" clip-rule="evenodd" fill="#4E4D4D" d="M45.862,48.036h2.109c0.322,0,0.586,0.264,0.586,0.586v2.167
			c0,0.323-0.264,0.587-0.586,0.587h-2.109c-0.322,0-0.586-0.264-0.586-0.587v-2.167C45.276,48.299,45.54,48.036,45.862,48.036z"/>
		<path fill-rule="evenodd" clip-rule="evenodd" fill="#4E4D4D" d="M49.913,48.036h2.109c0.322,0,0.587,0.264,0.587,0.586v2.167
			c0,0.323-0.265,0.587-0.587,0.587h-2.109c-0.323,0-0.586-0.264-0.586-0.587v-2.167C49.327,48.299,49.59,48.036,49.913,48.036z"/>
		<path fill-rule="evenodd" clip-rule="evenodd" fill="#4E4D4D" d="M53.963,48.036h2.109c0.322,0,0.587,0.264,0.587,0.586v2.167
			c0,0.323-0.265,0.587-0.587,0.587h-2.109c-0.322,0-0.587-0.264-0.587-0.587v-2.167C53.376,48.299,53.641,48.036,53.963,48.036z"/>
		<path fill-rule="evenodd" clip-rule="evenodd" fill="#4E4D4D" d="M58.014,48.036h2.109c0.322,0,0.587,0.264,0.587,0.586v2.167
			c0,0.323-0.265,0.587-0.587,0.587h-2.109c-0.322,0-0.587-0.264-0.587-0.587v-2.167C57.427,48.299,57.691,48.036,58.014,48.036z"/>
		<path fill-rule="evenodd" clip-rule="evenodd" fill="#4E4D4D" d="M62.064,48.036h2.108c0.322,0,0.587,0.264,0.587,0.586v2.167
			c0,0.323-0.265,0.587-0.587,0.587h-2.108c-0.323,0-0.588-0.264-0.588-0.587v-2.167C61.477,48.299,61.741,48.036,62.064,48.036z"/>
		<path fill-rule="evenodd" clip-rule="evenodd" fill="#4E4D4D" d="M23.681,51.953h2.11c0.322,0,0.586,0.264,0.586,0.586v2.168
			c0,0.322-0.264,0.586-0.586,0.586h-2.11c-0.322,0-0.586-0.264-0.586-0.586v-2.168C23.095,52.217,23.359,51.953,23.681,51.953z"/>
		<path fill-rule="evenodd" clip-rule="evenodd" fill="#4E4D4D" d="M27.732,51.953h2.11c0.323,0,0.586,0.264,0.586,0.586v2.168
			c0,0.322-0.264,0.586-0.586,0.586h-2.11c-0.322,0-0.586-0.264-0.586-0.586v-2.168C27.146,52.217,27.41,51.953,27.732,51.953z"/>
		<path fill-rule="evenodd" clip-rule="evenodd" fill="#4E4D4D" d="M31.783,51.953h2.108c0.322,0,0.587,0.264,0.587,0.586v2.168
			c0,0.322-0.265,0.586-0.587,0.586h-2.108c-0.323,0-0.588-0.264-0.588-0.586v-2.168C31.195,52.217,31.46,51.953,31.783,51.953z"/>
		<path fill-rule="evenodd" clip-rule="evenodd" fill="#4E4D4D" d="M35.832,51.953h2.11c0.322,0,0.586,0.264,0.586,0.586v2.168
			c0,0.322-0.264,0.586-0.586,0.586h-2.11c-0.322,0-0.586-0.264-0.586-0.586v-2.168C35.246,52.217,35.509,51.953,35.832,51.953z"/>
		<path fill-rule="evenodd" clip-rule="evenodd" fill="#4E4D4D" d="M39.882,51.953h2.11c0.322,0,0.586,0.264,0.586,0.586v2.168
			c0,0.322-0.265,0.586-0.586,0.586h-2.11c-0.322,0-0.586-0.264-0.586-0.586v-2.168C39.296,52.217,39.56,51.953,39.882,51.953z"/>
		<path fill-rule="evenodd" clip-rule="evenodd" fill="#4E4D4D" d="M43.933,51.953h2.109c0.322,0,0.586,0.264,0.586,0.586v2.168
			c0,0.322-0.264,0.586-0.586,0.586h-2.109c-0.323,0-0.587-0.264-0.587-0.586v-2.168C43.346,52.217,43.61,51.953,43.933,51.953z"/>
		<path fill-rule="evenodd" clip-rule="evenodd" fill="#4E4D4D" d="M47.982,51.953h2.11c0.322,0,0.586,0.264,0.586,0.586v2.168
			c0,0.322-0.264,0.586-0.586,0.586h-2.11c-0.322,0-0.586-0.264-0.586-0.586v-2.168C47.396,52.217,47.66,51.953,47.982,51.953z"/>
		<path fill-rule="evenodd" clip-rule="evenodd" fill="#4E4D4D" d="M52.033,51.953h2.109c0.322,0,0.586,0.264,0.586,0.586v2.168
			c0,0.322-0.264,0.586-0.586,0.586h-2.109c-0.322,0-0.586-0.264-0.586-0.586v-2.168C51.447,52.217,51.711,51.953,52.033,51.953z"/>
		<path fill-rule="evenodd" clip-rule="evenodd" fill="#4E4D4D" d="M56.083,51.953h2.109c0.323,0,0.587,0.264,0.587,0.586v2.168
			c0,0.322-0.264,0.586-0.587,0.586h-2.109c-0.323,0-0.585-0.264-0.585-0.586v-2.168C55.498,52.217,55.76,51.953,56.083,51.953z"/>
		<path fill-rule="evenodd" clip-rule="evenodd" fill="#4E4D4D" d="M60.133,51.953h2.109c0.324,0,0.588,0.264,0.588,0.586v2.168
			c0,0.322-0.264,0.586-0.588,0.586h-2.109c-0.322,0-0.585-0.264-0.585-0.586v-2.168C59.548,52.217,59.811,51.953,60.133,51.953z"/>
		<path fill-rule="evenodd" clip-rule="evenodd" fill="#4E4D4D" d="M64.193,51.953h3.815c0.328,0,0.598,0.268,0.598,0.596v2.148
			c0,0.328-0.27,0.596-0.598,0.596h-3.815c-0.327,0-0.596-0.268-0.596-0.596v-2.148C63.598,52.221,63.866,51.953,64.193,51.953z"/>
		<path fill-rule="evenodd" clip-rule="evenodd" fill="#4E4D4D" d="M19.565,55.87h2.11c0.322,0,0.586,0.264,0.586,0.586v2.168
			c0,0.322-0.264,0.588-0.586,0.588h-2.11c-0.322,0-0.586-0.266-0.586-0.588v-2.168C18.979,56.134,19.243,55.87,19.565,55.87z"/>
		<path fill-rule="evenodd" clip-rule="evenodd" fill="#4E4D4D" d="M23.616,55.87h2.109c0.323,0,0.587,0.264,0.587,0.586v2.168
			c0,0.322-0.264,0.588-0.587,0.588h-2.109c-0.322,0-0.586-0.266-0.586-0.588v-2.168C23.03,56.134,23.293,55.87,23.616,55.87z"/>
		<path fill-rule="evenodd" clip-rule="evenodd" fill="#4E4D4D" d="M27.667,55.87h2.109c0.322,0,0.586,0.264,0.586,0.586v2.168
			c0,0.322-0.264,0.588-0.586,0.588h-2.109c-0.324,0-0.586-0.266-0.586-0.588v-2.168C27.081,56.134,27.342,55.87,27.667,55.87z"/>
		<path fill-rule="evenodd" clip-rule="evenodd" fill="#4E4D4D" d="M31.715,55.87h2.11c0.322,0,0.586,0.264,0.586,0.586v2.168
			c0,0.322-0.264,0.588-0.586,0.588h-2.11c-0.322,0-0.586-0.266-0.586-0.588v-2.168C31.129,56.134,31.393,55.87,31.715,55.87z"/>
		<path fill-rule="evenodd" clip-rule="evenodd" fill="#4E4D4D" d="M35.766,55.87h2.11c0.323,0,0.586,0.264,0.586,0.586v2.168
			c0,0.322-0.264,0.588-0.586,0.588h-2.11c-0.322,0-0.586-0.266-0.586-0.588v-2.168C35.18,56.134,35.444,55.87,35.766,55.87z"/>
		<path fill-rule="evenodd" clip-rule="evenodd" fill="#4E4D4D" d="M39.816,55.87h2.11c0.323,0,0.586,0.264,0.586,0.586v2.168
			c0,0.322-0.263,0.588-0.586,0.588h-2.11c-0.322,0-0.586-0.266-0.586-0.588v-2.168C39.23,56.134,39.494,55.87,39.816,55.87z"/>
		<path fill-rule="evenodd" clip-rule="evenodd" fill="#4E4D4D" d="M43.866,55.87h2.11c0.322,0,0.586,0.264,0.586,0.586v2.168
			c0,0.322-0.264,0.588-0.586,0.588h-2.11c-0.322,0-0.586-0.266-0.586-0.588v-2.168C43.28,56.134,43.544,55.87,43.866,55.87z"/>
		<path fill-rule="evenodd" clip-rule="evenodd" fill="#4E4D4D" d="M47.917,55.87h2.109c0.323,0,0.586,0.264,0.586,0.586v2.168
			c0,0.322-0.264,0.588-0.586,0.588h-2.109c-0.322,0-0.586-0.266-0.586-0.588v-2.168C47.331,56.134,47.595,55.87,47.917,55.87z"/>
		<path fill-rule="evenodd" clip-rule="evenodd" fill="#4E4D4D" d="M51.968,55.87h2.109c0.322,0,0.585,0.264,0.585,0.586v2.168
			c0,0.322-0.263,0.588-0.585,0.588h-2.109c-0.324,0-0.588-0.266-0.588-0.588v-2.168C51.38,56.134,51.644,55.87,51.968,55.87z"/>
		<path fill-rule="evenodd" clip-rule="evenodd" fill="#4E4D4D" d="M56.018,55.87h2.108c0.323,0,0.587,0.264,0.587,0.586v2.168
			c0,0.322-0.264,0.588-0.587,0.588h-2.108c-0.323,0-0.586-0.266-0.586-0.588v-2.168C55.432,56.134,55.694,55.87,56.018,55.87z"/>
		<path fill-rule="evenodd" clip-rule="evenodd" fill="#4E4D4D" d="M60.078,55.87h3.814c0.328,0,0.598,0.269,0.598,0.598v2.146
			c0,0.328-0.27,0.598-0.598,0.598h-3.814c-0.329,0-0.597-0.27-0.597-0.598v-2.146C59.481,56.139,59.749,55.87,60.078,55.87z"/>
		<path fill-rule="evenodd" clip-rule="evenodd" fill="#4E4D4D" d="M66.04,55.87h2.008c0.307,0,0.559,0.251,0.559,0.558v2.226
			c0,0.307-0.252,0.559-0.559,0.559H66.04c-0.307,0-0.558-0.252-0.558-0.559v-2.226C65.482,56.121,65.733,55.87,66.04,55.87z"/>
	</g>
	<g>
		<path fill-rule="evenodd" clip-rule="evenodd" fill="#CCCCCC" d="M28.791,62.021h21.047c0.322,0,0.584,0.262,0.584,0.583v10.12
			c0,0.321-0.263,0.583-0.584,0.583H28.791c-0.32,0-0.584-0.262-0.584-0.583v-10.12C28.207,62.282,28.47,62.021,28.791,62.021z"/>
		<path fill-rule="evenodd" clip-rule="evenodd" fill="#CCCCCC" d="M28.328,74.063h10.468c0.067,0,0.122,0.055,0.122,0.121v2.103
			c0,0.066-0.055,0.121-0.122,0.121H28.328c-0.067,0-0.122-0.055-0.122-0.121v-2.103C28.207,74.118,28.261,74.063,28.328,74.063z"/>
		<path fill-rule="evenodd" clip-rule="evenodd" fill="#CCCCCC" d="M39.833,74.063H50.3c0.067,0,0.122,0.055,0.122,0.121v2.103
			c0,0.066-0.055,0.121-0.122,0.121H39.833c-0.066,0-0.122-0.055-0.122-0.121v-2.103C39.711,74.118,39.766,74.063,39.833,74.063z"/>
	</g>
	<polygon opacity="0.3" fill-rule="evenodd" clip-rule="evenodd" fill="#FFFFFF" points="6.461,20.3 78.215,28.475 83.174,20.3 	"/>
	<path fill-rule="evenodd" clip-rule="evenodd" fill="#CCCCCC" d="M77,72.964C77,73.536,76.536,74,75.965,74h-18.93
		C56.464,74,56,73.536,56,72.964v-4.928C56,67.464,56.464,67,57.035,67h18.93C76.536,67,77,67.464,77,68.036V72.964z"/>
	<circle fill-rule="evenodd" clip-rule="evenodd" fill="#35B9BB" cx="21.805" cy="64.133" r="1.561"/>
	<path fill-rule="evenodd" clip-rule="evenodd" fill="#E83B37" d="M19,64.792C19,64.907,18.907,65,18.792,65h-5.584
		C13.093,65,13,64.907,13,64.792v-1.584C13,63.093,13.093,63,13.208,63h5.584C18.907,63,19,63.093,19,63.208V64.792z"/>
	<g opacity="0.6">
		<rect x="57" y="69" fill-rule="evenodd" clip-rule="evenodd" fill="#35B9BB" width="4" height="3"/>
		<rect x="61" y="69" fill-rule="evenodd" clip-rule="evenodd" fill="#35B9BB" width="3" height="3"/>
		<rect x="64" y="69" fill-rule="evenodd" clip-rule="evenodd" fill="#35B9BB" width="3" height="3"/>
		<line fill="none" stroke="#35B9BB" stroke-miterlimit="10" x1="68" y1="69.5" x2="75" y2="69.5"/>
		<line fill="none" stroke="#35B9BB" stroke-miterlimit="10" x1="68" y1="71.5" x2="75" y2="71.5"/>
	</g>
</g>
<path fill="none" stroke="#333333" stroke-width="3" stroke-linecap="round" stroke-linejoin="round" stroke-miterlimit="10" d="
	M81.304,32.813c0,0,13.571-0.197,11.499,4.097c-2.07,4.294-12.846,10.925-3.522,16.52c9.325,5.594,3.425,16.052,0.11,25.741"/>
<path fill="#333333" d="M97.752,82.896c1.383,1.432,1.343,3.713-0.089,5.095l-0.292,0.281c-1.432,1.383-3.712,1.343-5.095-0.089
	l-4.511-4.672c-1.382-1.432-1.341-3.713,0.09-5.094l0.291-0.281c1.432-1.383,3.713-1.343,5.094,0.089L97.752,82.896z"/>
<path fill-rule="evenodd" clip-rule="evenodd" fill="#333333" d="M92,37.844C92,37.93,91.931,38,91.845,38h-1.689
	C90.069,38,90,37.93,90,37.844v-3.688C90,34.07,90.069,34,90.155,34h1.689C91.931,34,92,34.07,92,34.156V37.844z"/>
<path fill-rule="evenodd" clip-rule="evenodd" fill="#333333" d="M92,37.844C92,37.93,91.931,38,91.845,38h-1.689
	C90.069,38,90,37.93,90,37.844v-3.688C90,34.07,90.069,34,90.155,34h1.689C91.931,34,92,34.07,92,34.156V37.844z"/>
</svg>
