<?xml version="1.0" encoding="utf-8"?>
<!-- Generator: Adobe Illustrator 16.0.0, SVG Export Plug-In . SVG Version: 6.00 Build 0)  -->
<!DOCTYPE svg PUBLIC "-//W3C//DTD SVG 1.1//EN" "http://www.w3.org/Graphics/SVG/1.1/DTD/svg11.dtd">
<svg version="1.1" id="图层_1" xmlns="http://www.w3.org/2000/svg" xmlns:xlink="http://www.w3.org/1999/xlink" x="0px" y="0px"
	 width="100px" height="100px" viewBox="0 0 100 100" enable-background="new 0 0 100 100" xml:space="preserve">
<path fill="#F09738" d="M6.947,46.54c1.613,0,2.923,1.814,3.275,3.979c0.353,2.217-0.756,4.03-2.368,4.03
	c-1.562,0-3.779-1.813-3.779-4.03C4.075,48.354,5.386,46.54,6.947,46.54z"/>
<path fill="#010101" stroke="#231F20" stroke-width="0.216" d="M31.886,91.783l63.282-0.051c2.318,0,4.283-1.863,2.872-4.735
	l-8.062-15.972c-0.354-0.754-1.209-1.51-2.722-1.51H39.596c-1.512,0-2.318,0.756-2.72,1.51l-8.264,15.416
	C26.949,89.566,29.569,91.783,31.886,91.783z"/>
<path fill="#DD7526" d="M22.214,4.772c5.34,0,9.672,4.132,9.672,9.22c0,5.038-4.332,9.169-9.672,9.169
	c-5.341,0-9.674-4.131-9.674-9.169C12.54,8.904,16.873,4.772,22.214,4.772z"/>
<path fill="#F09738" d="M21.76,5.226c4.787,0,8.716,3.729,8.716,8.314c0,4.534-3.93,8.262-8.716,8.262
	c-4.836,0-8.716-3.728-8.716-8.262C13.044,8.954,16.924,5.226,21.76,5.226z"/>
<path fill="#FCBE7B" d="M21.407,5.78c4.384,0,7.911,3.375,7.911,7.507c0,4.182-3.526,7.507-7.911,7.507
	c-4.333,0-7.86-3.326-7.86-7.507C13.547,9.156,17.075,5.78,21.407,5.78z"/>
<radialGradient id="SVGID_1_" cx="267.9824" cy="-281.5239" r="10.6906" gradientTransform="matrix(1 0 0 -1 -247.5996 -269.96)" gradientUnits="userSpaceOnUse">
	<stop  offset="0" style="stop-color:#FFFFFF"/>
	<stop  offset="1" style="stop-color:#FCBE7B"/>
</radialGradient>
<path fill="url(#SVGID_1_)" d="M21.005,6.737c3.577,0,6.449,2.771,6.449,6.147c0,3.426-2.872,6.146-6.449,6.146
	c-3.578,0-6.45-2.72-6.45-6.146C14.555,9.508,17.427,6.737,21.005,6.737z"/>
<path fill="#FEE9D9" d="M29.922,10.012c0.756,1.26,1.16,2.62,1.16,4.131c0,4.383-3.578,8.012-8.112,8.364
	c4.333-1.058,7.558-4.787,7.558-9.271C30.527,12.128,30.326,11.02,29.922,10.012z"/>
<linearGradient id="SVGID_2_" gradientUnits="userSpaceOnUse" x1="310.8232" y1="-355.7954" x2="312.9243" y2="-340.8456" gradientTransform="matrix(1 0 0 -1 -247.5996 -269.96)">
	<stop  offset="0" style="stop-color:#595A5C"/>
	<stop  offset="1" style="stop-color:#231F20"/>
</linearGradient>
<path fill="url(#SVGID_2_)" stroke="#231F20" stroke-width="0.216" d="M33.752,86.494l58.997-0.102c1.864,0,3.377-1.008,2.569-2.469
	l-6.096-11.84c-0.402-0.756-1.261-1.613-2.771-1.563l-46,0.103c-1.512,0-2.369,0.806-2.771,1.562l-6.35,12.192
	C30.88,85.284,31.434,86.545,33.752,86.494z"/>
<path fill="#010101" d="M10.021,49.714l1.411,12.646L13.044,74.4c0,0.354,0.353,0.605,0.856,0.757
	c-1.158,1.159-3.022,3.175-3.022,4.483c0,1.914,2.771,1.612,4.988,0.807c2.166-0.807,3.829-2.922,3.829-4.131v-1.461
	c0.554-0.151,0.908-0.403,0.856-0.604l-0.353-13.554L20.4,50.521L10.021,49.714z"/>
<path fill="#010101" d="M28.562,52.436c-1.158,4.332-1.008,7.055-1.965,10.529c-0.151,0.555-0.554,1.411-1.41,1.965l-12.898,8.264
	c-0.555,0.354-1.209,0.303-1.864,0c0.202,1.512,1.36,3.022,2.166,3.779c0.101,1.008-0.453,2.064-2.922,1.864
	c-2.318-0.151-4.182-2.42-4.585-3.881c-0.353-1.511-0.756-3.576-0.402-6.046l2.065-1.059c0.05-0.303,0.201-0.555,0.453-0.654
	l11.084-5.846l1.21-9.472L28.562,52.436z"/>
<path fill="#010101" stroke="#231F20" stroke-width="0.216" d="M39.596,30.166h47.662c1.512,0,2.723,1.209,2.723,2.721v33.907
	c0,1.513-1.211,2.722-2.723,2.722H39.596c-1.512,0-2.72-1.209-2.72-2.722V32.887C36.875,31.375,38.084,30.166,39.596,30.166z"/>
<linearGradient id="SVGID_3_" gradientUnits="userSpaceOnUse" x1="303.2676" y1="-353.7842" x2="317.8789" y2="-353.7842" gradientTransform="matrix(1 0 0 -1 -247.5996 -269.96)">
	<stop  offset="0" style="stop-color:#6C6D70"/>
	<stop  offset="1" style="stop-color:#999A9E"/>
</linearGradient>
<polygon fill="url(#SVGID_3_)" points="56.172,82.211 69.725,82.211 70.279,85.438 55.668,85.438 "/>
<rect x="61.01" y="65.081" fill="none" stroke="#231F20" stroke-width="0.216" width="4.029" height="2.217"/>
<linearGradient id="SVGID_4_" gradientUnits="userSpaceOnUse" x1="310.6055" y1="-313.7651" x2="309.2962" y2="-295.0412" gradientTransform="matrix(1 0 0 -1 -247.5996 -269.96)">
	<stop  offset="0" style="stop-color:#7A7B7D"/>
	<stop  offset="1" style="stop-color:#CDCED0"/>
</linearGradient>
<path fill="url(#SVGID_4_)" stroke="#231F20" stroke-width="0.216" d="M40.301,30.72h46.252c1.461,0,2.672,1.209,2.672,2.67v32.901
	c0,1.461-1.211,2.669-2.672,2.669H40.301c-1.461,0-2.67-1.208-2.67-2.669V33.39C37.63,31.929,38.84,30.72,40.301,30.72z"/>
<linearGradient id="SVGID_5_" gradientUnits="userSpaceOnUse" x1="311.0596" y1="-322.0728" x2="316.9643" y2="-336.6874" gradientTransform="matrix(1 0 0 -1 -247.5996 -269.96)">
	<stop  offset="0" style="stop-color:#595A5C"/>
	<stop  offset="1" style="stop-color:#231F20"/>
</linearGradient>
<path fill="url(#SVGID_5_)" d="M89.225,37.27v29.021c0,1.461-1.211,2.669-2.672,2.669H40.301c-1.461,0-2.67-1.208-2.67-2.669v-3.729
	C45.39,47.749,64.837,37.27,87.661,37.27C88.165,37.27,88.719,37.27,89.225,37.27z"/>
<linearGradient id="SVGID_6_" gradientUnits="userSpaceOnUse" x1="277.7783" y1="-358.7466" x2="344.0693" y2="-358.7466" gradientTransform="matrix(1 0 0 -1 -247.5996 -269.96)">
	<stop  offset="0" style="stop-color:#595A5C"/>
	<stop  offset="1" style="stop-color:#231F20"/>
</linearGradient>
<path fill="url(#SVGID_6_)" stroke="#231F20" stroke-width="0.216" d="M31.886,87.451h62.475c2.57,0,2.57,2.671,0,2.671H31.886
	C29.368,90.122,29.368,87.451,31.886,87.451z"/>
<path fill="#010101" d="M42.367,34.096h41.768c0.704,0,1.26,0.553,1.26,1.259v27.004c0,0.705-0.556,1.261-1.26,1.261H42.367
	c-0.705,0-1.31-0.556-1.31-1.261V35.355C41.057,34.649,41.662,34.096,42.367,34.096z"/>
<linearGradient id="SVGID_7_" gradientUnits="userSpaceOnUse" x1="311.0596" y1="-321.7915" x2="309.4175" y2="-298.3095" gradientTransform="matrix(1 0 0 -1 -247.5996 -269.96)">
	<stop  offset="0" style="stop-color:#4067B1"/>
	<stop  offset="1" style="stop-color:#C4E8F0"/>
</linearGradient>
<path fill="url(#SVGID_7_)" d="M43.223,34.7h40.054c0.656,0,1.211,0.554,1.211,1.209v25.896c0,0.655-0.555,1.211-1.211,1.211H43.223
	c-0.654,0-1.208-0.556-1.208-1.211V35.91C42.015,35.254,42.569,34.7,43.223,34.7z"/>
<linearGradient id="SVGID_8_" gradientUnits="userSpaceOnUse" x1="311.1914" y1="-322.7935" x2="309.1584" y2="-303.4504" gradientTransform="matrix(1 0 0 -1 -247.5996 -269.96)">
	<stop  offset="0" style="stop-color:#4067B1"/>
	<stop  offset="1" style="stop-color:#71B5E3"/>
</linearGradient>
<path fill="url(#SVGID_8_)" d="M84.486,37.319v24.486c0,0.655-0.555,1.211-1.209,1.211H43.223c-0.654,0-1.208-0.556-1.208-1.211
	v-5.742C50.881,45.432,66.501,38.126,84.486,37.319z"/>
<path fill="#010101" d="M12.086,27.898c7.155-4.131,15.67-3.022,20.053-3.022c4.434,0,12.696,1.107,14.611,2.216
	c1.914,1.108,3.022,2.771,1.36,4.687c-1.662,1.914-2.72,3.829-2.72,3.829l-6.097-2.469l-1.914,2.217l-3.276,1.108
	c-0.402,1.209-3.173,7.002-3.979,8.766c0,1.663-0.503,6.249-0.655,7.911c-1.562,1.916-20.305-0.201-20.103-1.764v-1.361
	c-1.612-0.151-6.197-0.251-6.045-2.62C3.32,47.396,4.932,32.03,12.086,27.898z"/>
<path fill="#F09738" d="M40.805,32.533c2.368,0,4.283,1.714,4.283,3.83c0,2.116-1.916,4.383-4.283,4.383
	c-2.318,0-4.232-2.267-4.232-4.383C36.573,34.247,38.487,32.533,40.805,32.533z"/>
<path fill="#FED5A8" d="M40.553,35.506c1.865,0,3.477-0.251,3.477,1.16c0,1.36-1.512,3.476-3.376,3.476
	c-1.915,0-3.425-1.814-3.425-3.476C37.228,35.858,38.689,35.506,40.553,35.506z"/>
<path fill="#B5B6B6" d="M16.924,27.596c0.855,6.348,1.46,13.854,2.317,20.204c4.988-6.702,10.328-16.526,12.494-21.564
	C27.404,25.53,19.442,26.034,16.924,27.596z"/>
<path fill="#DCDBDB" d="M18.334,28.15c0.655,5.291,1.008,11.487,1.612,16.778c3.88-5.593,6.802-12.445,9.926-17.886
	C26.396,26.487,20.299,26.84,18.334,28.15z"/>
<path fill="#FFFFFF" d="M19.392,28.553c0.504,4.182,0.806,9.069,1.31,13.252c3.022-4.434,5.34-9.826,7.81-14.108
	C25.74,27.244,20.953,27.495,19.392,28.553z"/>
<polygon fill="#010101" points="17.024,31.525 23.422,27.798 29.52,31.828 25.035,25.883 22.466,25.983 "/>
<polygon fill="#991A32" points="21.206,28.099 22.163,30.216 18.284,40.948 19.14,48.102 23.675,41.3 24.128,30.266 25.74,27.949 
	23.422,26.236 "/>
<polygon fill="#CF2030" points="21.76,28.2 22.466,30.216 19.19,39.839 19.543,45.835 22.717,40.191 23.574,30.266 25.035,28.099 
	23.373,26.84 "/>
<linearGradient id="SVGID_9_" gradientUnits="userSpaceOnUse" x1="279.7363" y1="-309.7998" x2="273.7703" y2="-307.7455" gradientTransform="matrix(1 0 0 -1 -247.5996 -269.96)">
	<stop  offset="0" style="stop-color:#505050"/>
	<stop  offset="1" style="stop-color:#010101"/>
</linearGradient>
<path fill="url(#SVGID_9_)" d="M32.493,26.135c-3.426,7.506-7.558,15.467-13.453,23.025l14.006-14.309l-2.419-1.964l3.074-0.655
	L32.493,26.135z"/>
<linearGradient id="SVGID_10_" gradientUnits="userSpaceOnUse" x1="259.1357" y1="-308.6821" x2="264.9671" y2="-308.3764" gradientTransform="matrix(1 0 0 -1 -247.5996 -269.96)">
	<stop  offset="0" style="stop-color:#505050"/>
	<stop  offset="1" style="stop-color:#010101"/>
</linearGradient>
<path fill="url(#SVGID_10_)" d="M16.218,27.646c0.303,7.508,1.259,14.258,2.822,21.514l-6.65-14.309l3.124-1.863l-2.873-0.605
	L16.218,27.646z"/>
<path fill="#FED5A8" d="M4.378,50.319c0.101,1.16,1.008,2.822,2.117,3.425c1.058,0.605,1.915,0.102,2.166-0.402
	c-0.15-0.303-0.554-0.855-0.503-1.713C6.796,51.578,5.235,51.125,4.378,50.319z"/>
<linearGradient id="SVGID_11_" gradientUnits="userSpaceOnUse" x1="251.4727" y1="-307.96" x2="256.2599" y2="-308.7182" gradientTransform="matrix(1 0 0 -1 -247.5996 -269.96)">
	<stop  offset="0" style="stop-color:#505050"/>
	<stop  offset="1" style="stop-color:#010101"/>
</linearGradient>
<path fill="url(#SVGID_11_)" d="M11.331,29.309c-3.93,3.024-5.593,8.616-7.154,17.836c0.504,0.756,1.663,1.108,2.569,1.158
	C7.603,41.603,7.753,34.247,11.331,29.309z"/>
<path fill="#191919" d="M64.335,31.677c-0.959,0-1.765,0.353-1.765,0.806s0.806,0.806,1.765,0.806c0.956,0,1.763-0.353,1.763-0.806
	S65.291,31.677,64.335,31.677z"/>
<path fill="#111111" d="M82.925,73.695c0.806,0,1.612,0,2.47,0c-0.252-0.553-0.556-1.107-0.807-1.661c-0.806,0-1.563,0-2.367,0
	C82.473,72.588,82.674,73.143,82.925,73.695L82.925,73.695z M79.146,73.695c0.855,0,1.662,0,2.469,0
	c-0.202-0.553-0.453-1.107-0.654-1.661c-0.809,0-1.563,0-2.369,0C78.794,72.588,78.995,73.143,79.146,73.695L79.146,73.695z
	 M75.417,73.695c0.808,0,1.612,0,2.419,0c-0.15-0.553-0.302-1.107-0.503-1.661c-0.755,0-1.563,0-2.317,0
	C75.116,72.588,75.268,73.143,75.417,73.695L75.417,73.695z M71.641,73.695c0.805,0,1.662,0,2.469,0
	c-0.151-0.553-0.252-1.107-0.354-1.661c-0.806,0-1.613,0-2.367,0C71.488,72.588,71.539,73.143,71.641,73.695L71.641,73.695z
	 M67.911,73.695c0.807,0,1.612,0,2.418,0c-0.05-0.553-0.149-1.107-0.201-1.661c-0.808,0-1.563,0-2.368,0
	C67.811,72.588,67.859,73.143,67.911,73.695L67.911,73.695z M64.132,73.695c0.808,0,1.613,0,2.47,0
	c-0.051-0.553-0.051-1.107-0.101-1.661c-0.808,0-1.563,0-2.369,0C64.132,72.588,64.132,73.143,64.132,73.695L64.132,73.695z
	 M60.354,73.695c0.856,0,1.662,0,2.469,0c0-0.553,0.052-1.107,0.052-1.661c-0.757,0-1.563,0-2.317,0
	C60.454,72.588,60.402,73.143,60.354,73.695L60.354,73.695z M56.625,73.695c0.807,0,1.611,0,2.419,0
	c0.101-0.553,0.149-1.107,0.202-1.661c-0.758,0-1.563,0-2.318,0C56.827,72.588,56.727,73.143,56.625,73.695L56.625,73.695z
	 M52.848,73.695c0.805,0,1.61,0,2.469,0c0.101-0.553,0.201-1.107,0.353-1.661c-0.808,0-1.612,0-2.368,0
	C53.148,72.588,52.997,73.143,52.848,73.695L52.848,73.695z M49.068,73.695c0.856,0,1.663,0,2.468,0
	c0.149-0.553,0.353-1.107,0.505-1.661c-0.809,0-1.562,0-2.368,0C49.471,72.588,49.268,73.143,49.068,73.695L49.068,73.695z
	 M45.34,73.695c0.805,0,1.612,0,2.417,0c0.253-0.553,0.454-1.107,0.656-1.661c-0.807,0-1.563,0-2.369,0
	C45.843,72.588,45.591,73.143,45.34,73.695L45.34,73.695z M41.561,73.695c0.806,0,1.662,0,2.469,0
	c0.251-0.553,0.503-1.107,0.756-1.661c-0.756,0-1.563,0-2.318,0C42.165,72.588,41.863,73.143,41.561,73.695L41.561,73.695z
	 M82.371,81.656c2.268,0,4.533,0,6.802,0c-0.252-0.553-0.504-1.107-0.807-1.661c-2.166,0-4.384,0-6.601,0
	C81.967,80.549,82.169,81.104,82.371,81.656L82.371,81.656z M77.383,81.656c0.957,0,1.965,0,2.922,0
	c-0.201-0.553-0.353-1.107-0.502-1.661c-0.959,0-1.916,0-2.822,0C77.131,80.549,77.23,81.104,77.383,81.656L77.383,81.656z
	 M50.73,81.656c4.181,0,8.362,0,12.545,0s8.363,0,12.597,0c-0.151-0.553-0.253-1.107-0.403-1.661c-4.031,0-8.111,0-12.143,0
	s-8.112,0-12.143,0C51.033,80.549,50.881,81.104,50.73,81.656L50.73,81.656z M46.296,81.656c0.958,0,1.915,0,2.872,0
	c0.152-0.553,0.353-1.107,0.504-1.661c-0.907,0-1.866,0-2.822,0C46.699,80.549,46.498,81.104,46.296,81.656L46.296,81.656z
	 M37.379,81.656c2.468,0,4.887,0,7.356,0c0.202-0.553,0.453-1.107,0.655-1.661c-2.368,0-4.736,0-7.104,0
	C37.984,80.549,37.682,81.104,37.379,81.656L37.379,81.656z M85.193,79.139c0.955,0,1.863,0,2.77,0
	c-0.252-0.555-0.503-1.158-0.806-1.713c-0.854,0-1.765,0-2.671,0C84.738,77.979,84.991,78.584,85.193,79.139L85.193,79.139z
	 M80.961,79.139c0.251,0,0.452,0,0.654,0c0.705,0,1.41,0,2.115,0c-0.252-0.705-0.555-1.412-0.807-2.117
	c-0.251-0.653-0.554-1.359-0.806-2.064c-0.856,0-1.714,0-2.521,0c0.102,0.402,0.254,0.807,0.403,1.26
	c0.149,0.402,0.302,0.807,0.401,1.21c-0.653,0-1.359,0-2.014,0c0.149,0.554,0.301,1.158,0.504,1.712
	C79.55,79.139,80.255,79.139,80.961,79.139L80.961,79.139z M74.512,79.139c0.905,0,1.813,0,2.771,0
	c-0.152-0.555-0.303-1.158-0.455-1.713c-0.906,0-1.764,0-2.67,0C74.259,77.979,74.411,78.584,74.512,79.139L74.512,79.139z
	 M70.279,79.139c0.906,0,1.813,0,2.771,0c-0.1-0.555-0.2-1.158-0.302-1.713c-0.906,0-1.764,0-2.67,0
	C70.128,77.979,70.229,78.584,70.279,79.139L70.279,79.139z M66.046,79.139c0.908,0,1.865,0,2.771,0
	c-0.049-0.555-0.1-1.158-0.149-1.713c-0.907,0-1.763,0-2.671,0C65.996,77.979,66.046,78.584,66.046,79.139L66.046,79.139z
	 M61.814,79.139c0.906,0,1.863,0,2.771,0c0-0.555,0-1.158,0-1.713c-0.905,0-1.765,0-2.669,0
	C61.865,77.979,61.865,78.584,61.814,79.139L61.814,79.139z M57.583,79.139c0.957,0,1.862,0,2.771,0
	c0.051-0.555,0.102-1.158,0.151-1.713c-0.905,0-1.764,0-2.671,0C57.785,77.979,57.684,78.584,57.583,79.139L57.583,79.139z
	 M53.35,79.139c0.959,0,1.864,0,2.772,0c0.101-0.555,0.2-1.158,0.302-1.713c-0.906,0-1.763,0-2.671,0
	C53.604,77.979,53.502,78.584,53.35,79.139L53.35,79.139z M49.168,79.139c0.907,0,1.814,0,2.721,0
	c0.151-0.555,0.303-1.158,0.452-1.713c-0.905,0-1.762,0-2.669,0C49.521,77.979,49.32,78.584,49.168,79.139L49.168,79.139z
	 M44.937,79.139c0.907,0,1.813,0,2.721,0c0.201-0.555,0.402-1.158,0.604-1.713c-0.907,0-1.764,0-2.67,0
	C45.39,77.979,45.138,78.584,44.937,79.139L44.937,79.139z M38.739,79.139c1.512,0,3.023,0,4.535,0
	c0.252-0.555,0.503-1.158,0.756-1.713c-1.461,0-2.973,0-4.434,0C39.344,77.979,39.042,78.584,38.739,79.139L38.739,79.139z
	 M84.135,76.568c-0.252-0.555-0.453-1.108-0.705-1.662c0.855,0,1.662,0,2.52,0c0.252,0.554,0.554,1.107,0.806,1.662
	C85.896,76.568,84.991,76.568,84.135,76.568L84.135,76.568z M75.568,76.568c0.906,0,1.765,0,2.619,0
	c-0.148-0.555-0.301-1.108-0.502-1.662c-0.809,0-1.664,0-2.521,0C75.316,75.46,75.469,76.016,75.568,76.568L75.568,76.568z
	 M71.589,76.568c0.856,0,1.714,0,2.62,0c-0.15-0.555-0.252-1.108-0.354-1.662c-0.855,0-1.713,0-2.52,0
	C71.438,75.46,71.488,76.016,71.589,76.568L71.589,76.568z M67.559,76.568c0.906,0,1.764,0,2.621,0
	c-0.052-0.555-0.102-1.108-0.203-1.662c-0.855,0-1.662,0-2.519,0C67.508,75.46,67.559,76.016,67.559,76.568L67.559,76.568z
	 M63.579,76.568c0.854,0,1.712,0,2.618,0c-0.049-0.555-0.049-1.108-0.049-1.662c-0.857,0-1.715,0-2.569,0
	C63.579,75.46,63.579,76.016,63.579,76.568L63.579,76.568z M59.547,76.568c0.907,0,1.764,0,2.621,0
	c0.05-0.555,0.05-1.108,0.102-1.662c-0.856,0-1.715,0-2.521,0C59.697,75.46,59.648,76.016,59.547,76.568L59.547,76.568z
	 M55.566,76.568c0.856,0,1.713,0,2.621,0c0.049-0.555,0.149-1.108,0.201-1.662c-0.807,0-1.662,0-2.521,0
	C55.77,75.46,55.668,76.016,55.566,76.568L55.566,76.568z M51.536,76.568c0.907,0,1.764,0,2.62,0
	c0.15-0.555,0.252-1.108,0.353-1.662c-0.806,0-1.661,0-2.468,0C51.889,75.46,51.688,76.016,51.536,76.568L51.536,76.568z
	 M47.557,76.568c0.857,0,1.711,0,2.62,0c0.15-0.555,0.352-1.108,0.502-1.662c-0.854,0-1.662,0-2.52,0
	C47.959,75.46,47.757,76.016,47.557,76.568L47.557,76.568z M43.525,76.568c0.908,0,1.764,0,2.619,0
	c0.253-0.555,0.455-1.108,0.656-1.662c-0.807,0-1.663,0-2.52,0C44.03,75.46,43.777,76.016,43.525,76.568L43.525,76.568z
	 M40.049,76.568c0.806,0,1.562,0,2.317,0c0.302-0.555,0.555-1.108,0.806-1.662c-0.755,0-1.461,0-2.217,0
	C40.653,75.46,40.352,76.016,40.049,76.568z"/>
<rect x="59.296" y="65.232" fill="#CDCCCC" width="8.263" height="0.957"/>
<linearGradient id="SVGID_12_" gradientUnits="userSpaceOnUse" x1="332.1143" y1="-348.957" x2="287.8554" y2="-344.3053" gradientTransform="matrix(1 0 0 -1 -247.5996 -269.96)">
	<stop  offset="0" style="stop-color:#6C6D70"/>
	<stop  offset="1" style="stop-color:#999A9E"/>
</linearGradient>
<path fill="url(#SVGID_12_)" d="M82.622,73.344c0.808,0,1.663,0,2.47,0c-0.253-0.554-0.555-1.107-0.807-1.662
	c-0.807,0-1.563,0-2.368,0C82.169,72.234,82.422,72.79,82.622,73.344L82.622,73.344z M78.895,73.344c0.807,0,1.611,0,2.42,0
	c-0.203-0.554-0.455-1.107-0.655-1.662c-0.806,0-1.562,0-2.369,0C78.491,72.234,78.691,72.79,78.895,73.344L78.895,73.344z
	 M75.116,73.344c0.806,0,1.61,0,2.468,0c-0.201-0.554-0.354-1.107-0.555-1.662c-0.756,0-1.562,0-2.317,0
	C74.813,72.234,74.965,72.79,75.116,73.344L75.116,73.344z M71.337,73.344c0.806,0,1.663,0,2.47,0
	c-0.102-0.554-0.252-1.107-0.354-1.662c-0.807,0-1.611,0-2.368,0C71.186,72.234,71.236,72.79,71.337,73.344L71.337,73.344z
	 M67.609,73.344c0.806,0,1.611,0,2.416,0c-0.049-0.554-0.149-1.107-0.199-1.662c-0.807,0-1.563,0-2.368,0
	C67.508,72.234,67.559,72.79,67.609,73.344L67.609,73.344z M63.83,73.344c0.807,0,1.611,0,2.469,0
	c-0.051-0.554-0.051-1.107-0.102-1.662c-0.807,0-1.561,0-2.367,0C63.83,72.234,63.83,72.79,63.83,73.344L63.83,73.344z
	 M60.053,73.344c0.854,0,1.661,0,2.469,0c0.049-0.554,0.049-1.107,0.049-1.662c-0.754,0-1.561,0-2.316,0
	C60.202,72.234,60.152,72.79,60.053,73.344L60.053,73.344z M56.322,73.344c0.807,0,1.613,0,2.419,0
	c0.101-0.554,0.151-1.107,0.252-1.662c-0.806,0-1.612,0-2.368,0C56.523,72.234,56.424,72.79,56.322,73.344L56.322,73.344z
	 M52.544,73.344c0.806,0,1.663,0,2.47,0c0.1-0.554,0.2-1.107,0.354-1.662c-0.809,0-1.563,0-2.369,0
	C52.848,72.234,52.695,72.79,52.544,73.344L52.544,73.344z M48.816,73.344c0.806,0,1.612,0,2.417,0
	c0.203-0.554,0.354-1.107,0.506-1.662c-0.807,0-1.563,0-2.368,0C49.168,72.234,49.018,72.79,48.816,73.344L48.816,73.344z
	 M45.037,73.344c0.806,0,1.612,0,2.469,0c0.202-0.554,0.403-1.107,0.604-1.662c-0.755,0-1.561,0-2.368,0
	C45.541,72.234,45.289,72.79,45.037,73.344L45.037,73.344z M41.258,73.344c0.806,0,1.663,0,2.469,0
	c0.251-0.554,0.504-1.107,0.756-1.662c-0.756,0-1.562,0-2.318,0C41.863,72.234,41.561,72.79,41.258,73.344L41.258,73.344z
	 M82.068,81.305c2.268,0,4.533,0,6.803,0c-0.253-0.555-0.505-1.109-0.809-1.662c-2.166,0-4.383,0-6.6,0
	C81.666,80.195,81.867,80.75,82.068,81.305L82.068,81.305z M77.08,81.305c0.959,0,1.965,0,2.923,0
	c-0.2-0.555-0.354-1.109-0.503-1.662c-0.959,0-1.916,0-2.822,0C76.828,80.195,76.98,80.75,77.08,81.305L77.08,81.305z
	 M50.428,81.305c4.183,0,8.364,0,12.546,0c4.18,0,8.362,0,12.596,0c-0.152-0.555-0.252-1.109-0.403-1.662c-4.03,0-8.112,0-12.144,0
	c-4.03,0-8.111,0-12.142,0C50.73,80.195,50.58,80.75,50.428,81.305L50.428,81.305z M45.994,81.305c0.958,0,1.916,0,2.872,0
	c0.202-0.555,0.353-1.109,0.504-1.662c-0.907,0-1.864,0-2.771,0C46.397,80.195,46.197,80.75,45.994,81.305L45.994,81.305z
	 M37.077,81.305c2.468,0,4.886,0,7.356,0c0.201-0.555,0.452-1.109,0.655-1.662c-2.369,0-4.737,0-7.104,0
	C37.682,80.195,37.379,80.75,37.077,81.305L37.077,81.305z M84.891,78.734c0.957,0,1.863,0,2.771,0
	c-0.251-0.555-0.504-1.108-0.807-1.664c-0.856,0-1.764,0-2.67,0C84.438,77.626,84.688,78.182,84.891,78.734L84.891,78.734z
	 M80.708,78.734c0.202,0,0.403,0,0.604,0c0.705,0,1.41,0,2.115,0c-0.252-0.705-0.554-1.36-0.807-2.065
	c-0.251-0.704-0.553-1.411-0.807-2.065c-0.854,0-1.662,0-2.52,0c0.152,0.403,0.253,0.808,0.402,1.209
	c0.152,0.403,0.304,0.856,0.404,1.26c-0.654,0-1.359,0-2.016,0c0.15,0.555,0.303,1.109,0.503,1.662
	C79.297,78.734,80.003,78.734,80.708,78.734L80.708,78.734z M74.209,78.734c0.907,0,1.813,0,2.771,0
	c-0.152-0.555-0.303-1.108-0.455-1.664c-0.906,0-1.762,0-2.67,0C74.007,77.626,74.107,78.182,74.209,78.734L74.209,78.734z
	 M69.977,78.734c0.907,0,1.813,0,2.771,0c-0.102-0.555-0.202-1.108-0.303-1.664c-0.906,0-1.764,0-2.67,0
	C69.826,77.626,69.926,78.182,69.977,78.734L69.977,78.734z M65.745,78.734c0.905,0,1.864,0,2.771,0
	c-0.051-0.555-0.101-1.108-0.149-1.664c-0.907,0-1.765,0-2.673,0C65.745,77.626,65.745,78.182,65.745,78.734L65.745,78.734z
	 M61.512,78.734c0.907,0,1.864,0,2.771,0c0-0.555,0-1.108,0-1.664c-0.906,0-1.762,0-2.67,0
	C61.613,77.626,61.563,78.182,61.512,78.734L61.512,78.734z M57.33,78.734c0.906,0,1.814,0,2.723,0
	c0.049-0.555,0.1-1.108,0.149-1.664c-0.906,0-1.765,0-2.67,0C57.48,77.626,57.381,78.182,57.33,78.734L57.33,78.734z M53.098,78.734
	c0.907,0,1.813,0,2.721,0c0.103-0.555,0.203-1.108,0.305-1.664c-0.908,0-1.766,0-2.672,0C53.35,77.626,53.199,78.182,53.098,78.734
	L53.098,78.734z M48.866,78.734c0.907,0,1.813,0,2.721,0c0.151-0.555,0.302-1.108,0.454-1.664c-0.908,0-1.764,0-2.671,0
	C49.218,77.626,49.018,78.182,48.866,78.734L48.866,78.734z M44.634,78.734c0.907,0,1.814,0,2.771,0
	c0.152-0.555,0.353-1.108,0.554-1.664c-0.907,0-1.762,0-2.67,0C45.088,77.626,44.835,78.182,44.634,78.734L44.634,78.734z
	 M38.436,78.734c1.512,0,3.024,0,4.535,0c0.251-0.555,0.504-1.108,0.756-1.664c-1.461,0-2.973,0-4.434,0
	C39.042,77.626,38.739,78.182,38.436,78.734L38.436,78.734z M83.832,76.216c-0.252-0.604-0.454-1.159-0.705-1.714
	c0.855,0,1.662,0,2.52,0c0.252,0.555,0.555,1.107,0.807,1.714C85.596,76.216,84.688,76.216,83.832,76.216L83.832,76.216z
	 M75.268,76.216c0.907,0,1.764,0,2.619,0c-0.15-0.604-0.303-1.159-0.453-1.714c-0.854,0-1.713,0-2.568,0
	C75.016,75.057,75.166,75.609,75.268,76.216L75.268,76.216z M71.287,76.216c0.855,0,1.713,0,2.619,0
	c-0.15-0.604-0.252-1.159-0.354-1.714c-0.855,0-1.712,0-2.52,0C71.135,75.057,71.186,75.609,71.287,76.216L71.287,76.216z
	 M67.257,76.216c0.905,0,1.763,0,2.619,0c-0.05-0.604-0.101-1.159-0.202-1.714c-0.806,0-1.662,0-2.52,0
	C67.206,75.057,67.257,75.609,67.257,76.216L67.257,76.216z M63.275,76.216c0.855,0,1.713,0,2.619,0
	c-0.049-0.604-0.049-1.159-0.049-1.714c-0.857,0-1.715,0-2.521,0C63.275,75.057,63.275,75.609,63.275,76.216L63.275,76.216z
	 M59.246,76.216c0.906,0,1.764,0,2.619,0c0.051-0.604,0.051-1.159,0.101-1.714c-0.856,0-1.663,0-2.521,0
	C59.396,75.057,59.346,75.609,59.246,76.216L59.246,76.216z M55.266,76.216c0.856,0,1.713,0,2.619,0
	c0.051-0.604,0.151-1.159,0.201-1.714c-0.807,0-1.662,0-2.52,0C55.466,75.057,55.366,75.609,55.266,76.216L55.266,76.216z
	 M51.232,76.216c0.908,0,1.765,0,2.621,0c0.15-0.604,0.252-1.159,0.403-1.714c-0.856,0-1.714,0-2.521,0
	C51.587,75.057,51.436,75.609,51.232,76.216L51.232,76.216z M47.254,76.216c0.855,0,1.712,0,2.62,0
	c0.15-0.604,0.352-1.159,0.503-1.714c-0.857,0-1.663,0-2.52,0C47.658,75.057,47.456,75.609,47.254,76.216L47.254,76.216z
	 M43.223,76.216c0.907,0,1.765,0,2.621,0c0.251-0.604,0.453-1.159,0.655-1.714c-0.806,0-1.663,0-2.52,0
	C43.727,75.057,43.476,75.609,43.223,76.216L43.223,76.216z M39.797,76.216c0.756,0,1.511,0,2.267,0
	c0.302-0.604,0.554-1.159,0.806-1.714c-0.755,0-1.461,0-2.217,0C40.352,75.057,40.049,75.609,39.797,76.216z"/>
<linearGradient id="SVGID_13_" gradientUnits="userSpaceOnUse" x1="311.4531" y1="-334.8135" x2="308.1536" y2="-303.6881" gradientTransform="matrix(1 0 0 -1 -247.5996 -269.96)">
	<stop  offset="0" style="stop-color:#4067B1"/>
	<stop  offset="1" style="stop-color:#C4E8F0"/>
</linearGradient>
<path fill="url(#SVGID_13_)" d="M44.937,53.141h7.607V61h-7.607V53.141L44.937,53.141z M54.057,50.117h7.606V61h-7.606V50.117
	L54.057,50.117z M63.175,46.439h7.608V61h-7.608V46.439L63.175,46.439z M72.294,41.653h7.608V61h-7.608V41.653z"/>
</svg>
