<?xml version="1.0" encoding="utf-8"?>
<!-- Generator: Adobe Illustrator 16.0.0, SVG Export Plug-In . SVG Version: 6.00 Build 0)  -->
<!DOCTYPE svg PUBLIC "-//W3C//DTD SVG 1.1//EN" "http://www.w3.org/Graphics/SVG/1.1/DTD/svg11.dtd">
<svg version="1.1" id="图层_1" xmlns="http://www.w3.org/2000/svg" xmlns:xlink="http://www.w3.org/1999/xlink" x="0px" y="0px"
	 width="100px" height="80px" viewBox="0 0 100 80" enable-background="new 0 0 100 80" xml:space="preserve">
<g>
	<g>
		<linearGradient id="SVGID_1_" gradientUnits="userSpaceOnUse" x1="43.7505" y1="31.1689" x2="43.7505" y2="48.0067">
			<stop  offset="0" style="stop-color:#DC0816"/>
			<stop  offset="1" style="stop-color:#BD1119"/>
		</linearGradient>
		<path fill="url(#SVGID_1_)" d="M33.329,19.224c0,0,0.073-0.877,0.11-1.458c0.107-1.767,1.843-1.456,1.843-1.456l6.398-1.299
			l12.474,3.327l0.072,10.278l-0.811,1.616l-1.576,17l-6.075,0.834c0,0,0.218,2.08-0.577,2.496
			c-0.796,0.416-1.637,0.091-1.637,0.091l-6.173-3.421c0,0-0.433-0.068-1.012-0.97c-0.463-0.721-0.496-2.357-0.496-2.357
			l0.055-12.047c0,0-1.24-0.052-2.054-0.988c-0.493-0.567-0.596-2.548-0.596-2.548L33.329,19.224z"/>
		<linearGradient id="SVGID_2_" gradientUnits="userSpaceOnUse" x1="45.5264" y1="20.5942" x2="45.8407" y2="21.9041">
			<stop  offset="0" style="stop-color:#EA5D5B"/>
			<stop  offset="0.4879" style="stop-color:#E94B43"/>
			<stop  offset="1" style="stop-color:#E7302A"/>
		</linearGradient>
		<path fill="url(#SVGID_2_)" d="M34.252,16.389c0,0,0.242-0.142,0.975,0.026c0.57,0.129,1.085,0.312,1.085,0.312l10.033,3.691
			c0,0,1.302,0.572,1.79,1.041c0.488,0.468,0.433,1.611,0.433,1.611l6.996-3.302c0,0,0-0.494-0.38-1.119
			c-0.379-0.624-1.682-1.038-1.682-1.038L40.65,14.387L34.252,16.389z"/>
		<path opacity="0.4" fill="#C31019" d="M53.448,17.558l-10.249-2.391c-2.831,0.662-3.58-1.69-3.58,0c0,2.312,2.888,4.17,7.431,4.17
			C50.189,19.337,52.063,18.873,53.448,17.558z"/>
		
			<radialGradient id="SVGID_3_" cx="92.3809" cy="-108.8579" r="30.9175" gradientTransform="matrix(0.48 0 0 0.4603 -3.4736 57.4354)" gradientUnits="userSpaceOnUse">
			<stop  offset="0" style="stop-color:#E60A11"/>
			<stop  offset="0.7433" style="stop-color:#C81018"/>
			<stop  offset="1" style="stop-color:#BC1119"/>
		</radialGradient>
		<ellipse fill="url(#SVGID_3_)" cx="43.639" cy="11.39" rx="7.146" ry="6.853"/>
		<path fill="none" d="M46.458,51.862"/>
		<linearGradient id="SVGID_4_" gradientUnits="userSpaceOnUse" x1="52.0352" y1="41.0947" x2="54.7946" y2="47.607">
			<stop  offset="0" style="stop-color:#E60A11"/>
			<stop  offset="0.4438" style="stop-color:#DD0715"/>
			<stop  offset="0.6882" style="stop-color:#DB0816"/>
			<stop  offset="0.8868" style="stop-color:#D20D18"/>
			<stop  offset="1" style="stop-color:#C91019"/>
		</linearGradient>
		<path fill="url(#SVGID_4_)" d="M48.589,22.238l-0.024,10.735c0,0-0.087,1.329-1.064,1.953c-0.975,0.623-1.642,0.301-1.642,0.301
			L45.77,49.245c0,0-0.265,0.859-0.728,1.247c-0.578,0.486-1.518,0.07-1.518,0.07s0.65,0.381,1.229,0.449
			c0.579,0.07,1.79-0.434,1.79-0.434l5.503-3.385c0,0,0.59-0.271,1.094-1.277c0.506-1.005,0.425-2.912,0.425-2.912l-0.044-10.539
			c0,0,0.886-0.382,1.572-1.038c0.723-0.695,0.58-1.989,0.58-1.989l-0.164-9.694L48.589,22.238z"/>
		<path opacity="0.2" fill="#9D0D15" d="M45.554,49.729c0,0-0.122,0.307-0.583,0.693c-0.58,0.485-1.519,0.07-1.519,0.07
			s0.649,0.38,1.229,0.45c0.58,0.068,1.79-0.435,1.79-0.435l5.504-3.385c0,0,0.588-0.272,1.094-1.277
			c0.289-0.573,0.332-0.471,0.217-0.555L45.554,49.729z"/>
		<linearGradient id="SVGID_5_" gradientUnits="userSpaceOnUse" x1="52.2275" y1="29.7861" x2="53.4805" y2="32.7432">
			<stop  offset="0" style="stop-color:#E60A11"/>
			<stop  offset="0.4438" style="stop-color:#DD0715"/>
			<stop  offset="0.6882" style="stop-color:#DB0816"/>
			<stop  offset="0.8868" style="stop-color:#D20D18"/>
			<stop  offset="1" style="stop-color:#C91019"/>
		</linearGradient>
		<path fill="url(#SVGID_5_)" d="M46.924,35.239l6.605-2.756c0,0,2.359-0.885,2.143-2.86l-0.108-9.933l-7.05,2.444v10.839
			C48.513,32.974,48.586,34.407,46.924,35.239z"/>
		<path opacity="0.59" fill="#9D0D15" d="M45.858,35.228v2.663l7.663-3.588l0.008-1.846l-6.136,2.574
			C47.393,35.031,46.33,35.477,45.858,35.228z"/>
		<polygon fill="#9D0D15" points="35.925,31.858 35.925,22.083 35.715,22.03 35.715,31.807 		"/>
		<polygon fill="#9D0D15" points="45.794,35.135 45.794,24.891 45.585,24.839 45.585,35.239 		"/>
		<polygon fill="#9D0D15" points="40.199,48.759 40.199,36.053 41.011,36.47 41.011,49.105 		"/>
		<ellipse opacity="0.55" fill="#FFFFFF" cx="41.942" cy="9.858" rx="1.659" ry="1.591"/>
		<path opacity="0.37" fill="#FFFFFF" d="M48.08,21.042c0,0,0.705,0.572,0.705,1.041l6.454-2.34c0,0,0.217-0.624-0.434-1.145
			L48.08,21.042z"/>
		<linearGradient id="SVGID_6_" gradientUnits="userSpaceOnUse" x1="47.9985" y1="28.6646" x2="47.9985" y2="33.2938">
			<stop  offset="0" style="stop-color:#E94943"/>
			<stop  offset="1" style="stop-color:#E60A11"/>
		</linearGradient>
		<path fill="url(#SVGID_6_)" d="M48.134,21.459c0,0,0.433,0.676,0.379,1.456v10.191c0,0,0.054,1.509-1.463,2.028
			c0,0,1.734-0.26,1.897-1.872l-0.055-10.505C48.893,22.758,48.784,21.927,48.134,21.459z"/>
		<linearGradient id="SVGID_7_" gradientUnits="userSpaceOnUse" x1="45.2871" y1="44.6631" x2="45.2871" y2="49.0816">
			<stop  offset="0" style="stop-color:#E94943"/>
			<stop  offset="1" style="stop-color:#E60A11"/>
		</linearGradient>
		<path fill="url(#SVGID_7_)" d="M45.802,37.943v10.867c0,0,0.054,1.509-1.463,2.028c0,0,1.734-0.261,1.897-1.871l-0.055-11.182
			C46.181,37.786,45.856,37.891,45.802,37.943z"/>
	</g>
	<linearGradient id="SVGID_8_" gradientUnits="userSpaceOnUse" x1="64.334" y1="51.6768" x2="38.2234" y2="66.7232">
		<stop  offset="0" style="stop-color:#050000"/>
		<stop  offset="0.1761" style="stop-color:#2C2B2A"/>
		<stop  offset="0.392" style="stop-color:#545251"/>
		<stop  offset="0.5903" style="stop-color:#767372"/>
		<stop  offset="0.764" style="stop-color:#8F8C8B"/>
		<stop  offset="0.9065" style="stop-color:#9E9C9C"/>
		<stop  offset="1" style="stop-color:#A4A2A2"/>
	</linearGradient>
	<path opacity="0.12" fill="url(#SVGID_8_)" d="M63.888,59.615c0.184-0.149,0.355-0.35,0.404-0.59
		c0.009-0.052,0.016-0.104,0.021-0.155c0.113-0.524-0.043-1.023-0.043-1.023l0,0l0.607-0.305l8.908-4.659
		c0,0,2.676-1.554,3.094-2.148c0.42-0.594,0.504-0.805,0.504-0.805l-4.24,0.466c0,0-0.221-0.813-0.525-1.1
		c-0.164-0.157-0.395-0.292-0.574-0.389c-0.109-0.092-0.193-0.141-0.193-0.141l-4.957-2.221c0,0-0.238-0.209-1.078-0.23
		c-0.668-0.021-1.084,0.423-1.084,0.423l-7.576,4.241c0,0-0.588-0.648-1.555-0.786c-0.584-0.082-1.9,0.493-1.9,0.493l-7.227,3.565
		c0,0-0.529,0.32-0.886,0.525c-0.564,0.325-0.572,0.704-0.448,0.993l-0.073-0.117c0,0,0.007,0.064,0.102,0.183
		c0.05,0.096,0.11,0.182,0.165,0.246l1.918,1.694c-1.069-0.147-2.927,0.435-3.77,1.036c-1.928,1.375-2.244,3.75-0.332,5.268
		c2.3,1.823,4.414,1.305,6.548,0.236c1.301-0.646,1.979-1.778,1.965-2.985l0.839,0.512l1.993,1.508c0,0,0.45,0.165,1.02,0.166
		c0.439,0.003,0.729-0.088,0.838-0.13v0.002l6.479-3.204l0.442-0.21c0,0,0.129-0.048,0.294-0.143
		C63.691,59.77,63.797,59.697,63.888,59.615z M71.184,50.788l-0.004-0.006c0,0,0.035-0.011,0.088-0.033L71.184,50.788z"/>
	<g>
		
			<radialGradient id="SVGID_9_" cx="147.0811" cy="-70.5112" r="47.5824" gradientTransform="matrix(0.48 0 0 0.4603 -3.4736 57.4354)" gradientUnits="userSpaceOnUse">
			<stop  offset="0" style="stop-color:#F8B300"/>
			<stop  offset="0.5942" style="stop-color:#F39800"/>
			<stop  offset="0.9831" style="stop-color:#F08400"/>
		</radialGradient>
		<path fill="url(#SVGID_9_)" d="M61.91,20.941c0,0,0.071-0.867,0.106-1.439c0.106-1.745,1.821-1.438,1.821-1.438l6.32-1.285
			l12.32,3.287l0.072,10.153l-0.801,1.595l-1.557,16.793l-6,0.824c0,0,0.215,2.054-0.57,2.463c-0.785,0.411-1.617,0.092-1.617,0.092
			l-6.098-3.379c0,0-0.429-0.068-0.999-0.958c-0.456-0.713-0.488-2.328-0.488-2.328l0.052-11.898c0,0-1.225-0.052-2.027-0.978
			c-0.487-0.561-0.59-2.518-0.59-2.518L61.91,20.941z"/>
		
			<radialGradient id="SVGID_10_" cx="149.2803" cy="-85.3423" r="25.297" gradientTransform="matrix(0.48 0 0 0.4603 -3.4736 57.4354)" gradientUnits="userSpaceOnUse">
			<stop  offset="0" style="stop-color:#FFE100"/>
			<stop  offset="1" style="stop-color:#FDD000"/>
		</radialGradient>
		<path fill="url(#SVGID_10_)" d="M62.82,18.141c0,0,0.24-0.139,0.965,0.025c0.562,0.129,1.07,0.308,1.07,0.308l9.91,3.647
			c0,0,1.285,0.565,1.768,1.028s0.428,1.593,0.428,1.593l6.91-3.263c0,0,0-0.487-0.375-1.104c-0.375-0.615-1.66-1.027-1.66-1.027
			L69.14,16.164L62.82,18.141z"/>
		<path opacity="0.55" fill="#D5630E" d="M81.781,19.297l-10.123-2.363c-2.797,0.654-3.535-1.668-3.535,0
			c0,2.284,2.852,4.12,7.342,4.12C78.563,21.054,80.412,20.595,81.781,19.297z"/>
		
			<radialGradient id="SVGID_11_" cx="150.2139" cy="-103.9761" r="22.312" gradientTransform="matrix(0.48 0 0 0.4603 -3.4736 57.4354)" gradientUnits="userSpaceOnUse">
			<stop  offset="0" style="stop-color:#FFE100"/>
			<stop  offset="0.5457" style="stop-color:#FBCA00"/>
			<stop  offset="1" style="stop-color:#F8B300"/>
		</radialGradient>
		<ellipse fill="url(#SVGID_11_)" cx="72.093" cy="13.205" rx="7.06" ry="6.768"/>
		<path fill="none" d="M74.877,53.18"/>
		<linearGradient id="SVGID_12_" gradientUnits="userSpaceOnUse" x1="80.3877" y1="42.5449" x2="83.1135" y2="48.9777">
			<stop  offset="0" style="stop-color:#FDD000"/>
			<stop  offset="0.4438" style="stop-color:#F7AF00"/>
			<stop  offset="0.6375" style="stop-color:#F7AC00"/>
			<stop  offset="0.7952" style="stop-color:#F5A400"/>
			<stop  offset="0.9397" style="stop-color:#F39700"/>
			<stop  offset="1" style="stop-color:#F28F00"/>
		</linearGradient>
		<path fill="url(#SVGID_12_)" d="M76.982,23.919l-0.023,10.605c0,0-0.086,1.312-1.051,1.927c-0.965,0.617-1.623,0.299-1.623,0.299
			l-0.086,13.846c0,0-0.264,0.848-0.719,1.23c-0.572,0.479-1.5,0.068-1.5,0.068s0.641,0.377,1.215,0.446
			c0.568,0.067,1.768-0.428,1.768-0.428l5.438-3.345c0,0,0.578-0.269,1.078-1.263c0.5-0.992,0.422-2.874,0.422-2.874l-0.047-10.41
			c0,0,0.875-0.378,1.555-1.027c0.713-0.686,0.572-1.964,0.572-1.964l-0.162-9.576L76.982,23.919z"/>
		<path opacity="0.59" fill="#D5630E" d="M73.984,51.074c0,0-0.119,0.302-0.576,0.684c-0.57,0.481-1.5,0.069-1.5,0.069
			s0.641,0.377,1.213,0.444c0.572,0.069,1.768-0.428,1.768-0.428l5.438-3.344c0,0,0.582-0.269,1.082-1.262
			c0.285-0.566,0.326-0.465,0.213-0.547L73.984,51.074z"/>
		<linearGradient id="SVGID_13_" gradientUnits="userSpaceOnUse" x1="80.5762" y1="31.3735" x2="81.8135" y2="34.2936">
			<stop  offset="0" style="stop-color:#FDD000"/>
			<stop  offset="0.4438" style="stop-color:#F7AF00"/>
			<stop  offset="0.6375" style="stop-color:#F7AC00"/>
			<stop  offset="0.7952" style="stop-color:#F5A400"/>
			<stop  offset="0.9397" style="stop-color:#F39700"/>
			<stop  offset="1" style="stop-color:#F28F00"/>
		</linearGradient>
		<path fill="url(#SVGID_13_)" d="M75.338,36.761l6.523-2.724c0,0,2.332-0.872,2.117-2.825l-0.107-9.811l-6.963,2.416v10.707
			C76.908,34.524,76.98,35.938,75.338,36.761z"/>
		<path opacity="0.73" fill="#D5630E" d="M74.285,36.75v2.631l7.568-3.545l0.008-1.825l-6.061,2.545
			C75.801,36.556,74.752,36.995,74.285,36.75z"/>
		<polygon fill="#9D0D15" points="64.473,33.423 64.473,23.766 64.266,23.714 64.266,33.371 		"/>
		<polygon fill="#9D0D15" points="74.223,36.658 74.223,26.539 74.016,26.487 74.016,36.761 		"/>
		<polygon fill="#9D0D15" points="68.693,50.114 68.693,37.565 69.498,37.976 69.498,50.458 		"/>
		<ellipse opacity="0.55" fill="#FFFFFF" cx="70.416" cy="11.691" rx="1.639" ry="1.571"/>
		<path opacity="0.37" fill="#FFFFFF" d="M76.479,22.737c0,0,0.697,0.564,0.697,1.028l6.373-2.312c0,0,0.217-0.616-0.428-1.13
			L76.479,22.737z"/>
		<path opacity="0.37" fill="#FFFFFF" d="M76.533,23.149c0,0,0.428,0.668,0.375,1.437v10.068c0,0,0.053,1.49-1.447,2.004
			c0,0,1.715-0.257,1.875-1.85l-0.053-10.376C77.283,24.433,77.176,23.612,76.533,23.149z"/>
		<path opacity="0.37" fill="#FFFFFF" d="M74.23,39.432v10.732c0,0,0.053,1.491-1.445,2.005c0,0,1.713-0.256,1.875-1.849
			l-0.055-11.045C74.605,39.275,74.283,39.381,74.23,39.432z"/>
	</g>
	<linearGradient id="SVGID_14_" gradientUnits="userSpaceOnUse" x1="52.6201" y1="64.1143" x2="26.5101" y2="79.1604">
		<stop  offset="0" style="stop-color:#050000"/>
		<stop  offset="0.1761" style="stop-color:#2C2B2A"/>
		<stop  offset="0.392" style="stop-color:#545251"/>
		<stop  offset="0.5903" style="stop-color:#767372"/>
		<stop  offset="0.764" style="stop-color:#8F8C8B"/>
		<stop  offset="0.9065" style="stop-color:#9E9C9C"/>
		<stop  offset="1" style="stop-color:#A4A2A2"/>
	</linearGradient>
	<path opacity="0.12" fill="url(#SVGID_14_)" d="M52.174,72.051c0.186-0.147,0.354-0.349,0.404-0.589
		c0.008-0.051,0.016-0.103,0.021-0.154c0.114-0.524-0.043-1.023-0.043-1.023l0,0l0.608-0.305l8.906-4.658
		c0,0,2.678-1.556,3.096-2.15c0.418-0.594,0.503-0.804,0.503-0.804l-4.242,0.466c0,0-0.22-0.812-0.521-1.102
		c-0.166-0.155-0.398-0.292-0.577-0.388c-0.108-0.091-0.194-0.14-0.194-0.14l-4.957-2.221c0,0-0.237-0.209-1.077-0.233
		c-0.667-0.018-1.083,0.426-1.083,0.426l-7.576,4.24c0,0-0.589-0.648-1.556-0.785c-0.584-0.081-1.9,0.494-1.9,0.494l-7.226,3.564
		c0,0-0.529,0.319-0.886,0.524c-0.564,0.325-0.572,0.705-0.448,0.994l-0.073-0.116c0,0,0.006,0.063,0.102,0.182
		c0.05,0.096,0.111,0.181,0.165,0.245l1.917,1.695c-1.068-0.148-2.927,0.435-3.769,1.035c-1.928,1.376-2.243,3.75-0.331,5.269
		c2.299,1.823,4.414,1.305,6.548,0.236c1.3-0.646,1.979-1.778,1.964-2.985l0.84,0.512l1.992,1.508c0,0,0.45,0.165,1.019,0.166
		c0.439,0.004,0.728-0.088,0.838-0.131v0.002l6.479-3.204l0.443-0.21c0,0,0.128-0.05,0.293-0.142
		C51.977,72.207,52.084,72.135,52.174,72.051z M59.471,63.225l-0.004-0.003c0,0,0.034-0.014,0.088-0.037L59.471,63.225z"/>
	<linearGradient id="SVGID_15_" gradientUnits="userSpaceOnUse" x1="38.377" y1="48.6162" x2="5.2323" y2="68.9448">
		<stop  offset="0" style="stop-color:#050000"/>
		<stop  offset="0.1761" style="stop-color:#2C2B2A"/>
		<stop  offset="0.392" style="stop-color:#545251"/>
		<stop  offset="0.5903" style="stop-color:#767372"/>
		<stop  offset="0.764" style="stop-color:#8F8C8B"/>
		<stop  offset="0.9065" style="stop-color:#9E9C9C"/>
		<stop  offset="1" style="stop-color:#A4A2A2"/>
	</linearGradient>
	<path opacity="0.12" fill="url(#SVGID_15_)" d="M34.209,59.189c0.185-0.147,0.355-0.349,0.404-0.59
		c0.01-0.052,0.017-0.102,0.021-0.154c0.115-0.524-0.042-1.024-0.042-1.024l0,0l0.608-0.305l8.906-4.658
		c0,0,2.678-1.555,3.096-2.148c0.419-0.594,0.504-0.806,0.504-0.806l-4.243,0.467c0,0-0.219-0.812-0.522-1.101
		c-0.165-0.156-0.397-0.292-0.576-0.389c-0.109-0.09-0.194-0.14-0.194-0.14l-4.956-2.221c0,0-0.238-0.208-1.079-0.232
		c-0.666-0.019-1.083,0.427-1.083,0.427l-7.577,4.238c0,0-0.589-0.647-1.555-0.785c-0.584-0.081-1.9,0.493-1.9,0.493l-7.227,3.566
		c0,0-0.527,0.319-0.886,0.524c-0.565,0.324-0.572,0.704-0.447,0.993l-0.073-0.117c0,0,0.006,0.064,0.101,0.183
		c0.05,0.098,0.111,0.182,0.166,0.245l1.917,1.694c-1.069-0.146-2.926,0.436-3.77,1.036c-1.928,1.376-2.243,3.75-0.33,5.269
		c2.298,1.823,4.413,1.305,6.547,0.236c1.3-0.646,1.979-1.778,1.965-2.986l0.84,0.513l1.992,1.508c0,0,0.45,0.165,1.02,0.166
		c0.439,0.004,0.728-0.088,0.837-0.131v0.003l6.479-3.204l0.443-0.21c0,0,0.128-0.05,0.292-0.144
		C34.013,59.345,34.12,59.272,34.209,59.189z M41.506,50.363l-0.004-0.005c0,0,0.035-0.012,0.089-0.036L41.506,50.363z"/>
	<g>
		<linearGradient id="SVGID_16_" gradientUnits="userSpaceOnUse" x1="58.877" y1="41.418" x2="58.877" y2="60.5026">
			<stop  offset="0" style="stop-color:#C0BFB5"/>
			<stop  offset="1" style="stop-color:#A4A29F"/>
		</linearGradient>
		<path fill="url(#SVGID_16_)" d="M48.708,38.103c0,0,0.074-0.854,0.107-1.421c0.105-1.725,1.799-1.422,1.799-1.422l6.242-1.268
			l12.172,3.247l0.07,10.029l-0.791,1.575l-1.537,16.59l-5.926,0.813c0,0,0.211,2.029-0.564,2.435
			c-0.777,0.406-1.598,0.089-1.598,0.089l-6.022-3.336c0,0-0.423-0.068-0.988-0.948c-0.451-0.704-0.481-2.301-0.481-2.301
			l0.053-11.752c0,0-1.211-0.052-2.006-0.966c-0.48-0.554-0.581-2.484-0.581-2.484L48.708,38.103z"/>
		<linearGradient id="SVGID_17_" gradientUnits="userSpaceOnUse" x1="60.6094" y1="39.4404" x2="60.9162" y2="40.7188">
			<stop  offset="0" style="stop-color:#E0E0DF"/>
			<stop  offset="0.6902" style="stop-color:#C2C1BE"/>
			<stop  offset="1" style="stop-color:#B3B2AF"/>
		</linearGradient>
		<path fill="url(#SVGID_17_)" d="M49.607,35.337c0,0,0.237-0.139,0.953,0.026c0.557,0.126,1.059,0.305,1.059,0.305l9.79,3.601
			c0,0,1.27,0.559,1.746,1.017c0.476,0.455,0.424,1.571,0.424,1.571l6.826-3.222c0,0,0-0.482-0.371-1.091
			c-0.369-0.608-1.641-1.015-1.641-1.015l-12.542-3.146L49.607,35.337z"/>
		<path opacity="0.25" fill="#63625F" d="M68.34,36.479l-10.002-2.334c-2.761,0.646-3.492-1.649-3.492,0
			c0,2.256,2.816,4.069,7.252,4.069C65.159,38.214,66.986,37.762,68.34,36.479z"/>
		
			<radialGradient id="SVGID_18_" cx="124.043" cy="-67.2129" r="30.1673" gradientTransform="matrix(0.48 0 0 0.4603 -3.4736 57.4354)" gradientUnits="userSpaceOnUse">
			<stop  offset="0" style="stop-color:#EAEAE9"/>
			<stop  offset="0.3278" style="stop-color:#C7C4C2"/>
			<stop  offset="1" style="stop-color:#787674"/>
		</radialGradient>
		<path fill="url(#SVGID_18_)" d="M65.741,30.46c0,3.693-3.122,6.687-6.972,6.687c-3.854,0-6.974-2.993-6.974-6.687
			c0-3.692,3.119-6.687,6.974-6.687C62.619,23.773,65.741,26.768,65.741,30.46z"/>
		<linearGradient id="SVGID_19_" gradientUnits="userSpaceOnUse" x1="66.96" y1="59.4434" x2="69.6524" y2="65.7975">
			<stop  offset="0" style="stop-color:#D3D2D1"/>
			<stop  offset="0.4438" style="stop-color:#BDBBB8"/>
			<stop  offset="0.6107" style="stop-color:#B9B8B5"/>
			<stop  offset="0.7466" style="stop-color:#AFAEA9"/>
			<stop  offset="0.8716" style="stop-color:#9E9C96"/>
			<stop  offset="0.9894" style="stop-color:#86857D"/>
			<stop  offset="1" style="stop-color:#83827A"/>
		</linearGradient>
		<path fill="url(#SVGID_19_)" d="M63.598,41.045L63.574,51.52c0,0-0.084,1.296-1.037,1.905s-1.604,0.294-1.604,0.294l-0.086,13.676
			c0,0-0.258,0.838-0.71,1.219c-0.563,0.474-1.483,0.067-1.483,0.067s0.636,0.373,1.2,0.439c0.565,0.069,1.745-0.422,1.745-0.422
			l5.373-3.305c0,0,0.572-0.265,1.068-1.244c0.492-0.981,0.414-2.842,0.414-2.842l-0.046-10.283c0,0,0.867-0.373,1.536-1.015
			c0.705-0.679,0.566-1.941,0.566-1.941l-0.16-9.458L63.598,41.045z"/>
		<path opacity="0.28" fill="#63625F" d="M60.637,67.868c0,0-0.119,0.299-0.57,0.679c-0.564,0.472-1.482,0.066-1.482,0.066
			s0.635,0.372,1.201,0.44c0.564,0.066,1.746-0.425,1.746-0.425l5.371-3.302c0,0,0.572-0.266,1.066-1.245
			c0.283-0.56,0.324-0.461,0.212-0.544L60.637,67.868z"/>
		<linearGradient id="SVGID_20_" gradientUnits="userSpaceOnUse" x1="67.1484" y1="48.4092" x2="68.371" y2="51.2943">
			<stop  offset="0" style="stop-color:#E5E5E3"/>
			<stop  offset="0.4438" style="stop-color:#BDBBB8"/>
			<stop  offset="0.6107" style="stop-color:#B9B8B5"/>
			<stop  offset="0.7466" style="stop-color:#AFAEA9"/>
			<stop  offset="0.8716" style="stop-color:#9E9C96"/>
			<stop  offset="0.9894" style="stop-color:#86857D"/>
			<stop  offset="1" style="stop-color:#83827A"/>
		</linearGradient>
		<path fill="url(#SVGID_20_)" d="M61.973,53.729l6.447-2.688c0,0,2.301-0.862,2.088-2.79l-0.104-9.69l-6.879,2.384V51.52
			C63.525,51.52,63.596,52.917,61.973,53.729z"/>
		<path opacity="0.47" fill="#63625F" d="M60.934,53.719v2.598l7.476-3.501l0.011-1.799l-5.988,2.512
			C62.432,53.528,61.393,53.963,60.934,53.719z"/>
		<polygon fill="#63625F" points="51.242,50.433 51.242,40.894 51.035,40.842 51.035,50.381 		"/>
		<polygon fill="#63625F" points="60.872,53.628 60.872,43.632 60.666,43.583 60.666,53.729 		"/>
		<polygon opacity="0.65" fill="#63625F" points="55.412,66.92 55.412,54.524 56.206,54.932 56.206,67.262 		"/>
		<ellipse opacity="0.55" fill="#FFFFFF" cx="57.112" cy="28.967" rx="1.62" ry="1.552"/>
		<path fill="#EDEDED" d="M63.101,39.879c0,0,0.688,0.557,0.688,1.015l6.295-2.283c0,0,0.213-0.609-0.42-1.116L63.101,39.879z"/>
		<path opacity="0.45" fill="#FFFFFF" d="M63.154,40.285c0,0,0.424,0.658,0.371,1.42v9.942c0,0,0.053,1.474-1.43,1.98
			c0,0,1.693-0.256,1.852-1.828l-0.053-10.247C63.895,41.553,63.789,40.74,63.154,40.285z"/>
		<path opacity="0.45" fill="#FFFFFF" d="M60.878,56.368v10.604c0,0,0.054,1.473-1.429,1.98c0,0,1.695-0.254,1.853-1.827
			l-0.054-10.907C61.248,56.218,60.932,56.316,60.878,56.368z"/>
	</g>
</g>
</svg>
