<?xml version="1.0" encoding="utf-8"?>
<!-- Generator: Adobe Illustrator 16.0.0, SVG Export Plug-In . SVG Version: 6.00 Build 0)  -->
<!DOCTYPE svg PUBLIC "-//W3C//DTD SVG 1.1//EN" "http://www.w3.org/Graphics/SVG/1.1/DTD/svg11.dtd">
<svg version="1.1" id="图层_1" xmlns="http://www.w3.org/2000/svg" xmlns:xlink="http://www.w3.org/1999/xlink" x="0px" y="0px"
	 width="100px" height="150px" viewBox="0 0 100 150" enable-background="new 0 0 100 150" xml:space="preserve">
<g>
	<rect x="5.773" y="17.744" fill="#C9BC9C" width="91" height="123.367"/>
	<polygon fill="#FFFFFF" points="94.584,138.921 7.962,138.921 7.962,19.934 94.584,19.934 94.584,138.921 	"/>
	<g>
		<linearGradient id="SVGID_1_" gradientUnits="userSpaceOnUse" x1="51.2734" y1="25.6538" x2="51.2734" y2="16.3926">
			<stop  offset="0" style="stop-color:#2A2324"/>
			<stop  offset="0.0385" style="stop-color:#B2B2B2"/>
			<stop  offset="0.0824" style="stop-color:#3B3B3B"/>
			<stop  offset="0.3681" style="stop-color:#141414"/>
			<stop  offset="0.5604" style="stop-color:#241C1D"/>
			<stop  offset="0.6513" style="stop-color:#221B1B"/>
			<stop  offset="0.7156" style="stop-color:#1C1516"/>
			<stop  offset="0.7715" style="stop-color:#120B0B"/>
			<stop  offset="0.7857" style="stop-color:#0E0607"/>
			<stop  offset="0.8516" style="stop-color:#404040"/>
			<stop  offset="0.9066" style="stop-color:#FCFCFC"/>
			<stop  offset="0.956" style="stop-color:#242424"/>
			<stop  offset="1" style="stop-color:#61605F"/>
		</linearGradient>
		<path fill="url(#SVGID_1_)" d="M42.905,16.066v8.762h5.822c0.683,0,0.366,0.845,1.072,0.845h2.95c0.705,0,0.388-0.845,1.071-0.845
			h5.822v-8.762H42.905z"/>
		<linearGradient id="SVGID_2_" gradientUnits="userSpaceOnUse" x1="51.2734" y1="25.7207" x2="51.2734" y2="24.741">
			<stop  offset="0" style="stop-color:#2A2324"/>
			<stop  offset="0.1218" style="stop-color:#B2B2B2"/>
			<stop  offset="0.3132" style="stop-color:#141414"/>
			<stop  offset="0.4396" style="stop-color:#241C1D"/>
			<stop  offset="0.4706" style="stop-color:#221B1B"/>
			<stop  offset="0.4925" style="stop-color:#1C1516"/>
			<stop  offset="0.5116" style="stop-color:#120B0B"/>
			<stop  offset="0.5165" style="stop-color:#0E0607"/>
			<stop  offset="0.7143" style="stop-color:#B2B2B2"/>
			<stop  offset="0.934" style="stop-color:#000000"/>
			<stop  offset="1" style="stop-color:#61605F"/>
		</linearGradient>
		<path fill="url(#SVGID_2_)" d="M51.677,24.828H50.87c-0.683,0-0.366,0.845-1.071,0.845h2.95
			C52.042,25.673,52.359,24.828,51.677,24.828z"/>
		<linearGradient id="SVGID_3_" gradientUnits="userSpaceOnUse" x1="47.9111" y1="16.3037" x2="54.6367" y2="16.3037">
			<stop  offset="0" style="stop-color:#DADADA"/>
			<stop  offset="0.1593" style="stop-color:#000000"/>
			<stop  offset="0.2198" style="stop-color:#4A4A4A"/>
			<stop  offset="0.3901" style="stop-color:#999999"/>
			<stop  offset="0.489" style="stop-color:#3E3E3E"/>
			<stop  offset="0.7308" style="stop-color:#242424"/>
			<stop  offset="0.8571" style="stop-color:#444444"/>
			<stop  offset="0.967" style="stop-color:#6B6B6B"/>
		</linearGradient>
		<path fill="url(#SVGID_3_)" d="M54.229,25.572c-0.401,0-0.656-0.248-0.717-0.698L52.16,12.172
			c-0.006-0.03-0.041-0.329,0.095-0.494c0.114-0.14,0.188-0.174,0.292-0.212c0.023-0.008,0.05-0.017,0.079-0.03
			c0.218-0.095,0.415-0.212,0.587-0.348c0.471-0.374,0.731-0.862,0.731-1.375c0-0.511-0.261-0.999-0.732-1.373
			c-0.245-0.193-0.536-0.346-0.864-0.451c-0.133-0.043-0.605-0.184-1.073-0.184c-0.469,0-0.942,0.14-1.075,0.184
			c-0.329,0.105-0.62,0.258-0.865,0.451c-0.472,0.374-0.732,0.862-0.732,1.373c0,0.513,0.26,1,0.732,1.375
			c0.171,0.136,0.369,0.253,0.586,0.348c0.03,0.013,0.056,0.022,0.08,0.03c0.104,0.038,0.177,0.072,0.292,0.212
			c0.136,0.165,0.101,0.463,0.096,0.497l-1.352,12.695c-0.06,0.453-0.315,0.701-0.716,0.701c-0.021,0-0.04-0.001-0.061-0.001
			l-0.108-0.006v-0.11v-0.461v-0.115h0.12c0.035,0,0.057-0.003,0.066-0.006c-0.002-0.005,0.006-0.029,0.012-0.081l0.009-0.083
			l1.337-12.56c0.004-0.027,0.005-0.055,0.004-0.068c0,0.002-0.002,0.004-0.004,0.004c-0.007,0-0.017-0.004-0.024-0.007
			c-1.08-0.463-1.753-1.367-1.76-2.362c0.01-1.28,1.085-2.354,2.614-2.615l0.037-0.007C50.68,7.073,51,7.042,51.278,7.035
			c0.283,0.007,0.589,0.038,0.706,0.061l0.037,0.007c1.529,0.261,2.605,1.335,2.615,2.613c-0.008,0.997-0.682,1.9-1.754,2.36
			c-0.018,0.007-0.035,0.015-0.043,0.02h0.002c0.005,0,0.006,0.027,0.01,0.048l1.338,12.566l0.009,0.085
			c0.007,0.047,0.014,0.072,0.019,0.082c0.001,0,0.001,0,0.002,0c0.009,0,0.028,0.003,0.059,0.003h0.115l0.004,0.115v0.461v0.11
			l-0.109,0.006C54.268,25.571,54.248,25.572,54.229,25.572L54.229,25.572z"/>
		<linearGradient id="SVGID_4_" gradientUnits="userSpaceOnUse" x1="47.1914" y1="11.1924" x2="55.185" y2="22.7217">
			<stop  offset="0" style="stop-color:#0A0A0A"/>
			<stop  offset="0.1593" style="stop-color:#000000"/>
			<stop  offset="0.5275" style="stop-color:#858585"/>
			<stop  offset="1" style="stop-color:#000000"/>
		</linearGradient>
		<path fill="url(#SVGID_4_)" d="M54.084,24.808L54.084,24.808l-0.01-0.085l-1.337-12.56c0,0-0.015-0.096,0.005-0.126
			C52.764,12,52.8,11.986,52.838,11.97c0.987-0.423,1.675-1.252,1.682-2.255c-0.008-1.265-1.104-2.258-2.518-2.5
			c-0.066-0.011-0.421-0.084-0.728-0.092c-0.309,0.008-0.663,0.081-0.729,0.092c-1.413,0.241-2.509,1.235-2.518,2.5
			c0.007,1.003,0.695,1.832,1.683,2.255c0.037,0.017,0.075,0.03,0.096,0.066c0.019,0.031,0.003,0.126,0.003,0.126l-1.337,12.56
			l-0.009,0.085l0,0c-0.017,0.124-0.045,0.149-0.059,0.159c-0.014,0.012-0.053,0.028-0.14,0.027v0.461
			c0.342,0.019,0.595-0.142,0.656-0.597l1.353-12.698c0,0,0.038-0.278-0.07-0.409c-0.133-0.162-0.186-0.147-0.328-0.209
			c-0.227-0.099-0.433-0.222-0.612-0.363c-0.489-0.387-0.775-0.903-0.775-1.465c0-0.56,0.287-1.076,0.775-1.463
			c0.253-0.2,0.56-0.361,0.902-0.471c0.16-0.051,0.635-0.188,1.109-0.188c0.472,0,0.947,0.137,1.108,0.188
			c0.343,0.11,0.648,0.271,0.901,0.471c0.489,0.387,0.776,0.903,0.776,1.463c0,0.562-0.287,1.078-0.776,1.465
			c-0.179,0.141-0.386,0.264-0.612,0.363c-0.142,0.062-0.194,0.047-0.328,0.209c-0.107,0.131-0.07,0.409-0.07,0.409l1.353,12.698
			c0.06,0.455,0.313,0.616,0.655,0.597v-0.461c-0.086,0.001-0.127-0.016-0.141-0.027C54.128,24.957,54.101,24.931,54.084,24.808z"/>
		<g>
			<linearGradient id="SVGID_5_" gradientUnits="userSpaceOnUse" x1="45.4995" y1="25.6558" x2="45.4995" y2="24.4007">
				<stop  offset="0" style="stop-color:#2A2324"/>
				<stop  offset="0.1218" style="stop-color:#B2B2B2"/>
				<stop  offset="0.203" style="stop-color:#141414"/>
				<stop  offset="0.4396" style="stop-color:#241C1D"/>
				<stop  offset="0.4998" style="stop-color:#221B1B"/>
				<stop  offset="0.5424" style="stop-color:#1C1516"/>
				<stop  offset="0.5794" style="stop-color:#120B0B"/>
				<stop  offset="0.5888" style="stop-color:#0E0607"/>
				<stop  offset="0.6904" style="stop-color:#1A1A1A"/>
				<stop  offset="0.8376" style="stop-color:#B2B2B2"/>
				<stop  offset="0.934" style="stop-color:#000000"/>
				<stop  offset="1" style="stop-color:#61605F"/>
			</linearGradient>
			<path fill="url(#SVGID_5_)" d="M48.229,25.673c-1.82,0-3.639,0-5.458,0c-0.402-0.343-0.402-0.963,0-1.307
				c1.819,0,3.638,0,5.458,0C48.629,24.709,48.629,25.33,48.229,25.673z"/>
		</g>
		<g>
			
				<linearGradient id="SVGID_6_" gradientUnits="userSpaceOnUse" x1="-188.6289" y1="25.6558" x2="-188.6289" y2="24.4007" gradientTransform="matrix(-1 0 0 1 -131.5811 0)">
				<stop  offset="0" style="stop-color:#2A2324"/>
				<stop  offset="0.1218" style="stop-color:#B2B2B2"/>
				<stop  offset="0.203" style="stop-color:#141414"/>
				<stop  offset="0.4396" style="stop-color:#241C1D"/>
				<stop  offset="0.4998" style="stop-color:#221B1B"/>
				<stop  offset="0.5424" style="stop-color:#1C1516"/>
				<stop  offset="0.5794" style="stop-color:#120B0B"/>
				<stop  offset="0.5888" style="stop-color:#0E0607"/>
				<stop  offset="0.6904" style="stop-color:#1A1A1A"/>
				<stop  offset="0.8376" style="stop-color:#B2B2B2"/>
				<stop  offset="0.934" style="stop-color:#000000"/>
				<stop  offset="1" style="stop-color:#61605F"/>
			</linearGradient>
			<path fill="url(#SVGID_6_)" d="M54.318,25.673c1.82,0,3.639,0,5.459,0c0.4-0.343,0.4-0.963,0-1.307c-1.82,0-3.639,0-5.459,0
				C53.918,24.709,53.918,25.33,54.318,25.673z"/>
		</g>
		<path fill="#FFFFFF" d="M48.877,10.813c0.378,0.44,0.939,0.699,1.037,0.742c0.188,0.083,0.411,0.116,0.36,0.634
			c-0.05,0.52-0.221,2.014-0.269,2.426c0.087-1.211,0.231-2.505,0.193-2.678c-0.038-0.173-0.119-0.2-0.349-0.325
			S49.143,11.177,48.877,10.813z"/>
		<path fill="#FFFFFF" d="M48.646,8.32c-0.456,0.55-0.8,1.373-0.274,2.37C48.076,9.862,48.106,9.314,48.646,8.32z"/>
		<path fill="#FFFFFF" d="M52.695,11.536c-0.351,0.11-0.467,0.259-0.418,0.715c0.048,0.457,0.12,1.105,0.154,1.378
			c-0.053-0.874-0.149-1.441-0.115-1.618C52.35,11.834,52.335,11.737,52.695,11.536z"/>
		<path fill="#FFFFFF" d="M49.518,14.826c-0.123,1.225-0.967,9.279-1.045,9.896c0.019,0.059,0.037,0.08,0.051,0.177
			C48.682,23.221,49.518,14.826,49.518,14.826z"/>
		<path fill="#333333" d="M48.457,11c0.487,0.387,0.651,0.276,0.876,0.435c0.194,0.135,0.627,0.3,0.735,0.408
			c0.085,0.086,0.092,0.144,0.062,0.425c-0.028,0.281-1.268,12.175-1.325,12.54c-0.059,0.365-0.226,0.423-0.308,0.457
			c0.034-0.084,0.026-0.11,0.039-0.245c0.074-0.672,1.258-12.778,1.272-12.908c0.014-0.129-0.055-0.114-0.144-0.149
			C49.553,11.92,48.867,11.584,48.457,11z"/>
		<path fill="#FFFFFF" d="M53.534,11.565c0.461-0.341,0.94-0.883,0.991-1.797c0.072-1.312-1.02-2.118-2.07-2.474
			c-1.134-0.385-2.661-0.173-3.506,0.658c1.162-0.773,1.955-0.725,2.92-0.639s1.979,0.898,2.311,1.69
			c0.281,0.672,0.331,1.814-0.656,2.488c-0.284,0.194-0.773,0.43-0.85,0.488c-0.094,0.072-0.238,0.166-0.166,0.685
			c0.072,0.519,1.275,11.911,1.313,12.163c0.035,0.252,0.121,0.324,0.208,0.375c-0.015-0.086-0.015-0.195-0.007-0.303
			c-0.053-0.389-1.277-12.595-1.284-12.737C52.729,11.988,53.08,11.924,53.534,11.565z"/>
		<path fill="#FFFFFF" d="M50.16,12.175c0,0.807-1.144,11.423-1.317,12.595C49.112,21.58,49.899,14.183,50.16,12.175z"/>
		<path fill="#B3B3B3" d="M53.827,8.868c0.46,0.59,0.46,1.686-0.543,2.312C54.043,10.582,54.245,9.688,53.827,8.868z"/>
	</g>
	<g>
		<polygon fill="#9AB3DD" points="7.962,32.298 7.962,31.986 94.584,31.986 94.584,32.298 7.962,32.298 		"/>
	</g>
	<g>
		<polygon fill="#9AB3DD" points="7.962,36.051 7.962,35.738 94.584,35.738 94.584,36.051 7.962,36.051 		"/>
	</g>
	<g>
		<polygon fill="#9AB3DD" points="7.962,39.804 7.962,39.49 94.584,39.49 94.584,39.804 7.962,39.804 		"/>
	</g>
	<g>
		<polygon fill="#9AB3DD" points="7.962,43.557 7.962,43.243 94.584,43.243 94.584,43.557 7.962,43.557 		"/>
	</g>
	<g>
		<polygon fill="#9AB3DD" points="7.962,47.31 7.962,46.997 94.584,46.997 94.584,47.31 7.962,47.31 		"/>
	</g>
	<g>
		<polygon fill="#9AB3DD" points="7.962,51.062 7.962,50.749 94.584,50.749 94.584,51.062 7.962,51.062 		"/>
	</g>
	<g>
		<polygon fill="#9AB3DD" points="7.962,54.814 7.962,54.502 94.584,54.502 94.584,54.814 7.962,54.814 		"/>
	</g>
	<g>
		<polygon fill="#9AB3DD" points="7.962,58.568 7.962,58.254 94.584,58.254 94.584,58.568 7.962,58.568 		"/>
	</g>
	<g>
		<polygon fill="#9AB3DD" points="7.962,62.321 7.962,62.007 94.584,62.007 94.584,62.321 7.962,62.321 		"/>
	</g>
	<g>
		<polygon fill="#9AB3DD" points="7.962,66.073 7.962,65.76 94.584,65.76 94.584,66.073 7.962,66.073 		"/>
	</g>
	<g>
		<polygon fill="#9AB3DD" points="7.962,69.826 7.962,69.514 94.584,69.514 94.584,69.826 7.962,69.826 		"/>
	</g>
	<g>
		<polygon fill="#9AB3DD" points="7.962,73.578 7.962,73.265 94.584,73.265 94.584,73.578 7.962,73.578 		"/>
	</g>
	<g>
		<polygon fill="#9AB3DD" points="7.962,77.332 7.962,77.019 94.584,77.019 94.584,77.332 7.962,77.332 		"/>
	</g>
	<g>
		<polygon fill="#9AB3DD" points="7.962,81.084 7.962,80.771 94.584,80.771 94.584,81.084 7.962,81.084 		"/>
	</g>
	<g>
		<polygon fill="#9AB3DD" points="7.962,84.837 7.962,84.524 94.584,84.524 94.584,84.837 7.962,84.837 		"/>
	</g>
	<g>
		<polygon fill="#9AB3DD" points="7.962,88.589 7.962,88.277 94.584,88.277 94.584,88.589 7.962,88.589 		"/>
	</g>
	<g>
		<polygon fill="#9AB3DD" points="7.962,92.344 7.962,92.029 94.584,92.029 94.584,92.344 7.962,92.344 		"/>
	</g>
	<g>
		<polygon fill="#9AB3DD" points="7.962,96.095 7.962,95.782 94.584,95.782 94.584,96.095 7.962,96.095 		"/>
	</g>
	<g>
		<polygon fill="#9AB3DD" points="7.962,99.847 7.962,99.535 94.584,99.535 94.584,99.847 7.962,99.847 		"/>
	</g>
	<g>
		<polygon fill="#9AB3DD" points="7.962,103.602 7.962,103.288 94.584,103.288 94.584,103.602 7.962,103.602 		"/>
	</g>
	<g>
		<polygon fill="#9AB3DD" points="7.962,107.354 7.962,107.04 94.584,107.04 94.584,107.354 7.962,107.354 		"/>
	</g>
	<g>
		<polygon fill="#9AB3DD" points="7.962,111.105 7.962,110.793 94.584,110.793 94.584,111.105 7.962,111.105 		"/>
	</g>
	<g>
		<polygon fill="#9AB3DD" points="7.962,114.858 7.962,114.547 94.584,114.547 94.584,114.858 7.962,114.858 		"/>
	</g>
	<g>
		<polygon fill="#9AB3DD" points="7.962,118.611 7.962,118.299 94.584,118.299 94.584,118.611 7.962,118.611 		"/>
	</g>
	<g>
		<polygon fill="#9AB3DD" points="7.962,122.364 7.962,122.052 94.584,122.052 94.584,122.364 7.962,122.364 		"/>
	</g>
	<g>
		<polygon fill="#9AB3DD" points="7.962,126.117 7.962,125.805 94.584,125.805 94.584,126.117 7.962,126.117 		"/>
	</g>
	<g>
		<polygon fill="#9AB3DD" points="7.962,129.87 7.962,129.558 94.584,129.558 94.584,129.87 7.962,129.87 		"/>
	</g>
	<g>
		<polygon fill="#E1453F" points="18.505,138.921 18.505,19.934 18.817,19.934 18.817,138.921 18.505,138.921 		"/>
	</g>
</g>
</svg>
