<?xml version="1.0" encoding="utf-8"?>
<!-- Generator: Adobe Illustrator 16.0.0, SVG Export Plug-In . SVG Version: 6.00 Build 0)  -->
<!DOCTYPE svg PUBLIC "-//W3C//DTD SVG 1.1//EN" "http://www.w3.org/Graphics/SVG/1.1/DTD/svg11.dtd">
<svg version="1.1" id="图层_1" xmlns="http://www.w3.org/2000/svg" xmlns:xlink="http://www.w3.org/1999/xlink" x="0px" y="0px"
	 width="100px" height="100px" viewBox="0 0 100 100" enable-background="new 0 0 100 100" xml:space="preserve">
<path fill="#0068B7" d="M82.936,80.397c-16.677,18.252-45.049,19.583-63.372,2.97C1.242,66.754-0.092,38.495,16.585,20.243
	c16.677-18.25,45.05-19.578,63.37-2.967C98.278,33.887,99.612,62.149,82.936,80.397"/>
<path fill="#006AB8" d="M81.871,80.381c-16.38,17.927-44.248,19.232-62.243,2.917c-17.996-16.32-19.305-44.076-2.925-62
	c16.38-17.926,44.246-19.231,62.242-2.916C96.939,34.698,98.25,62.456,81.871,80.381"/>
<path fill="#006CBA" d="M80.807,80.363c-16.083,17.602-43.444,18.881-61.114,2.86C2.024,67.207,0.737,39.952,16.82,22.351
	c16.083-17.6,43.444-18.881,61.113-2.862C95.602,35.51,96.889,62.762,80.807,80.363"/>
<path fill="#006EBB" d="M79.741,80.346c-15.784,17.274-42.64,18.532-59.983,2.808C2.415,67.431,1.153,40.681,16.938,23.405
	s42.64-18.533,59.984-2.809C94.265,36.321,95.526,63.071,79.741,80.346"/>
<path fill="#0070BD" d="M78.679,80.326c-15.489,16.948-41.84,18.185-58.855,2.756C2.807,67.655,1.568,41.408,17.057,24.458
	c15.488-16.95,41.837-18.183,58.854-2.755C92.928,37.131,94.166,63.378,78.679,80.326"/>
<path fill="#0071BE" d="M77.614,80.309c-15.192,16.626-41.037,17.833-57.726,2.704c-16.69-15.134-17.906-40.876-2.714-57.5
	C32.365,8.887,58.21,7.678,74.899,22.809C91.59,37.942,92.804,63.684,77.614,80.309"/>
<path fill="#0073C0" d="M76.549,80.291c-14.894,16.301-40.232,17.486-56.595,2.65C3.589,68.106,2.398,42.865,17.292,26.567
	c14.894-16.3,40.235-17.487,56.597-2.651C90.252,38.751,91.443,63.99,76.549,80.291"/>
<path fill="#0075C2" d="M75.484,80.271c-14.597,15.974-39.43,17.139-55.467,2.6C3.981,68.33,2.814,43.594,17.41,27.62
	c14.596-15.975,39.431-17.138,55.467-2.597C88.913,39.562,90.082,64.3,75.484,80.271"/>
<path fill="#0077C3" d="M74.42,80.255c-14.3,15.649-38.627,16.787-54.337,2.542c-15.71-14.24-16.854-38.475-2.555-54.124
	c14.3-15.648,38.627-16.788,54.337-2.544C87.576,40.373,88.721,64.605,74.42,80.255"/>
<path fill="#0078C5" d="M73.356,80.236c-14.002,15.321-37.825,16.439-53.209,2.491c-15.383-13.947-16.503-37.677-2.501-53
	c14.003-15.325,37.825-16.441,53.208-2.492C86.238,41.182,87.358,64.909,73.356,80.236"/>
<path fill="#007AC6" d="M72.292,80.219C58.587,95.217,35.27,96.308,20.213,82.657C5.155,69.005,4.06,45.779,17.764,30.782
	c13.706-14.999,37.022-16.092,52.08-2.44C84.901,41.993,85.997,65.221,72.292,80.219"/>
<path fill="#007CC8" d="M71.229,80.2c-13.409,14.675-36.22,15.741-50.951,2.385C5.546,69.229,4.474,46.508,17.883,31.835
	c13.407-14.674,36.218-15.743,50.95-2.386C83.564,42.804,84.637,65.528,71.229,80.2"/>
<path fill="#007DC9" d="M70.165,80.184c-13.111,14.346-35.418,15.392-49.823,2.331S4.889,47.235,18,32.889
	c13.111-14.349,35.417-15.394,49.822-2.334C82.227,43.615,83.275,65.834,70.165,80.184"/>
<path fill="#007FCB" d="M69.1,80.165c-12.813,14.022-34.614,15.041-48.692,2.28C6.329,69.68,5.304,47.964,18.119,33.942
	c12.813-14.022,34.614-15.044,48.69-2.28C80.888,44.426,81.914,66.14,69.1,80.165"/>
<path fill="#0081CC" d="M68.035,80.144c-12.517,13.7-33.811,14.695-47.563,2.228C6.72,69.904,5.72,48.693,18.236,34.996
	C30.753,21.298,52.049,20.3,65.799,32.769C79.551,45.236,80.552,66.448,68.035,80.144"/>
<path fill="#0082CE" d="M66.971,80.127C54.752,93.5,33.962,94.475,20.537,82.303C7.113,70.128,6.135,49.423,18.355,36.049
	c12.218-13.374,33.008-14.346,46.434-2.175C78.213,46.046,79.189,66.754,66.971,80.127"/>
<path fill="#0084CF" d="M65.907,80.108C53.985,93.156,33.701,94.105,20.603,82.23C7.503,70.354,6.55,50.15,18.473,37.103
	c11.923-13.047,32.206-13.997,45.305-2.122C76.875,46.857,77.828,67.063,65.907,80.108"/>
<path fill="#0086D1" d="M64.841,80.089c-11.623,12.724-31.402,13.652-44.174,2.069C7.896,70.578,6.965,50.879,18.59,38.157
	c11.626-12.723,31.403-13.647,44.174-2.068C75.538,47.668,76.469,67.37,64.841,80.089"/>
<path fill="#0087D2" d="M63.777,80.072c-11.326,12.396-30.599,13.301-43.045,2.017C8.287,70.806,7.381,51.608,18.709,39.21
	c11.328-12.397,30.6-13.299,43.046-2.016C74.2,48.479,75.106,67.676,63.777,80.072"/>
<path fill="#0089D3" d="M62.713,80.054c-11.03,12.071-29.796,12.949-41.916,1.964C8.678,71.029,7.796,52.337,18.827,40.264
	c11.031-12.072,29.798-12.949,41.917-1.961C72.863,49.289,73.744,67.984,62.713,80.054"/>
<path fill="#008AD5" d="M61.649,80.034c-10.734,11.748-28.995,12.604-40.788,1.912S8.211,53.064,18.944,41.317
	c10.734-11.746,28.996-12.601,40.788-1.909C71.524,50.1,72.384,68.29,61.649,80.034"/>
<path fill="#008CD6" d="M60.586,80.019C50.148,91.439,32.393,92.27,20.927,81.875C9.46,71.479,8.625,53.792,19.062,42.372
	c10.437-11.421,28.192-12.252,39.66-1.856C70.188,50.91,71.021,68.596,60.586,80.019"/>
<path fill="#008DD7" d="M59.893,80.001c-10.243,11.208-27.667,12.026-38.919,1.824C9.72,71.622,8.902,54.266,19.144,43.058
	c10.242-11.209,27.667-12.024,38.919-1.822C69.314,51.436,70.135,68.793,59.893,80.001"/>
<path fill="#008ED8" d="M59.198,79.987C49.151,90.979,32.058,91.782,21.02,81.772C9.981,71.766,9.178,54.741,19.225,43.744
	c10.047-10.995,27.141-11.796,38.178-1.787C68.441,51.965,69.245,68.99,59.198,79.987z"/>
<path fill="#008FD9" d="M58.505,79.97c-9.853,10.78-26.615,11.566-37.439,1.754C10.242,71.91,9.454,55.213,19.306,44.43
	c9.853-10.781,26.614-11.567,37.439-1.752C67.569,52.49,68.357,69.188,58.505,79.97z"/>
<path fill="#0090DA" d="M57.812,79.952c-9.657,10.572-26.089,11.339-36.699,1.72c-10.61-9.62-11.383-25.987-1.726-36.556
	c9.658-10.569,26.088-11.338,36.7-1.717C66.698,53.019,67.469,69.384,57.812,79.952z"/>
<path fill="#0091DB" d="M57.119,79.938c-9.464,10.355-25.564,11.109-35.96,1.683c-10.396-9.427-11.153-25.463-1.69-35.82
	c9.463-10.355,25.562-11.109,35.959-1.683C65.824,53.545,66.581,69.581,57.119,79.938z"/>
<path fill="#0092DC" d="M56.425,79.919c-9.268,10.146-25.037,10.882-35.219,1.649c-10.183-9.231-10.924-24.938-1.656-35.081
	c9.269-10.143,25.037-10.88,35.219-1.648C64.951,54.07,65.693,69.777,56.425,79.919z"/>
<path fill="#0093DD" d="M55.731,79.905c-9.074,9.93-24.511,10.652-34.48,1.613c-9.969-9.036-10.694-24.416-1.621-34.344
	c9.073-9.93,24.511-10.653,34.479-1.614C64.079,54.599,64.806,69.975,55.731,79.905z"/>
<path fill="#0094DE" d="M55.038,79.89c-8.88,9.717-23.985,10.423-33.74,1.579c-9.755-8.845-10.465-23.89-1.586-33.609
	c8.879-9.716,23.985-10.423,33.739-1.58C63.207,55.126,63.916,70.175,55.038,79.89z"/>
<path fill="#0095DF" d="M54.344,79.871c-8.684,9.504-23.458,10.197-33,1.547c-9.541-8.649-10.236-23.367-1.551-32.872
	c8.685-9.502,23.458-10.195,33-1.544C62.335,55.653,63.029,70.369,54.344,79.871z"/>
<path fill="#0096E0" d="M53.651,79.856c-8.49,9.289-22.934,9.967-32.261,1.512c-9.327-8.459-10.006-22.844-1.516-32.136
	c8.49-9.29,22.933-9.966,32.26-1.51C61.462,56.179,62.142,70.566,53.651,79.856z"/>
<path fill="#0097E0" d="M52.958,79.84c-8.295,9.079-22.408,9.739-31.521,1.476c-9.113-8.262-9.776-22.32-1.481-31.396
	c8.294-9.078,22.406-9.739,31.52-1.476C60.59,56.705,61.253,70.763,52.958,79.84z"/>
<path fill="#0098E1" d="M52.265,79.825c-8.101,8.865-21.881,9.509-30.781,1.439c-8.899-8.066-9.547-21.796-1.447-30.658
	c8.1-8.865,21.881-9.512,30.779-1.442C59.716,57.233,60.364,70.958,52.265,79.825z"/>
<path fill="#0099E2" d="M51.57,79.809c-7.905,8.651-21.354,9.28-30.041,1.408c-8.686-7.878-9.318-21.271-1.412-29.925
	c7.906-8.652,21.355-9.282,30.041-1.408C58.843,57.761,59.476,71.156,51.57,79.809z"/>
<path fill="#009AE3" d="M50.877,79.794c-7.71,8.435-20.829,9.052-29.301,1.37c-8.472-7.681-9.088-20.747-1.377-29.186
	c7.711-8.438,20.829-9.053,29.301-1.372C57.971,58.287,58.588,71.353,50.877,79.794z"/>
<path fill="#009BE4" d="M50.184,79.775c-7.516,8.226-20.303,8.825-28.56,1.339c-8.258-7.486-8.859-20.227-1.343-28.45
	c7.516-8.225,20.303-8.824,28.561-1.337C57.1,58.815,57.699,71.552,50.184,79.775z"/>
<path fill="#009CE5" d="M49.491,79.758c-7.321,8.015-19.777,8.599-27.822,1.304c-8.044-7.294-8.629-19.7-1.308-27.71
	c7.322-8.013,19.778-8.596,27.821-1.304C56.228,59.342,56.812,71.748,49.491,79.758z"/>
<path fill="#009DE6" d="M48.796,79.744c-7.125,7.797-19.251,8.365-27.082,1.268c-7.829-7.099-8.399-19.177-1.273-26.975
	c7.127-7.8,19.252-8.368,27.082-1.27C55.354,59.867,55.924,71.945,48.796,79.744z"/>
<path fill="#009EE7" d="M48.104,79.729c-6.932,7.587-18.726,8.138-26.342,1.232c-7.617-6.903-8.17-18.651-1.238-26.238
	c6.932-7.587,18.726-8.138,26.341-1.232C54.48,60.396,55.036,72.142,48.104,79.729z"/>
<path fill="#009FE8" d="M47.41,79.712c-6.737,7.373-18.2,7.909-25.602,1.196c-7.402-6.71-7.94-18.128-1.204-25.5
	c6.738-7.374,18.2-7.909,25.602-1.197C53.608,60.919,54.148,72.342,47.41,79.712z"/>
<path fill="#00A0E8" d="M46.716,79.695c-6.542,7.161-17.673,7.681-24.861,1.165c-7.188-6.518-7.712-17.606-1.168-24.765
	c6.542-7.161,17.673-7.683,24.861-1.166C52.736,61.447,53.26,72.536,46.716,79.695z"/>
<path fill="#00A0E9" d="M46.023,79.678c-6.348,6.948-17.147,7.456-24.123,1.131c-6.974-6.321-7.481-17.081-1.134-24.025
	c6.348-6.95,17.148-7.455,24.123-1.13C51.863,61.977,52.37,72.731,46.023,79.678z"/>
<path fill="#00A3E9" d="M44.064,56.556c6.699,6.071,7.197,16.392,1.112,23.052c-6.084,6.66-16.446,7.132-23.145,1.06
	c-6.698-6.072-7.196-16.395-1.113-23.053C27.002,50.956,37.365,50.483,44.064,56.556z"/>
<path fill="#00A5EA" d="M43.238,57.459c6.423,5.822,6.911,15.706,1.091,22.077c-5.82,6.367-15.745,6.813-22.168,0.989
	c-6.423-5.825-6.911-15.708-1.09-22.077C26.891,52.077,36.815,51.636,43.238,57.459z"/>
<path fill="#00A8EB" d="M42.413,58.362c6.146,5.573,6.625,15.021,1.068,21.101c-5.557,6.082-15.043,6.492-21.19,0.918
	c-6.146-5.571-6.625-15.019-1.068-21.101C26.778,53.2,36.266,52.79,42.413,58.362z"/>
<path fill="#00ABEB" d="M41.586,59.266c5.872,5.324,6.341,14.333,1.048,20.126c-5.293,5.791-14.343,6.172-20.213,0.851
	c-5.872-5.325-6.34-14.334-1.048-20.127S35.715,53.942,41.586,59.266z"/>
<path fill="#00AEEC" d="M40.761,60.167c5.596,5.073,6.055,13.647,1.026,19.15c-5.029,5.507-13.641,5.854-19.236,0.78
	c-5.595-5.072-6.055-13.647-1.026-19.151C26.553,55.445,35.166,55.097,40.761,60.167z"/>
<path fill="#00B2ED" d="M39.935,61.072c5.32,4.824,5.769,12.96,1.004,18.175c-4.765,5.214-12.94,5.53-18.26,0.709
	c-5.319-4.823-5.768-12.961-1.003-18.173C26.441,56.566,34.616,56.25,39.935,61.072z"/>
<path fill="#00B5EE" d="M39.109,61.979c5.044,4.57,5.484,12.271,0.983,17.195c-4.501,4.927-12.239,5.212-17.282,0.639
	c-5.043-4.57-5.483-12.271-0.982-17.197C26.329,57.69,34.066,57.402,39.109,61.979z"/>
<path fill="#00B9EF" d="M38.285,62.879c4.767,4.324,5.197,11.588,0.96,16.223c-4.238,4.639-11.538,4.892-16.305,0.57
	c-4.768-4.323-5.198-11.585-0.961-16.223C26.216,58.811,33.516,58.558,38.285,62.879z"/>
<path fill="#31BDF0" d="M37.458,63.784c4.492,4.071,4.912,10.898,0.939,15.247c-3.974,4.349-10.836,4.57-15.328,0.498
	c-4.493-4.071-4.913-10.899-0.94-15.247C26.104,59.935,32.967,59.712,37.458,63.784z"/>
<path fill="#4BC1F1" d="M36.633,64.688c4.216,3.822,4.627,10.211,0.917,14.27c-3.71,4.061-10.135,4.253-14.351,0.431
	c-4.216-3.821-4.627-10.214-0.918-14.271C25.992,61.056,32.417,60.865,36.633,64.688z"/>
<path fill="#5DC5F2" d="M35.807,65.591c3.94,3.571,4.341,9.524,0.896,13.296c-3.446,3.771-9.434,3.932-13.373,0.36
	c-3.941-3.573-4.342-9.525-0.896-13.298C25.879,62.179,31.867,62.02,35.807,65.591z"/>
<path fill="#6DC9F3" d="M34.981,66.494c3.664,3.322,4.056,8.838,0.874,12.321c-3.182,3.481-8.731,3.612-12.396,0.289
	c-3.665-3.324-4.056-8.84-0.875-12.321C25.767,63.301,31.317,63.172,34.981,66.494z"/>
<path fill="#7CCDF4" d="M34.155,67.399c3.389,3.067,3.771,8.15,0.853,11.342c-2.917,3.197-8.03,3.293-11.419,0.22
	c-3.389-3.071-3.771-8.151-0.852-11.346C25.654,64.424,30.768,64.325,34.155,67.399z"/>
<path fill="#89D1F5" d="M33.331,68.303c3.113,2.818,3.484,7.463,0.831,10.368c-2.655,2.904-7.33,2.97-10.442,0.148
	c-3.113-2.822-3.484-7.465-0.831-10.37C25.542,65.547,30.217,65.479,33.331,68.303z"/>
<path fill="#96D6F6" d="M32.504,69.203c2.837,2.572,3.2,6.78,0.81,9.396c-2.391,2.616-6.627,2.65-9.465,0.08
	c-2.837-2.574-3.2-6.78-0.809-9.396C25.43,66.668,29.667,66.633,32.504,69.203z"/>
<path fill="#A1DAF7" d="M31.679,70.106c2.562,2.325,2.914,6.093,0.788,8.42c-2.127,2.325-5.926,2.33-8.488,0.008
	c-2.561-2.322-2.914-6.091-0.788-8.418C25.317,67.791,29.118,67.785,31.679,70.106z"/>
<path fill="#ACDEF8" d="M30.854,71.013c2.285,2.071,2.627,5.403,0.766,7.442c-1.863,2.038-5.225,2.01-7.511-0.063
	c-2.285-2.071-2.628-5.403-0.766-7.439C25.206,68.913,28.568,68.94,30.854,71.013z"/>
<path fill="#B7E1F9" d="M30.028,71.916c2.009,1.82,2.342,4.718,0.744,6.465c-1.599,1.75-4.523,1.691-6.533-0.129
	c-2.01-1.824-2.343-4.72-0.745-6.469C25.093,70.036,28.018,70.093,30.028,71.916z"/>
<path fill="#C0E5FA" d="M29.202,72.819c1.733,1.571,2.057,4.03,0.723,5.491c-1.336,1.46-3.823,1.37-5.557-0.202
	c-1.733-1.573-2.057-4.031-0.722-5.49C24.981,71.156,27.468,71.247,29.202,72.819z"/>
<path fill="#CAE9FA" d="M28.376,73.725c1.458,1.32,1.772,3.34,0.701,4.512c-1.07,1.172-3.121,1.05-4.579-0.271
	c-1.458-1.32-1.771-3.342-0.7-4.514C24.868,72.28,26.918,72.4,28.376,73.725z"/>
<path fill="#D3EDFB" d="M28.23,78.165c-0.808,0.885-2.42,0.731-3.602-0.341c-1.183-1.071-1.486-2.656-0.68-3.54
	c0.808-0.883,2.42-0.731,3.602,0.342C28.733,75.699,29.037,77.28,28.23,78.165z"/>
<path fill="#7ECEF4" d="M36.003,65.735c0.077-0.394,0.526-2.086,0.202-2.335c-0.61-0.47-0.88-0.974-1.952-0.947
	c-0.786,0.021-1.428,0.095-2.222,0c0.706-1.403,0.458-2.579,1.303-3.944c0.668-1.077-2.09-0.597-2.445-0.489
	c-0.626,0.184-0.48,0.478-0.578,1.054c-0.067,0.399-0.642,0.836-0.574,1.167c-0.274-0.064-0.594-0.035-0.912-0.004
	c-0.459,0.044-0.914,0.085-1.222-0.155c-0.537-0.428-0.625-0.071-1.003-0.773c-0.232-0.43-0.498-0.832-0.758-1.247
	c-0.58-0.911-0.803-2.756-0.18-3.671c0.546-0.804-0.349-1.64,0.514-2.302c0.382-0.294,1.338-0.589,1.338-1.202
	c0.728-0.054,1.592-0.116,2.223-0.071c0.176,0.41,1.145,0.856,1.218,0.214c0.228,0.185,0.443,0.524,0.788,0.285
	c-0.022-0.225-0.142-0.367-0.358-0.428c0.119-0.202,0.143-0.417,0.071-0.644c0.465-0.264,0.921,0.127,1.218,0.144
	c0.352-0.167,0.661-0.098,0.95-0.03c0.244,0.058,0.474,0.115,0.699,0.03c-0.085,0.557,0.547,0.525,0.867,0.293
	c0.556-0.407,0.665,0.2,1.066,0.583c0.576,0.553-0.169,1.772,0.934,2.407c-0.081,0.477,0.807,1.283,1.056,1.252
	c1.958-0.237-0.814-4.158-0.481-5.321c0.226-0.79,0.542-1.147,1.208-1.509c0.583-0.317,0.612-0.897,1.199-1.09
	c0.613-0.203,0.881-0.634,1.464-0.864c0.331-0.132,0.54-0.329,0.141-0.537c0.109-0.12,0.838-0.584,0.861-0.571
	c-0.027-0.451-0.716-1.2-0.646-1.5c0.082,0.042,0.11,0.109,0.084,0.204c0.095,0.257,0.793-0.915,0.828-0.975
	c0.347-0.591-0.05-0.236,0.092-0.727c0.285,0.066,0.613-0.375,0.8-0.818c0.18-0.426,0.23-0.851-0.011-0.824
	c0.747-0.836,2.031-0.323,2.723-1c0.579,0.049,0.861,0.11,0.861-0.5c-0.231-0.258-0.621-0.005-0.789-0.357
	c0.101-0.639,0.409-1.126,1.06-1.348c0.26-0.098,0.455-0.268,0.588-0.509c0.387-0.032,0.761-0.116,1.122-0.256
	c1.002-0.387,0.206-0.447,0.527-0.601c0.047-0.012,1.667-0.136,1.577-0.287c0.136,0.287-1.156,0.656-1.07,1.247
	c0.129,0.896,0.594,0.591,1.143,0.469c0.492-1.007,2.316-1.285,3.37-1.5c0.094-0.301-0.278-0.155-0.216-0.428
	c0.465,0.104,0.89-0.123,1.055-0.349c0.152-0.212,0.075-0.424-0.409-0.366c0.01-0.236,0.17-1.482-0.537-0.607
	c-0.361,0.445-0.39,0.612-0.396,1.107c-0.297-0.1-0.611-0.083-0.925-0.066c-0.219,0.011-0.438,0.025-0.651-0.004
	c-0.208-0.326-0.332-0.298-0.674-0.438c-0.274-0.112-0.556-0.884-0.689-0.848c0.144-0.202,0.263-0.417,0.359-0.642
	c-0.054-0.053-0.863-0.189-1.092-0.21c0.524,0.018,2.017-0.306,1.276-0.975c-0.535-0.484-1.392-0.258-1.993-0.061
	c-0.576,0.188-1.349,0.392-1.848,0.746c-0.158,0.113-0.557,0.477-0.86,0.57c0.002-0.382,1.065-1.099,1.376-1.264
	c0.519-0.28,0.864-0.066,1.203-0.665c0.087-0.458,0.354-0.645,0.801-0.561c0.581-0.026,1.214,0.016,1.857,0.059
	c1.112,0.074,2.254,0.147,3.221-0.139c0.476-0.142,0.766-0.583,1.075-0.929c0.432-0.005,0.861-0.029,1.291-0.072
	c0.597-0.038,1.073-0.559,0.896-1c-0.168-0.419,0.061-1.791-1.04-1.214c-0.188-0.041-0.127-0.691-0.86-0.57
	c0.21-0.093,0.4-0.212,0.573-0.358c-0.215-0.409-2.058-0.835-2.508-0.643c-0.097-0.252,0.171-0.458-0.354-0.861
	c-0.265-0.202-1.095-0.192-1.009-0.709c0.479,0.481,1.113-0.311,0.072-0.643c-0.035-0.212,0.736-0.063-0.036-0.535
	c-0.176-0.107-0.753-0.475-0.643-0.676c0.226-0.413-1.678-2.495-2.142-0.769c-0.065,0.241-1.825,1.417-1.978,1.093
	c-0.241-0.516-0.424-0.436-0.678-0.355c-0.179,0.057-0.395,0.113-0.689-0.044c-0.084-0.291,0.487-0.185,0.327-0.932
	c-0.148-0.695-0.217-0.44,0.125-0.96c0.284-0.434-1.944-0.086-1.741-0.821c-0.575-0.324-1.151-0.911-1.826-0.667
	c-0.556,0.203-0.986,0.3-1.578,0.14c-0.427-0.117-0.983-0.331-1.344,0.06c-0.271,0.292-0.29,0.681,0.16,0.824
	c-0.213,0.246-0.404,0.508-0.574,0.785c0.155,0.09,0.323,0.115,0.501,0.072c-0.052,0.236-0.005,0.45,0.144,0.644
	c-0.103,0.166-0.247,0.285-0.43,0.356c-0.149,0.674-1.009,0.843-0.042,1.356c0.721,0.383,1.198,0.898,0.759,1.785
	c-0.324,0.655-1.596,1.432-2.366,1.571c-0.086,0.674,0.363,0.66,0.374,1.312c0.005,0.357,0.224,0.768,0.2,1.116
	c-0.059,0.82-0.386,0.438-0.777,0.818c-0.437,0.425-0.726-0.391-1.117-0.573c-0.6-0.284-0.734-0.708-0.669-1.276
	c0.064-0.56,0.234-1.523-0.385-1.649c-1.1-0.222-2.46,0.14-3.436-0.564c-0.485-0.35-1-0.679-1.677-0.801
	c-0.342-0.063-0.617,0.029-0.893,0.122c-0.227,0.075-0.455,0.151-0.725,0.139c0.36-0.839-0.163-1.364-0.883-1.334
	c-0.704,0.028-0.142-1.195,0.021-1.524c0.2-0.403,0.883-0.748,0.934-1.14c0.019-0.144,1.365-1.173,0.932-1.143
	c1.335-0.459,1.072-0.476-0.143-0.784c0.131-0.129,0.487-0.104,0.855-0.081c0.604,0.04,1.236,0.078,0.936-0.563
	c0.851,0.281,1.8-0.34,2.08-1.143c-0.195-0.069-1.983-0.086-1.864-0.427c0.721,0.246,1.458,0.472,2.106-0.008
	c0.545-0.403,0.925-0.552,0.259-0.778c0.625-0.169,1.34-0.207,2.007-0.143c-0.114-0.288-0.329-0.431-0.646-0.428
	c0.315-0.279,0.504,0.247,0.789,0.285c0.555,0.077,1.079-0.287,1.428-0.672c0.817-0.907-0.728-0.544-0.425-1.326
	c0.089-0.09,0.227-0.041,0.363,0.007c0.196,0.068,0.393,0.137,0.446-0.202c0.079-0.502-0.408-0.37-0.803-0.47
	c-0.662-0.167-2.771,0.411-1.438,0.665c-0.194,0.142-0.409,0.237-0.645,0.285c-0.152,0.317-0.351,0.599-0.597,0.851
	c-0.482,0.505-0.913,0.66-1.338,0.007c0.069-0.123,0.948-1.269-0.109-0.898c-0.419,0.147-0.67,0.598-1.038,0.827
	c0.19-0.272-0.231-0.627,0.143-0.787c-0.178-0.18-0.427-0.098-0.669-0.017c-0.145,0.049-0.287,0.098-0.406,0.089
	c-0.041-0.412,0.461-0.217,0.573-0.5c-0.244-0.365-0.688-0.092-0.584-0.584c0.107-0.504-0.954-0.126-1.114-0.06
	c-0.483,0.2-0.771,0.688-1.241,1.001c0.08,0.074,0.177,0.097,0.287,0.071c-0.046,0.199-0.663,0.543,0.014,0.598
	c0.267,0.022,0.536-0.03,0.807-0.081c0.227-0.044,0.457-0.087,0.685-0.087c-0.004,0.132-0.955,0.463-1.004,0.5
	c0.016,0.204,0.174,0.155,0.329,0.106c0.092-0.029,0.184-0.059,0.245-0.035c-0.212,0.399-0.892,0.542-1.207,0.762
	c-0.522,0.361-0.036,0.36-0.298,0.738c-0.59,0.072-0.221-0.404-0.144-0.643c-0.372-0.117-1.452-0.093-1.362,0.5
	c-0.403,0.186-2.102,0.998-2.505,0.783c-0.892-0.478-2.057,0.768-2.591,1.39c0.001-0.01,0.005-0.019,0.007-0.031
	c-1.172-0.051-1.786,0.965-2.867,1.142c0.211-0.194,0.426-0.385,0.645-0.571c-0.44-0.323-2.35,1.311-2.652,1.643
	c-1.36,1.494-0.423-0.265-1.864-0.428c-0.193,0.176,0.298,0.326,0.216,0.571c-0.238,0.001-0.928,0.338-1.146,0.428
	c-0.269,0.111-0.877,0.275-1.256,0.548c-0.103,0.125-0.204,0.25-0.305,0.375c-0.007,0.025-0.013,0.051-0.017,0.076l-0.025-0.023
	c-1.918,2.405-3.549,4.954-4.895,7.607c0.589,0.009,1.196,0.006,1.336,0.128c-0.244,0.684,1.552,0.796,1.505,1.214
	c0.183-0.08-0.015-0.481,0.287-0.43c-0.129,0.238-0.263,0.55-0.377,0.874c0.064-0.229-0.208-0.038-0.053,0.128
	c0.013-0.027,0.024-0.05,0.032-0.072c-0.112,0.324-0.203,0.654-0.247,0.926c0.363-0.134,0.086-0.704,0.431-0.854
	c0.037,0.134-0.041,1.207-0.065,1.248c0.096,0.537-0.435,2.053-0.26,2.287c0.125,0.168,0.68,0.845,0.54,1.034
	c-0.229,0.308-0.044,1.411-0.123,1.833c-0.111,0.601-0.257,1.196-0.307,1.808c-0.169,0.93-0.379,1.974-0.247,2.925
	c0.165,1.185,0.562,2.255,0.886,3.417c0.224,0.805,0.63,0.296,0.943,0.98c0.373,0.813,0.595,1.943,0.999,2.818
	c0.154,0.338,1.274,1.873,0.358,1.711c-0.066,0.954,1.339,0.987,1.434,1.859c0.112,1.021,0.936,1.325,1.218,2.285
	c0.786,0.031-0.075-1.089-0.072-1.285c-0.467-0.029-0.72-1.313-0.789-1.858c-0.46-0.195-0.682-1.187-0.92-1.6
	c-0.427-0.738-0.798-1.37-0.728-2.255c0.935,0.25,0.894,1.135,1.214,2.063c0.142,0.408,0.632,1.127,0.865,1.366
	c0.551,0.421,0.572,0.714,0.645,1.284c1.047,0.589,1.711,2.205,2.208,3.226c0.289,0.594-0.157,0.956,0.187,1.515
	c0.32,0.517,0.947,0.751,1.189,1.33c1.049,0.312,2.037,1.048,2.951,1.563c0.534,0.298,1.023,0.663,1.637,0.79
	c0.486,0.105,0.84-0.32,1.303-0.325c0.906-0.008,1.737,1.486,2.425,1.971c0.307,0.004,2.707,1.017,2.724,0.643
	c0.117,0.01,1.228,1.744,1.578,1.927c0.095,0.406-0.301,0.465,0.183,0.817c-0.063-0.046,0.081,0.067,0.246,0.163
	c0.479-0.209,0.983-0.386,1.484-0.598C36.103,66.604,35.913,66.194,36.003,65.735"/>
<linearGradient id="SVGID_1_" gradientUnits="userSpaceOnUse" x1="-1083.0532" y1="1184.7988" x2="-1082.9468" y2="1184.7988" gradientTransform="matrix(15.843 437.2622 437.2622 -15.843 -500857.25 492411.75)">
	<stop  offset="0" style="stop-color:#9FD9F6"/>
	<stop  offset="1" style="stop-color:#00A5E3"/>
</linearGradient>
<path fill="url(#SVGID_1_)" d="M69.793,80.844c-0.223-0.812-0.988-0.134-1.538-0.52c-0.472-0.327-0.985-0.923-1.619-0.872
	c-0.79,0.063-1.341,0.095-2.131-0.057c-0.548-0.105-0.742,0.344-1.221,0.337c0.11-0.738-0.625-1.211-1.506-1.071
	c-0.278-0.396-0.929-0.14-1.415,0.144c0.064-0.126,0.103-0.276,0.126-0.43c-0.388-0.329-1.201-0.096-1.649-0.143
	c-0.395,0.354-0.368,0.893-1.074,0.929c0.295-0.837,1.182-1.051,1.623-1.752c0.229-0.364-0.585-0.791-0.704-1.115
	c-0.396-1.075-0.316-0.931-1.235-1.566c-0.584-0.403-1.391-0.67-2.145-0.727c-0.668-0.05-0.73,0.256-1.343,0.027
	c-0.389-0.145-0.873-0.637-1.431-0.578c0.237-1.258-1.62-1.311-2.364-1.214c0.159-0.224,0.351-0.412,0.573-0.572
	c-0.151-0.183-0.342-0.3-0.573-0.358c0.334-0.069,0.179-0.646,0.286-0.856c-0.611-0.099-0.921,0.871-1.29,0.429
	c0.109-0.143,0.463-0.006,0.431-0.284c-0.537-0.327-1.545-0.158-2.032,0.181c-0.661,0.456-1.261-0.368-1.952-0.292
	c-0.575,0.061-0.802,0.199-1.1-0.287c-0.219-0.359-0.618-0.434-1.009-0.389c-0.187-0.146-0.243-0.84-0.626-0.586
	c-0.221,0.146-0.249,0.501,0.124,0.518c-0.307,0.283-0.874,0.143-1.147,0.427c-0.137-0.018-0.341-0.469-0.062-0.538
	c1.162-0.291-0.4-0.635-0.628-1.018c-0.167-0.281-0.39-0.466-0.649-0.579c-0.906-0.4-2.249,0.044-3.105,0.135
	c-0.269-0.37-0.706-0.755-1.025-1.188c-0.501,0.212-1.004,0.389-1.485,0.598c0.209,0.122,0.451,0.22,0.359-0.053
	c0.273,0.638,0.861,0.191,0.861,1.001c0.103,0.249,0.779,0.366,0.933,0.358c0.169-0.012,0.325,0.018,0.472,0.072
	c0.259,0.095,0.491,0.267,0.727,0.445c0.376,0.28,0.354,0.207,0.951,0.192c-0.067-0.247-0.162-0.486-0.288-0.71
	c0.614,0.002,0.611-0.356,1.291-0.217c-0.027,0.267,0.428,0.887,0.286,1.073c-0.578,0.152-1.242-0.033-1.655,0.444
	c-0.176,0.206-0.17,0.968-0.441,1.001c-0.35,0.043-0.662,0.401-0.7,0.766c-0.106-0.148-0.25-0.243-0.429-0.285
	c-0.258,0.201,0.369,0.386,0.143,0.572c-0.203,0.046-0.346,0.166-0.43,0.358c-0.037,0.394,0.463,0.74,0.501,1.14
	c0.042,0.437,0.242,1.463,0.051,1.801c-0.096,0.17-1.081,0.735-0.767,0.771c-0.478,0.033-0.122,0.521-0.657,0.547
	c-0.383-0.089-0.51,0.078-0.382,0.501c-0.073,0.325-0.973,1.542-0.251,1.807c0.049,0.019,0.658,0.088,0.715,0.025
	c-0.004,0.639-0.735,0.532-1.002,0.976c-0.05,0.431,0.872,0.927,0.215,0.927c0.177,0.346,0.614,0.425,0.932,0.572
	c0.192,0.331,0.419,0.636,0.679,0.918c0.511,0.574,1.062,1.125,1.328,1.867c0.741,0.532,0.97,1.406,1.602,1.943
	c0.57,0.485,1.256,0.809,1.948,1.079c0.773,0.306,1.407,0.627,2.114,1.048c0.12,0.35,0.507,1.542,0.216,1.854
	c-0.107,0.115-0.193,2.346-0.072,2.357c-0.072,0.526-0.561-0.28-0.105,0.572c0.107,0.117,0.135,0.234,0.083,0.358
	c-0.003,0.045-0.413,0.766-0.767,0.568c0.05,0.145,0.141,0.247,0.271,0.308c3.222,0.444,6.479,0.536,9.711,0.283
	c-0.263-0.113-0.286-0.358-0.735-0.304c1.177-0.199,2.164,0.146,3.276-0.421c0.256-0.127,0.677-0.358,0.997-0.548
	c-0.015,0.013-0.031,0.023-0.044,0.04c0.644,0.027,2.145-1.144,2.197-1.668c0.133-1.304,2.381-0.792,2.964-1.688
	c1.383-0.172,1.755-0.375,2.705-1.196c0.778-0.675,0.998-1.371,1.512-2.103c0.334-0.478,0.15-1.147,0.442-1.702
	c0.65-0.174,1.01-0.721,1.29-1.281C69.168,83.384,70.165,82.211,69.793,80.844z"/>
<path fill="#7ECEF4" d="M55.855,27.237c-0.196,0.107-0.332,0.216-0.313,0.302C55.484,27.277,55.663,27.249,55.855,27.237"/>
<path fill="#7ECEF4" d="M42.855,41.905c0.02-0.002,0.043-0.007,0.071-0.015C42.912,41.903,42.888,41.909,42.855,41.905z"/>
<path fill="#7ECEF4" d="M42.926,41.89c0.009-0.027,0.015-0.051,0.016-0.072C42.945,41.851,42.941,41.875,42.926,41.89z"/>
<polygon fill="#7ECEF4" points="42.926,41.747 42.926,41.747 42.926,41.747 "/>
<path fill="#7ECEF4" d="M42.855,41.73c-0.021,0.002-0.044,0.008-0.071,0.017C42.797,41.732,42.822,41.728,42.855,41.73z"/>
<polygon fill="#7ECEF4" points="42.784,41.89 42.784,41.89 42.784,41.89 "/>
<path fill="#7ECEF4" d="M42.784,41.747c-0.01,0.027-0.014,0.051-0.016,0.072C42.764,41.786,42.769,41.761,42.784,41.747z"/>
<path fill="#7ECEF4" d="M13.06,35.438c0.047,0.108,0.124,0.213,0.188,0.318C13.134,35.748,13.078,35.603,13.06,35.438z"/>
<path fill="#7ECEF4" d="M13.178,36.462c0.118-0.136,0.178-0.289,0.182-0.452C13.388,36.149,13.352,36.295,13.178,36.462z"/>
<path fill="#7ECEF4" d="M41.613,70.987c0.002,0.048,0.01,0.086,0.023,0.104c0.09,0.124,0.168,0.214,0.235,0.272
	C41.651,71.373,41.449,71.252,41.613,70.987z"/>
<path fill="#7ECEF4" d="M42.162,71.269c-0.002-0.227-0.142-0.587-0.382-0.747C42.329,70.883,42.326,71.141,42.162,71.269z"/>
<path fill="#7ECEF4" d="M18.774,19.322c0.67,0.082,0.62,0.361,1.07,0.79c0.083-0.174,1.632-1.908,1.792-1.713
	c-0.146,0.093-0.265,0.212-0.359,0.357c0.076-0.042,0.147-0.042,0.215,0c-0.221,0.143-0.388,0.333-0.501,0.571
	c0.459,0.009,1.199-0.32,1.458-0.446c0.661-0.32,1.273-0.73,1.839-1.196c0.463,0.079,0.925-0.58,1.496-0.618
	c0.653-0.045,1.401-0.34,1.801-0.881c-0.245-0.249-0.568,0.307-0.716,0.142c0.323-0.3,1.5-0.383,1.362-0.856
	c-0.491-0.159-0.975,0.288-1.434,0c0.323-0.272,0.164-0.583,0.144-0.928c-0.893-0.065-1.089,0.609-1.434,1.213
	c-0.265,0.003-0.033-0.359-0.144-0.356c-0.482,0.068-0.699,0.509-1.075,0.785c0.005,0.063-1.704,0.819-2.235,0.756
	c-0.66-0.079-0.701-0.44-1.407-0.367c-0.115,0.012-0.229,0.026-0.343,0.04c-0.301,0.262-0.6,0.53-0.895,0.801
	c0.003,0.081-0.03,0.184-0.123,0.331c-0.371,0.578-0.399,0.33-0.446,1.009C18.765,18.995,18.063,19.233,18.774,19.322z"/>
<path fill="#7ECEF4" d="M15.931,20.989c-0.16,0.184-0.32,0.37-0.477,0.557c0.381-0.158,0.744-0.303,0.879-0.435
	C16.267,21.006,16.12,20.974,15.931,20.989z"/>
<path fill="#7ECEF4" d="M11.959,34.035c0.049-0.169,0.325-0.481,0.144-0.642C12.062,33.57,11.744,33.839,11.959,34.035z"/>
<path fill="#7ECEF4" d="M92.388,37.963c0.027-0.504-0.057-0.895-0.214-1.214C91.953,37.11,92.075,37.734,92.388,37.963z"/>
<path fill="#7ECEF4" d="M85.006,25.538c-0.094-0.106-0.018-0.56,0.142-0.357c-0.542,0.555,1.28,1.438,1.22,2.143
	c-0.169-0.089-0.337-0.089-0.503,0c0.09,0.193,0.186,0.383,0.287,0.571c-0.115,0.042-0.235,0.065-0.358,0.072
	c0.047,0.593,0.763,0.493,1.003,0.928c-0.177-0.047-0.344-0.118-0.501-0.214c-0.361,1.316-0.423,0.304,0.574,1
	c-0.026-0.111-0.004-0.205,0.071-0.286c0.537,0.205,0.846,0.473,1.506,0.571c0.044-0.077-0.041-0.866-0.072-1
	c-0.233-0.578-0.875-1.24-1.235-1.784c-0.395-0.598-0.871-1.163-1.274-1.715c-0.08-1.093-0.481-0.701-0.932-1.499
	c0.146-0.008,0.242-0.079,0.287-0.214c-0.304-0.202-0.613-0.393-0.932-0.571c-0.001,0.18,0.049,0.347,0.143,0.499
	c-0.051-0.017-0.099-0.04-0.143-0.071C84.323,23.964,84.623,25.462,85.006,25.538z"/>
<path fill="#7ECEF4" d="M92.174,63.309c0.037-0.111,0.275-0.38,0.07-0.497C92.285,63.001,91.949,63.172,92.174,63.309z"/>
<path fill="#7ECEF4" d="M12.611,33.283c-0.002-0.01-0.004-0.023-0.007-0.034C12.605,33.278,12.608,33.288,12.611,33.283z"/>
<path fill="#7ECEF4" d="M94.276,44.327c-0.254-0.502-0.54-0.926-0.773-0.972c-0.549-0.105,0.392-2.577-0.685-2.681
	c-0.297,0.258-0.969-0.046-1.338-0.136c-0.633-0.157-1.061,0.034-1.458,0.422c0.06,0.177-1.763,0.496-2.158-0.306
	c-0.245-0.494,0.734-0.46,0.93-0.446c0.822,0.057,0.696-0.652,1.058-1.162c0.235-0.335,0.013-0.443-0.188-0.798
	c0.149-0.322,0.27-0.656,0.359-0.999c1.144,0.134,0.153-1.131,0.646-1.429c0.23,0.234,0.492,0.425,0.789,0.572
	c0.094-0.229,0.235-0.419,0.43-0.572c0.557,0.749,0.722,1.695,1.146,2.499c0.007,0.014,0.015,0.024,0.021,0.039
	c-0.875-3.167-2.106-6.248-3.687-9.189c-0.174,0.154-0.331,0.466-0.278,0.797c-0.553-0.27-0.452,0.418-0.725,0.6
	c-0.275,0.186-0.349,0.037-0.448-0.114c-0.07-0.105-0.155-0.211-0.332-0.2c0.112,0.252,0.185,0.513,0.215,0.784
	c-0.49-0.386-0.591-0.311-1.218-0.426c-0.082,0.636,1.278,1.666,1.671,2.238c0.254,0.37,0.629,1.724,0.336,2.188
	c-0.666-0.494-2.734-1.264-3.297-0.713c-0.085,0.347,0.395,1.67,0.473,2.077c0.066,0.358-0.044,1.353-0.186,1.708
	c0.999,0.57-0.273,1.743,1.433,1.426c0.722,0.863,0.693,1.99-0.187,2.624c-0.779,0.558-0.446,0.948-0.893,1.537
	c-0.476,0.625,0.316,1.307-0.321,2.042c-0.438,0.504-1.292,0.656-1.488,1.239c-0.282,0.844-0.897,1.258-0.91,2.27
	c-0.792,0.37-0.45,1.292-0.997,1.825c-0.421,0.406-0.221,0.792-0.294,1.316c0.111-0.027,0.206,0,0.288,0.071
	c0.17,0.287,0.251,1.629,0.225,1.944c-0.046,0.505-0.165,1.753-0.483,2.138c-0.618,0.75,0.095,0.975-0.088,1.664
	c-0.146,0.551,0.141,1.32,0.849,1.18c-0.421,0.839,1.227,1.375,1.003,2.5c0.229,0.68,1.4,1.416,1.995,1.938
	c0.628,0.551,1.088,0.186,1.563-0.181c0.441-0.339,0.894-0.682,1.506-0.289c0.228,0.146,2.17-1.479,2.534-1.682
	c0.277,0.28,0.183,0.799,0.287,1.143c0.323-0.075,0.586-0.243,0.788-0.5c0.243,1.372-0.758,2.479-0.662,3.77
	c0.005,0.047,0.005,0.094,0.007,0.137C94.423,59.194,95.259,51.656,94.276,44.327"/>
<path fill="#7ECEF4" d="M83.284,27.038c0.721,1.183,2.833,1,1.722-0.571c0.579-0.04-0.717-1.506-1.076-1.429
	c-0.146,0.094-0.267,0.211-0.358,0.358c0.146,0.006,0.241,0.079,0.286,0.214c-0.259-0.001-0.43-0.198-0.716-0.214
	C82.952,25.739,84.152,27.182,83.284,27.038"/>
<path fill="#7ECEF4" d="M53.163,5.713C52.776,5.767,52.37,5.758,51.96,5.75c-0.727-0.014-1.46-0.029-2.081,0.296
	c0.331-0.011,0.642,0.061,0.932,0.215c-0.08,0.008-0.192-0.002-0.318-0.013c-0.286-0.025-0.634-0.048-0.758,0.155
	c0.2,0.058,0.308,0.042,0.357,0.027c0.076-0.023,0.014-0.045-0.069,0.187c1.86,0.249,3.773-0.273,5.375,0.928
	c-0.009,0.089-0.555,0.066-0.429,0.143c0.54-0.115,0.501,0.332,0.932,0.429c-0.105,0.028-0.201,0.075-0.288,0.142
	c0.271,0.024,0.51,0.12,0.719,0.287c-0.02,0.002-0.737,0.002-0.646,0.071c0.137-0.043,0.256-0.02,0.358,0.072
	c-0.15,0.022-0.271,0.094-0.358,0.215c0.088-0.021,0.158,0.003,0.215,0.07c-0.109-0.005-0.219-0.002-0.329,0.007
	c-0.345,0.159,0.912,0.252,1.421,0.208c0.028-0.075,0.095-0.099,0.199-0.072c0.029,0.035-0.056,0.06-0.199,0.072
	c-0.008,0.02-0.014,0.043-0.016,0.071c0.488,0.168,1.312,0.123,1.576,0.5c-0.175-0.032-0.132,0.029-0.088,0.09
	c0.06,0.088,0.117,0.175-0.45-0.01C57.537,9.684,56.72,9.39,56.26,9.758c0.127,0.03,0.222,0.102,0.286,0.216
	c-0.453-0.074-0.52,0.48-0.501,0.499c0.332,0.329,1.915,0.643,2.221,0c-0.207-0.11-0.422-0.205-0.644-0.286
	c0.338,0.057,0.673,0.128,1.003,0.214c-0.089-0.02-0.159,0.004-0.215,0.071c0.021,0.149,0.152,0.132,0.265,0.116
	c0.081-0.012,0.152-0.023,0.165,0.027c0.242,0.888-1.192,0.643-1.647,0.928c0.382,0.071-0.251,0.318-0.309,0.508
	c-0.142,0.252-0.083,0.352,0.179,0.297c-0.075,0.042-0.151,0.085-0.229,0.124c0.265,0.292,0.846,0.042,1.075,0.285
	c-1.282,0-0.948,0.842,0.071,1c0,0.541,0.186,0.599,0.718,0.714c-0.449-0.016-0.355,0.24-0.155,0.496
	c0.195,0.25,0.493,0.5,0.493,0.496c0.12,0.361-0.013,0.179,0.352,0.438c0.127,0.09,0.663,0.085,0.744,0.212
	c-0.122,0.445,0.215,0.407,0.286,0.929c0.577,0.185,0.642,0.016,0.895,0.433c0.036,0.061,0.29,0.233,0.372,0.233l0.024-0.023
	c0,0.016-0.009,0.021-0.024,0.023c-0.477,0.447,0.908,0.453,1.099,0.475c0.021,0.194,0.125,0.298,0.313,0.313
	c0.27,0.007,0.262,0.094-0.026,0.259c0.53,0.043,0.991-0.021,1.506-0.143c-0.113,0.078-0.136,0.172-0.072,0.286
	c0.46,0.109,0.354-0.351,0.431-0.357c0.06,0.006,0.774,0.064,0.789,0.144c-0.193,0.06-0.337,0.179-0.431,0.356
	c0.359,0.064,0.718,0.136,1.075,0.215c-0.442,0.504,0.187,0.28,0.646,0.498c0.239-0.101,0.473-0.09,0.705-0.079
	c0.217,0.009,0.433,0.018,0.657-0.063c0.134-0.433-0.017-0.361-0.106-0.291c-0.089,0.091-0.059,0.046,0,0
	c0.056-0.056,0.153-0.161,0.321-0.352c-0.127-0.358-0.458-0.168-0.215-0.888c0.275-0.808-0.26-0.614-0.574-1.253
	c0.148,0.005,0.292-0.02,0.431-0.072c0.009-0.171-0.063-0.29-0.216-0.357c0.367-0.057,0.728,0.043,0.932-0.57
	c-0.26-0.138-0.499-0.305-0.716-0.5c0.178,0.043,0.345,0.019,0.501-0.071c-0.152-0.182-0.319-0.348-0.501-0.5
	c0.176,0.032,0.343,0.007,0.501-0.071c-0.024-0.191-0.121-0.335-0.287-0.43c0.936,0.324,1.566-0.195,2.438-0.214
	c-0.048-0.114-0.072-0.233-0.07-0.357c0.188,0.144,0.403,0.214,0.644,0.214c0.14-0.464-0.231-0.925,0.216-1.284
	c0.311,0.117,0.786,0.331,1.114,0.147c0.004-0.001,0.718-0.079,1.046-0.236C67.479,8.506,60.365,6.246,53.163,5.713"/>
<path fill="#7ECEF4" d="M58.195,11.687c-0.191-0.006-0.061-0.027,0.109-0.053c0.094-0.004,0.198-0.005,0.271-0.006
	C58.43,11.663,58.188,11.685,58.195,11.687"/>
<path fill="#7ECEF4" d="M58.625,11.614c-0.058-0.005-0.114-0.005-0.169-0.005c0.123-0.02,0.224-0.043,0.184-0.062
	C58.713,11.572,58.689,11.594,58.625,11.614"/>
<path fill="#7ECEF4" d="M92.746,39.533c-0.044-0.779-0.136-1.133-0.572-1.499c0.123,0.508,0.113,1.126,0.429,1.57
	C92.603,39.476,92.649,39.452,92.746,39.533z"/>
<path fill="#7ECEF4" d="M23.174,14.455c0.154-0.201,0.358-0.315,0.613-0.341c-0.06-0.056-0.096-0.11-0.115-0.164
	c-0.277,0.199-0.552,0.4-0.826,0.605C22.918,14.587,23.018,14.566,23.174,14.455z"/>
<path fill="#7ECEF4" d="M39.2,7.815c-0.033,0.005-0.06,0.01-0.073,0.015C39.154,7.84,39.178,7.832,39.2,7.815z"/>
<path fill="#7ECEF4" d="M40.625,7.112c0.427-0.109,0.854-0.217,1.298-0.21C41.595,6.983,41.108,7.033,40.625,7.112
	c-0.271,0.07-0.542,0.14-0.818,0.183c-0.237,0.076-0.44,0.172-0.582,0.3c0.09-0.061,0.058,0.154-0.025,0.22
	c0.158-0.024,0.475-0.057,0.214-0.199c0.244-0.071,1.388-0.175,1.577,0c-0.362-0.013-2.522,0.169-2.581,0.714
	c0.406-0.028,1.488-0.325,1.793-0.072c-0.39,0.132-3.826,0.341-3.656,1.285c0.583-0.009,1.367-0.364,1.973-0.457
	c0.673-0.102,1.424-0.289,2.082-0.483c0.75-0.222,2.388,0.159,2.898-0.702c-0.752-0.028-1.634,0.35-2.366,0.144
	c0.594-0.16,1.224-0.08,1.82-0.236c0.444-0.116,0.481-0.352,0.922-0.392c0.379-0.036,1.519-0.332,1.702-0.729
	c-0.411-0.061-0.899,0.197-1.29,0.072c0.736-0.252,1.58-0.027,2.293-0.357c-0.157,0.044-0.3,0.021-0.429-0.071
	c0.464,0.035,3.212-0.574,4.579-0.72c-0.089,0.005-0.171,0-0.239-0.017c-1.288-0.02-2.577,0.017-3.861,0.107
	c-1.173,0.157-2.337,0.382-3.487,0.644c-1.112,0.254-2.696,0.341-3.659,0.986c0.108-0.008,0.215-0.02,0.321-0.037
	C40.055,7.215,40.339,7.159,40.625,7.112z"/>
<path fill="#7ECEF4" d="M39.055,7.473c0.084-0.034,0.163-0.075,0.215-0.141C39.175,7.319,38.875,7.442,39.055,7.473z"/>
<path fill="#7ECEF4" d="M25.579,14.756c0.702-0.161,2.161-1.267,2.581-1.785C27.498,13.018,25.917,14.146,25.579,14.756z"/>
<path fill="#7ECEF4" d="M34.84,9.188c0.063,0.006,0.115,0.003,0.158-0.01h0c0.042-0.014,0.075-0.037,0.094-0.073
	c0.726-0.225,1.659-0.418,2.099-0.418c0.468-0.385,1.24-0.636,1.764-0.864c-0.108,0.047-0.398-0.104-0.402-0.136
	c0.025-0.035,0.056-0.063,0.088-0.087c-0.073,0.025-0.164,0.055-0.27,0.087c-0.211-0.002-0.578,0.184-0.786,0.216
	c0.011-0.001,0.022-0.002,0.036-0.003c0.012,0,0.026-0.001,0.042-0.001l0,0c0.088,0,0.212,0.01,0.333,0.007
	c-0.122,0.002-0.245-0.007-0.333-0.007c-1.366,0.407-3.43,1.042-3.339,1.501C34.454,9.332,34.633,9.259,34.84,9.188z"/>
<path fill="#7ECEF4" d="M50.835,5.602c-0.034,0.003-0.067,0.005-0.104,0.01c0.043-0.002,0.086-0.006,0.13-0.01H50.835z"/>
<polygon fill="#7ECEF4" points="51.473,5.619 51.47,5.619 51.483,5.627 "/>
<path fill="#7ECEF4" d="M78.123,16.613c-0.032-0.269-0.725-0.801-0.958-0.939c-0.16-0.094-0.171-0.042-0.2,0.009
	c-0.037,0.063-0.106,0.125-0.514-0.072c-0.168-0.081-1.386-0.505-1.411-0.427c0.11,0.082,0.135,0.177,0.073,0.286
	c-0.01-0.136-1.122-0.934-1.506-1c-0.088,0.165,0.272,0.233,0.143,0.285c-0.249-0.096-0.687-0.303-0.717,0.071
	c0.245,0.513,1.182,0.067,1.363,0.643c-0.079,0.023-0.204-0.01-0.333-0.042c-0.224-0.056-0.465-0.112-0.528,0.113
	c0.367,0.228,0.952,0.181,1.22,0.571c-0.215-0.064-0.335,0.008-0.358,0.214c0.421,0.126,4.503,1.693,4.443,0.929
	c-0.007,0-0.074-0.16-0.192-0.322C78.523,16.765,78.344,16.592,78.123,16.613"/>
<path fill="#7ECEF4" d="M43.572,59.455c-0.008-0.66-0.74-0.66-1.219-0.645c-0.027-0.167,0.224-0.209,0.072-0.356
	c-0.472-0.222-0.997-0.324-1.505-0.429c-0.13-0.36-0.501-0.506-0.836-0.604c-0.616-0.183-1.159-0.721-1.737-0.711
	c-0.773,0.016-1.378-0.335-2.229-0.113c-0.385,0.102-1.489,0.688-1.147,1.287c0.403,0.09,1.585-0.635,2.007-0.859
	c0.115,0.677,0.973,0.534,1.649,0.859c0.574,0.272,1.015-0.011,1.267,0.56c0.218,0.492,0.668,0.321,1.099,0.582
	c-0.146,0.248-0.491,0.185-0.43,0.572C41.558,59.443,42.573,59.589,43.572,59.455z"/>
<path fill="#7ECEF4" d="M40.502,61.156c0.066,0.035,1.429,0.318,1.349-0.059C41.495,60.439,39.243,60.441,40.502,61.156z"/>
<path fill="#7ECEF4" d="M44.457,61.048c0.299,0.077,0.601,0.094,0.906,0.05c0.143,0.25,0.357,0.392,0.646,0.428
	c0.163-1.381,2.477,0.169,2.508-0.855c-0.573-0.693-1.784-1.222-2.536-1.15c-0.401,0.038-1.853-0.351-1.979,0.151
	c0.001,0,0.914,0.948,0.86,0.926c-0.546,0.239-1.039-0.307-1.578-0.071C43.164,61.357,44.092,60.984,44.457,61.048z"/>
<path fill="#7ECEF4" d="M49.35,60.968c0.027,0.703,1.563,0.331,1.462-0.084C50.632,60.867,49.323,60.274,49.35,60.968z"/>
<path fill="#7ECEF4" d="M25.508,13.19c0.854,0.713,1.468-0.45,1.72-0.433C26.986,12.704,24.815,12.612,25.508,13.19z"/>
<path fill="#7ECEF4" d="M24.139,15.327c-0.287,0.002-1.05-0.146-1.068,0.357c0.522,0.438,2.376-0.176,2.222-0.928
	c-0.223-0.028-0.414-0.123-0.574-0.285c-0.387-0.012-0.745,0.083-1.075,0.285C23.47,14.77,24.065,15.292,24.139,15.327z"/>
<path fill="#7ECEF4" d="M34.468,10.901c1.372-0.147,2.631-0.867,3.984-0.881c0.401-0.003,1.008-0.094,1.249-0.477
	c0.307,0.412,0.938,0.133,1.312,0.05c0.515-0.114,0.675-0.333,1.197-0.622c-1.222-0.357-2.685,0.046-3.839,0.477
	c-0.528,0.197-0.856,0.141-1.388,0.347c-0.337,0.132-1.268,0.005-1.511,0.247c0.166-0.291,0.59-0.178,0.788-0.429
	c-0.661,0.03-1.262,0.248-1.863,0.501c-0.021,0.305,0.275,0.065,0.286,0.214C34.523,10.587,34.369,10.541,34.468,10.901z"/>
<path fill="#7ECEF4" d="M44.289,13.828c-0.755-0.25-1.721-0.049-1.721,0.857C43.246,14.958,44.37,14.752,44.289,13.828z"/>
<path fill="#7ECEF4" d="M49.325,11.894c-0.317,0.048-0.696,0.223-1.022,0.149c0.274-0.061,0.538-0.156,0.789-0.285
	c-0.076-0.328-0.615-0.295-1.125-0.259c-0.457,0.029-0.891,0.06-0.955-0.168c0.417-0.019-0.909-0.799-1.29,0
	c-0.055-0.44-0.37-0.354-0.682-0.268c-0.172,0.048-0.341,0.095-0.465,0.053c0.247-0.063,0.462-0.182,0.646-0.357
	c-0.499-0.354-3.13-0.664-3.154,0.357c-0.31-0.223-0.528-0.128-0.742-0.032c-0.189,0.083-0.375,0.168-0.62,0.032
	c0.2-0.189,0.368-0.403,0.501-0.643c-0.764-0.733-2.132-0.102-2.867,0.356c0.136-0.043,0.255-0.02,0.358,0.072
	c-0.319,0.003-0.861-0.005-0.932,0.429c0.117,0.042,0.211,0.113,0.287,0.214c-0.219-0.013-0.363,0.082-0.431,0.285
	c0.091,0.233,0.519,0.017,0.573,0.286c-0.223,0.221-0.485,0.292-0.788,0.214c0.18,0,0.324-0.072,0.431-0.214
	c-0.223-0.365-0.662-0.388-0.717-0.785c0.339-0.383,0.893-0.459,1.219-0.857c-0.898,0.11-3.45,0.756-3.083,1.785
	c-0.267,0.029-0.435,0.171-0.502,0.429c0.19,0.015,0.378-0.009,0.565-0.032c0.291-0.036,0.58-0.071,0.87,0.032
	c-0.271,0.229-0.967-0.004-1.076,0.428c0.283,0.326,0.873,0.17,1.208,0.066c0.398-0.123,0.383-0.066,0.463-0.008
	c0.065,0.047,0.194,0.095,0.67,0.041c1.02-0.116,1.975-0.206,2.964-0.17c0.066-0.413,0.285-0.341,0.581-0.27
	c0.2,0.047,0.434,0.096,0.681-0.002c0.756-0.298-0.142-0.401-0.186-0.514c0.312-0.199,2.08,0.646,2.365,0.786
	c-0.25,0.11-0.513,0.158-0.788,0.143c-0.107,0.629,0.667,0.248,0.973,0.16c0.649-0.186,0.545,0.195,1.144,0.326
	c1.588,0.344,0.271,1.58-0.683,1.799c-0.011,0.261,0.622,0.435,0.501,0.642c-0.837,0.074-1.442,0.201-2.246,0.228
	c-0.381,0.013-1.235,0.393-1.123,0.987c0.493,0.029,2.841,0.075,2.871-0.318c0.017-0.222,1.803,0.582,2.074,0.816
	c-0.166,0.026-0.26,0.122-0.287,0.286c0.604,0.47,1.603,0.167,2.079,0.857c0.854-0.099,1.603,0.366,2.437,0.43
	c0.002-1.128-1.582-1.047-2.079-1.786c0.571,0.193,1.108,0.456,1.682,0.586c0.483,0.11,0.848,0.549,1.329,0.557
	c0.029-0.105,0.057-0.734,0-0.785c0.088,0.054,0.184,0.078,0.287,0.071c0.134-0.676-0.401-0.656-0.716-1.071
	c0.133,0.034,0.204-0.013,0.214-0.142c-0.367,0.002-2.353-1.201-2.222-1.357c0.184,0.164,0.398,0.21,0.645,0.143
	c0.073-0.36-0.316-0.222-0.358-0.5c0.688-0.252,1.229,0.177,1.78,0.606c0.447,0.347,0.902,0.695,1.446,0.678
	c0.076-0.214-0.274-0.478-0.073-0.643c0.298-0.025,0.707-0.153,1.006-0.142c0.222-0.13-0.24-0.245,0-0.357
	c0.525,0.052,0.956-0.351,0.235-0.603c-0.591-0.206-0.663,0.044-0.954-0.326c-0.345,0.015-0.82,0.214-1.146,0
	c0.208,0.068,0.375,0.021,0.501-0.143c-0.511-0.802-2.452-0.567-3.296-1.071c0.102-0.093,0.221-0.115,0.358-0.071
	c0.075-0.186-0.369-0.265-0.216-0.357c0.37,0.137,0.752,0.186,1.147,0.143c0.05-0.338-0.217-0.337-0.491-0.335
	c-0.217,0-0.438,0.003-0.513-0.165C50.788,12.328,49.815,11.819,49.325,11.894"/>
<path fill="#7ECEF4" d="M37.98,17.97c0.296-0.005,2.247,1.121,2.223,0c-0.37-0.145-0.751-0.191-1.148-0.144
	c0.206-0.666-0.679-0.588-1.134-0.773c-1.015-0.415-0.222,0.069-0.944-0.011c0.022-0.273-0.097-0.44-0.358-0.5
	c-0.198,0.389-0.546,0.669-0.668,1.101c-0.213,0.746-0.518,0.513-0.837,1.184c0.393,0.058,0.788-0.3,1.146-0.214
	c-0.04,0.142-0.04,0.285,0,0.429c0.62-0.022,0.967-0.594,1.577-0.643C38.006,18.268,37.725,18.006,37.98,17.97z"/>
<path fill="#7ECEF4" d="M56.835,31.952c-0.206,0.169-0.231,0.364-0.074,0.583c-0.268,0.037-0.47,0.167-0.607,0.398
	c-0.201,0.518,0.484,0.504,0.931,0.489c0.114-0.004,0.213-0.008,0.277-0.003c0.112,0.01,0.444,0.003,0.82-0.004
	c0.649-0.01,1.43-0.024,1.448,0.049c-0.294,0.124-0.532,0.313-0.719,0.571c0.419,0.209,0.681-0.002,0.937-0.214
	c0.213-0.175,0.423-0.351,0.714-0.286c-0.063,0.609-0.198,0.593,0.512,0.822c0.511,0.166,0.509-0.136,0.621-0.525
	c0.195-0.674-0.696-0.568-0.847-0.725c-0.044-0.441,0.626-0.208,0.501-0.716c-0.144-0.086-0.248-0.034-0.361,0.016
	c-0.085,0.038-0.173,0.075-0.284,0.058c0.012-0.35,0.559-0.766-0.098-0.914c-0.258-0.059-0.457-0.028-0.638,0.002
	c-0.293,0.05-0.539,0.101-0.912-0.232c0.953-0.276-0.578-0.303-0.644-0.288c0.257-0.364,0.971-1.151,1.001-1.497
	C57.572,29.016,57.545,31.417,56.835,31.952"/>
<path fill="#7ECEF4" d="M31.529,12.829c-0.265-0.083-0.723,0.225-0.932,0.071c0.364-0.137,0.675-0.351,0.932-0.643
	c-0.588,0.013-1.758,0.523-2.151,0.928c0.11-0.027,0.206-0.003,0.287,0.072c-0.361,0.103-1.216,0.52-1.434,0.785
	C28.858,14.424,31.58,14.021,31.529,12.829z"/>
<path fill="#7ECEF4" d="M57.191,9.472c-0.119-0.071-0.238-0.143-0.358-0.214c-0.047,0.071-0.095,0.143-0.143,0.214
	C56.858,9.582,57.025,9.582,57.191,9.472z"/>
<path fill="#7ECEF4" d="M55.257,8.188c0.126-0.319-0.381-0.257-0.359-0.071C55.101,8.056,55.084,8.216,55.257,8.188z"/>
<path fill="#7ECEF4" d="M32.604,10.258c0.656-0.085,1.137-0.343,1.578-0.643C33.59,9.765,33.021,9.936,32.604,10.258z"/>
<path fill="#7ECEF4" d="M30.956,15.399c-0.251,0.022-0.88-0.324-1.219-0.357c-0.223,0.209-0.915,0.747-1.003,0.999
	C29.537,15.948,30.415,16.176,30.956,15.399z"/>
<path fill="#7ECEF4" d="M38.642,7.601c0.075-0.026,0.13-0.046,0.161-0.063C38.741,7.546,38.688,7.569,38.642,7.601z"/>
<path fill="#7ECEF4" d="M32.675,10.615c0.389,0.229,1.656-0.503,1.506-0.572C33.703,10.279,33.096,10.25,32.675,10.615z"/>
<path fill="#7ECEF4" d="M32.102,13.043c1.063-0.476,2.239-1.08,3.154-1.928C34.535,10.817,31.253,11.911,32.102,13.043z"/>
<path fill="#7ECEF4" d="M32.031,10.544c-0.196-0.072-2.485,0.61-2.509,0.784C29.942,11.269,31.907,11.244,32.031,10.544z"/>
<path fill="#7ECEF4" d="M30.526,11.9c-0.117,0.074-0.213,0.17-0.288,0.285c0.604-0.057,1.683-0.527,1.792-1.212
	c-0.929-0.12-1.781,1.146-2.581,1.356C29.842,12.322,30.161,11.859,30.526,11.9z"/>
<linearGradient id="SVGID_2_" gradientUnits="userSpaceOnUse" x1="-1082.6426" y1="1186.5488" x2="-1082.5364" y2="1186.5488" gradientTransform="matrix(-193.3442 212.4245 187.8817 171.0118 -432173.5938 27085.623)">
	<stop  offset="0" style="stop-color:#FFFFFF"/>
	<stop  offset="1" style="stop-color:#006AB8"/>
</linearGradient>
<path fill="url(#SVGID_2_)" d="M85.173,27.621c-0.049,0.045-0.104,0.082-0.167,0.11c0.24,0.365,0.475,0.734,0.703,1.105
	C85.543,28.431,85.363,28.026,85.173,27.621 M70.813,13.685c-0.002,0.125,0.022,0.244,0.07,0.357
	c-0.123,0.002-0.241,0.016-0.354,0.034c2.603,1.508,5.087,3.312,7.405,5.413c2.041,1.852,3.862,3.852,5.467,5.971
	c0.153,0.063,0.286,0.149,0.457,0.15c-0.045-0.136-0.141-0.208-0.286-0.214c0.068-0.106,0.148-0.197,0.244-0.276
	c-1.434-2.34-3.293-4.6-5.544-6.642c-0.545-0.493-1.1-0.963-1.664-1.409c-1.005-0.304-2.015-0.683-2.211-0.742
	c0.019-0.157,0.092-0.236,0.222-0.236c0.04,0,0.086,0.007,0.137,0.022c-0.268-0.39-0.853-0.343-1.22-0.571
	c0.034-0.124,0.123-0.163,0.236-0.163c0.088,0,0.191,0.025,0.292,0.05c0.1,0.025,0.195,0.049,0.271,0.049
	c0.021,0,0.042-0.001,0.061-0.007c-0.172-0.111-0.345-0.223-0.518-0.331c-0.325-0.04-0.701-0.014-0.844-0.312
	c0.006-0.075,0.029-0.127,0.063-0.161c-0.535-0.314-1.074-0.608-1.615-0.881c-0.006,0.038-0.013,0.076-0.025,0.113
	C71.216,13.899,71.001,13.828,70.813,13.685"/>
<linearGradient id="SVGID_3_" gradientUnits="userSpaceOnUse" x1="-1082.6426" y1="1186.5547" x2="-1082.5355" y2="1186.5547" gradientTransform="matrix(-193.3442 212.4245 187.8817 171.0118 -432173.5938 27085.623)">
	<stop  offset="0" style="stop-color:#FFFFFF"/>
	<stop  offset="1" style="stop-color:#006CBA"/>
</linearGradient>
<path fill="url(#SVGID_3_)" d="M70.528,14.076c-0.508,0.083-0.95,0.287-1.461,0.287c-0.196,0-0.4-0.029-0.622-0.107
	c0.166,0.095,0.263,0.238,0.287,0.43c-0.026,0.014-0.054,0.025-0.082,0.035c2.922,1.587,5.701,3.545,8.271,5.876
	c4.386,3.976,7.742,8.655,10.056,13.71c0.066,0.021,0.134,0.04,0.201,0.062c-0.212-1.804-0.705-3.67-1.47-5.532
	c-0.229-0.371-0.463-0.74-0.703-1.105c-0.111,0.048-0.24,0.073-0.383,0.073c-0.458,0-1.028-0.256-1.339-0.767
	c0.041,0.007,0.077,0.01,0.109,0.01c0.648,0-0.434-1.324-0.252-1.652c0.097,0.005,0.18,0.032,0.259,0.064
	c-1.604-2.12-3.426-4.119-5.467-5.971C75.615,17.388,73.131,15.584,70.528,14.076"/>
<linearGradient id="SVGID_4_" gradientUnits="userSpaceOnUse" x1="-1082.6421" y1="1186.5342" x2="-1082.5352" y2="1186.5342" gradientTransform="matrix(-193.3442 212.4245 187.8817 171.0118 -432173.5938 27085.623)">
	<stop  offset="0" style="stop-color:#FFFFFF"/>
	<stop  offset="1" style="stop-color:#006EBB"/>
</linearGradient>
<path fill="url(#SVGID_4_)" d="M68.65,14.721c-0.087,0.033-0.178,0.049-0.271,0.049c-0.048,0-0.098-0.004-0.147-0.014
	c0.182,0.152,0.349,0.318,0.501,0.5c-0.106,0.061-0.217,0.092-0.332,0.092c-0.056,0-0.113-0.007-0.169-0.021
	c0.217,0.196,0.456,0.362,0.716,0.5c-0.109,0.328-0.265,0.453-0.44,0.506c2.606,1.484,5.092,3.272,7.404,5.369
	c4.044,3.666,7.197,7.944,9.447,12.563c0.139-0.096,0.338-0.137,0.573-0.137c0.311,0,0.678,0.071,1.046,0.177
	c-2.313-5.055-5.67-9.734-10.056-13.71C74.352,18.266,71.572,16.308,68.65,14.721 M57.308,11.596
	c-0.246,0.063-0.487,0.132-0.728,0.208c0.146,0.03,0.289,0.062,0.434,0.094C57.154,11.783,57.352,11.667,57.308,11.596"/>
<linearGradient id="SVGID_5_" gradientUnits="userSpaceOnUse" x1="-1082.6426" y1="1186.541" x2="-1082.5352" y2="1186.541" gradientTransform="matrix(-193.3442 212.4245 187.8817 171.0118 -432173.5938 27085.623)">
	<stop  offset="0" style="stop-color:#FFFFFF"/>
	<stop  offset="1" style="stop-color:#006FBD"/>
</linearGradient>
<path fill="url(#SVGID_5_)" d="M68.507,16.334c-0.153,0.045-0.321,0.04-0.491,0.064c0.153,0.068,0.225,0.187,0.216,0.357
	c-0.127,0.048-0.258,0.072-0.394,0.072c-0.012,0-0.025,0-0.037,0c0.303,0.614,0.807,0.46,0.603,1.162
	c2.278,1.363,4.455,2.969,6.496,4.819c5.644,5.116,9.519,11.446,11.588,18.229c0.178-0.482,0.328-0.98,0.446-1.491
	c-0.16,0.026-0.292,0.039-0.401,0.039c-0.963,0-0.07-0.978-0.953-1.479c0.142-0.354,0.252-1.35,0.186-1.708
	c-0.078-0.407-0.558-1.73-0.473-2.077c0.02-0.021,0.041-0.039,0.066-0.055c-2.25-4.62-5.403-8.897-9.447-12.563
	C73.599,19.606,71.113,17.818,68.507,16.334 M56.58,11.804c-0.804,0.254-1.568,0.581-2.283,0.983
	c0.967,0.164,1.93,0.363,2.885,0.597c-0.25-0.289-0.086-0.627,0.727-0.627c-0.229-0.242-0.811,0.008-1.075-0.285
	c0.078-0.039,0.154-0.082,0.229-0.124c-0.047,0.01-0.087,0.014-0.121,0.014c-0.154,0-0.175-0.104-0.058-0.311
	c0.014-0.048,0.066-0.101,0.13-0.153C56.869,11.866,56.726,11.834,56.58,11.804"/>
<linearGradient id="SVGID_6_" gradientUnits="userSpaceOnUse" x1="-1082.6426" y1="1186.541" x2="-1082.5353" y2="1186.541" gradientTransform="matrix(-193.3442 212.4245 187.8817 171.0118 -432173.5938 27085.623)">
	<stop  offset="0" style="stop-color:#FFFFFF"/>
	<stop  offset="1" style="stop-color:#0071BF"/>
</linearGradient>
<path fill="url(#SVGID_6_)" d="M68.403,17.99c-0.007,0.029-0.018,0.06-0.028,0.091c-0.243,0.72,0.088,0.529,0.215,0.888
	c-0.168,0.19-0.266,0.296-0.321,0.352c-0.034,0.027-0.058,0.053-0.056,0.053s0.019-0.014,0.056-0.053
	c0.032-0.026,0.076-0.053,0.108-0.053c0.055,0,0.082,0.073-0.002,0.344c-0.038,0.015-0.075,0.025-0.113,0.035
	c1.965,1.234,3.85,2.658,5.627,4.27c5.849,5.302,9.759,11.934,11.689,19.012c0.361-0.599,0.663-1.23,0.909-1.89
	c-2.069-6.782-5.944-13.112-11.588-18.229C72.858,20.959,70.682,19.353,68.403,17.99 M54.297,12.788
	c-0.589,0.329-1.145,0.708-1.663,1.137c2.109,0.301,4.199,0.77,6.253,1.407c-0.104-0.094-0.239-0.229-0.345-0.365
	c-0.195-0.25-0.287-0.497,0.118-0.497c0.012,0,0.024,0,0.037,0.001c-0.532-0.115-0.718-0.174-0.718-0.714
	c-0.372-0.058-0.653-0.207-0.798-0.373C56.227,13.15,55.264,12.952,54.297,12.788"/>
<linearGradient id="SVGID_7_" gradientUnits="userSpaceOnUse" x1="-1082.6421" y1="1186.541" x2="-1082.5355" y2="1186.541" gradientTransform="matrix(-193.3442 212.4245 187.8817 171.0118 -432173.5938 27085.623)">
	<stop  offset="0" style="stop-color:#FFFFFF"/>
	<stop  offset="1" style="stop-color:#0073C0"/>
</linearGradient>
<path fill="url(#SVGID_7_)" d="M64.934,18.541c-0.067,0.006,0.01,0.374-0.303,0.374c-0.036,0-0.08-0.005-0.128-0.017
	c-0.063-0.113-0.041-0.208,0.072-0.286c-0.331,0.079-0.639,0.133-0.958,0.149c3.293,1.597,6.415,3.682,9.26,6.262
	c5.935,5.378,9.831,12.154,11.649,19.365c0.394-0.462,0.743-0.948,1.052-1.46c-1.931-7.078-5.841-13.71-11.689-19.012
	c-1.777-1.612-3.662-3.036-5.627-4.27c-0.113,0.026-0.225,0.035-0.336,0.035c-0.068,0-0.139-0.003-0.208-0.006
	c-0.071-0.004-0.143-0.007-0.215-0.007c-0.161,0-0.325,0.017-0.49,0.086c-0.459-0.218-1.088,0.006-0.646-0.498
	c-0.357-0.079-0.716-0.151-1.075-0.215c0.094-0.177,0.237-0.296,0.431-0.356C65.708,18.604,64.993,18.547,64.934,18.541
	 M63.044,18.489c0.078,0.036,0.156,0.073,0.233,0.109c0.046-0.063-0.017-0.099-0.182-0.103
	C63.077,18.495,63.061,18.492,63.044,18.489 M62.288,18.148c0.2,0.087,0.399,0.177,0.596,0.268c-0.056-0.053-0.09-0.13-0.102-0.233
	C62.717,18.176,62.51,18.169,62.288,18.148 M61.708,17.685l-0.024,0.023C61.699,17.706,61.708,17.701,61.708,17.685 M52.634,13.925
	c-0.091,0.075-0.18,0.151-0.267,0.229c0.007,0.01,0.015,0.021,0.021,0.031c-0.066,0.087-0.145,0.141-0.233,0.163
	c-0.023,0.021-0.044,0.041-0.067,0.062c0.059,0.012,0.118,0.018,0.179,0.018c0.259,0,0.541-0.089,0.768-0.099
	c0.291,0.37,0.363,0.12,0.954,0.326c0.678,0.237,0.338,0.607-0.143,0.607c-0.031,0-0.062-0.001-0.093-0.004
	c-0.183,0.087,0.042,0.174,0.06,0.267c2.647,0.5,5.253,1.275,7.775,2.325c0.01-0.041,0.04-0.088,0.097-0.14
	c-0.082,0-0.336-0.172-0.372-0.233c-0.253-0.417-0.317-0.248-0.895-0.433c-0.071-0.521-0.408-0.483-0.286-0.929
	c-0.081-0.126-0.617-0.122-0.744-0.212c-0.364-0.259-0.231-0.077-0.352-0.438l0,0c-0.002,0-0.064-0.051-0.148-0.131
	C56.833,14.694,54.743,14.226,52.634,13.925"/>
<linearGradient id="SVGID_8_" gradientUnits="userSpaceOnUse" x1="-1082.6431" y1="1186.541" x2="-1082.5354" y2="1186.541" gradientTransform="matrix(-193.3442 212.4245 187.8817 171.0118 -432173.5938 27085.623)">
	<stop  offset="0" style="stop-color:#FFFFFF"/>
	<stop  offset="1" style="stop-color:#0075C2"/>
</linearGradient>
<path fill="url(#SVGID_8_)" d="M51.086,15.5c-0.22,0.274-0.425,0.557-0.617,0.851c0.044,0.025,0.087,0.049,0.13,0.074
	c7.664,0.917,15.124,4.134,21.266,9.705c5.933,5.377,9.788,12.18,11.52,19.406c0.317-0.276,0.62-0.569,0.907-0.884
	c0.08-0.086,0.156-0.175,0.234-0.263c-1.818-7.211-5.715-13.987-11.649-19.365c-2.845-2.58-5.967-4.665-9.26-6.262
	c-0.072,0.004-0.147,0.007-0.222,0.007c-0.106,0-0.215-0.004-0.326-0.013c0.111-0.064,0.18-0.116,0.208-0.156
	c-0.077-0.036-0.155-0.074-0.233-0.109c-0.064-0.012-0.117-0.036-0.16-0.073c-0.196-0.091-0.396-0.181-0.596-0.268
	c-0.352-0.036-0.744-0.112-0.701-0.3c-2.522-1.05-5.128-1.824-7.775-2.325c0.007,0.03-0.008,0.06-0.06,0.09
	c-0.013,0-0.025,0-0.036,0c-0.295,0-0.684,0.118-0.97,0.143c-0.201,0.165,0.149,0.428,0.073,0.643c-0.015,0-0.026,0-0.038,0
	c-0.528,0-0.972-0.339-1.408-0.679C51.277,15.645,51.183,15.57,51.086,15.5"/>
<linearGradient id="SVGID_9_" gradientUnits="userSpaceOnUse" x1="-1082.6426" y1="1186.541" x2="-1082.5355" y2="1186.541" gradientTransform="matrix(-193.3442 212.4245 187.8817 171.0118 -432173.5938 27085.623)">
	<stop  offset="0" style="stop-color:#FFFFFF"/>
	<stop  offset="1" style="stop-color:#0077C3"/>
</linearGradient>
<path fill="url(#SVGID_9_)" d="M51.743,17.97c0.002,0.002,0.004,0.004,0.006,0.008c0.004,0.001,0.009,0.001,0.013,0.002
	C51.755,17.976,51.749,17.973,51.743,17.97 M50.6,16.424c0.406,0.227,0.786,0.404,0.927,0.404h0.002
	c-0.008,0.103-0.055,0.153-0.141,0.153c-0.021,0-0.047-0.003-0.073-0.011c0.313,0.413,0.843,0.395,0.72,1.058
	c6.794,1.185,13.342,4.241,18.82,9.208c5.864,5.316,9.655,12.053,11.327,19.204c0.421-0.273,0.822-0.574,1.203-0.904
	c-1.731-7.226-5.587-14.029-11.52-19.406C65.724,20.558,58.264,17.341,50.6,16.424"/>
<linearGradient id="SVGID_10_" gradientUnits="userSpaceOnUse" x1="-1082.6416" y1="1186.541" x2="-1082.5365" y2="1186.541" gradientTransform="matrix(-193.3442 212.4245 187.8817 171.0118 -432173.5938 27085.623)">
	<stop  offset="0" style="stop-color:#FFFFFF"/>
	<stop  offset="1" style="stop-color:#0078C5"/>
</linearGradient>
<path fill="url(#SVGID_10_)" d="M49.608,17.943c-0.032,0.072-0.063,0.146-0.094,0.22c0.562,0.252,1.188,0.455,1.285,1.063
	c6.873,1.077,13.515,4.103,19.045,9.116c5.739,5.206,9.451,11.801,11.087,18.804c0.433-0.212,0.851-0.446,1.251-0.706
	c-1.672-7.151-5.463-13.888-11.327-19.204c-5.479-4.968-12.026-8.024-18.82-9.208c-0.001,0.004-0.002,0.009-0.004,0.014
	c-0.012,0-0.024,0.001-0.037,0.001c-0.083,0-0.16-0.022-0.231-0.063c-0.004-0.001-0.009-0.001-0.013-0.002
	c0.049,0.092,0.022,0.676-0.006,0.777c-0.48-0.008-0.845-0.446-1.329-0.557C50.14,18.136,49.874,18.043,49.608,17.943"/>
<linearGradient id="SVGID_11_" gradientUnits="userSpaceOnUse" x1="-1082.6421" y1="1186.541" x2="-1082.5359" y2="1186.541" gradientTransform="matrix(-193.3442 212.4245 187.8817 171.0118 -432173.5938 27085.623)">
	<stop  offset="0" style="stop-color:#FFFFFF"/>
	<stop  offset="1" style="stop-color:#007AC6"/>
</linearGradient>
<path fill="url(#SVGID_11_)" d="M49.195,19.021c-0.141,0.431-0.258,0.872-0.353,1.322c7.203,0.854,14.218,3.872,19.991,9.106
	c5.571,5.05,9.189,11.442,10.809,18.232c0.442-0.155,0.874-0.335,1.289-0.536c-1.636-7.002-5.348-13.598-11.087-18.804
	c-5.53-5.013-12.173-8.039-19.045-9.116c0.009,0.054,0.013,0.111,0.013,0.172C50.254,19.355,49.734,19.133,49.195,19.021"/>
<linearGradient id="SVGID_12_" gradientUnits="userSpaceOnUse" x1="-1082.6426" y1="1186.541" x2="-1082.5359" y2="1186.541" gradientTransform="matrix(-193.3442 212.4245 187.8817 171.0118 -432173.5938 27085.623)">
	<stop  offset="0" style="stop-color:#FFFFFF"/>
	<stop  offset="1" style="stop-color:#007CC8"/>
</linearGradient>
<path fill="url(#SVGID_12_)" d="M48.842,20.343c-0.093,0.441-0.165,0.893-0.213,1.353c0.682,0.087,1.363,0.195,2.04,0.323
	c0.224-0.169,0.387-0.318,0.405-0.388c0.134-0.492,0.381-0.674,0.665-0.674c0.712,0,1.638,1.147,1.477,1.443
	c-0.032,0.059-0.006,0.133,0.054,0.211c5.251,1.406,10.254,4.047,14.553,7.944c5.362,4.862,8.872,10.995,10.493,17.515
	c0.452-0.108,0.896-0.237,1.326-0.389c-1.619-6.79-5.237-13.182-10.809-18.232C63.061,24.214,56.045,21.196,48.842,20.343"/>
<linearGradient id="SVGID_13_" gradientUnits="userSpaceOnUse" x1="-1082.6421" y1="1186.541" x2="-1082.5358" y2="1186.541" gradientTransform="matrix(-193.3442 212.4245 187.8817 171.0118 -432173.5938 27085.623)">
	<stop  offset="0" style="stop-color:#FFFFFF"/>
	<stop  offset="1" style="stop-color:#007DC9"/>
</linearGradient>
<path fill="url(#SVGID_13_)" d="M53.27,22.61c0.142,0.185,0.465,0.39,0.589,0.465c0.772,0.471,0.001,0.323,0.036,0.535
	c0.724,0.231,0.637,0.685,0.357,0.778c4.522,1.458,8.813,3.878,12.558,7.274c5.119,4.638,8.51,10.46,10.14,16.665
	c0.465-0.065,0.921-0.15,1.366-0.257c-1.621-6.521-5.131-12.653-10.493-17.515C63.523,26.658,58.521,24.017,53.27,22.61
	 M48.629,21.695c-0.022,0.207-0.04,0.417-0.054,0.627c0.034-0.008,0.068-0.013,0.101-0.013c0.139,0,0.269,0.088,0.421,0.415
	c0.018,0.039,0.06,0.056,0.119,0.056c0.289,0,0.999-0.42,1.454-0.761C49.992,21.891,49.311,21.782,48.629,21.695"/>
<linearGradient id="SVGID_14_" gradientUnits="userSpaceOnUse" x1="-1082.6411" y1="1186.5508" x2="-1082.5364" y2="1186.5508" gradientTransform="matrix(-193.3442 212.4245 187.8817 171.0118 -432173.5938 27085.623)">
	<stop  offset="0" style="stop-color:#FFFFFF"/>
	<stop  offset="1" style="stop-color:#007FCB"/>
</linearGradient>
<path fill="url(#SVGID_14_)" d="M53.822,24.253c-0.086,0.518,0.744,0.507,1.009,0.709c0.524,0.403,0.257,0.609,0.354,0.861
	c0.076-0.032,0.193-0.047,0.336-0.047c0.694,0,1.993,0.352,2.172,0.689c-0.173,0.146-0.363,0.265-0.573,0.358
	c0.063-0.012,0.119-0.015,0.17-0.015c0.555,0,0.518,0.548,0.69,0.585c0.188-0.099,0.335-0.139,0.453-0.139
	c0.334,0,0.432,0.33,0.48,0.678c2.436,1.29,4.752,2.9,6.886,4.835c4.837,4.384,8.096,9.851,9.745,15.691
	c0.477-0.024,0.945-0.068,1.405-0.133c-1.63-6.205-5.021-12.027-10.14-16.665c-3.744-3.396-8.035-5.815-12.558-7.274
	c-0.034,0.01-0.069,0.016-0.107,0.016C54.043,24.404,53.929,24.36,53.822,24.253"/>
<linearGradient id="SVGID_15_" gradientUnits="userSpaceOnUse" x1="-1082.6421" y1="1186.5605" x2="-1082.5359" y2="1186.5605" gradientTransform="matrix(-193.3442 212.4245 187.8817 171.0118 -432173.5938 27085.623)">
	<stop  offset="0" style="stop-color:#FFFFFF"/>
	<stop  offset="1" style="stop-color:#0081CC"/>
</linearGradient>
<path fill="url(#SVGID_15_)" d="M58.913,27.934c0.035,0.258,0.047,0.526,0.106,0.675c0.123,0.307-0.071,0.651-0.4,0.846
	c0.021,0.011,0.04,0.022,0.059,0.033c0.079-0.017,0.162-0.024,0.25-0.024c0.147,0,0.308,0.023,0.485,0.074
	c-0.008,0.08-0.051,0.186-0.118,0.303c1.931,1.13,3.772,2.474,5.494,4.035c4.521,4.1,7.631,9.168,9.299,14.598
	c0.194,0.006,0.388,0.009,0.58,0.009c0.295,0,0.586-0.006,0.876-0.021c-1.649-5.84-4.908-11.307-9.745-15.691
	C63.665,30.834,61.349,29.224,58.913,27.934"/>
<linearGradient id="SVGID_16_" gradientUnits="userSpaceOnUse" x1="-1082.6416" y1="1186.5586" x2="-1082.5356" y2="1186.5586" gradientTransform="matrix(-193.3442 212.4245 187.8817 171.0118 -432173.5938 27085.623)">
	<stop  offset="0" style="stop-color:#FFFFFF"/>
	<stop  offset="1" style="stop-color:#0082CE"/>
</linearGradient>
<path fill="url(#SVGID_16_)" d="M59.295,29.84c-0.22,0.387-0.688,0.915-0.883,1.194c0.009-0.001,0.045-0.003,0.099-0.003
	c0.338,0,1.368,0.053,0.545,0.292c0.238,0.212,0.424,0.27,0.604,0.27c0.103,0,0.203-0.021,0.308-0.038
	c0.106-0.018,0.22-0.037,0.346-0.037c0.09,0,0.186,0.01,0.292,0.034c0.656,0.148,0.109,0.563,0.098,0.914
	c0.021,0.002,0.04,0.004,0.06,0.004c0.084,0,0.155-0.031,0.225-0.062c0.069-0.031,0.135-0.061,0.208-0.061
	c0.047,0,0.098,0.012,0.153,0.045c0.068,0.279-0.103,0.334-0.262,0.4c0.924,0.673,1.824,1.403,2.69,2.188
	c4.172,3.784,7.111,8.412,8.796,13.384c0.51,0.056,1.016,0.093,1.515,0.108c-1.668-5.43-4.778-10.498-9.299-14.598
	C63.067,32.313,61.226,30.97,59.295,29.84 M58.619,29.455c-0.144,0.085-0.313,0.142-0.495,0.153
	c-0.43,0.042-0.859,0.066-1.291,0.072c-0.099,0.111-0.195,0.23-0.296,0.346c0.352,0.176,0.702,0.359,1.051,0.548
	c0.239-0.507,0.547-0.976,1.09-1.086C58.659,29.478,58.64,29.466,58.619,29.455"/>
<linearGradient id="SVGID_17_" gradientUnits="userSpaceOnUse" x1="-1082.6401" y1="1186.5547" x2="-1082.5361" y2="1186.5547" gradientTransform="matrix(-193.3442 212.4245 187.8817 171.0118 -432173.5938 27085.623)">
	<stop  offset="0" style="stop-color:#FFFFFF"/>
	<stop  offset="1" style="stop-color:#0084CF"/>
</linearGradient>
<path fill="url(#SVGID_17_)" d="M59.381,33.416c0.048,0.033,0.093,0.063,0.142,0.098c0.034-0.019,0.069-0.034,0.107-0.049
	C59.625,33.44,59.528,33.424,59.381,33.416 M61.087,32.792c-0.133,0.054-0.259,0.115-0.239,0.315c0.15,0.157,1.042,0.05,0.847,0.725
	c-0.091,0.315-0.105,0.572-0.379,0.572c-0.065,0-0.144-0.016-0.242-0.047c-0.71-0.229-0.575-0.212-0.512-0.822
	c-0.042-0.01-0.085-0.013-0.123-0.013c-0.208,0-0.373,0.123-0.539,0.257c0.988,0.704,1.945,1.475,2.865,2.309
	c3.782,3.429,6.528,7.572,8.214,12.033c0.537,0.102,1.067,0.182,1.595,0.243c-1.685-4.972-4.624-9.6-8.796-13.384
	C62.911,34.195,62.011,33.465,61.087,32.792 M56.537,30.026c-0.217,0.25-0.454,0.484-0.779,0.583
	c-0.326,0.095-0.673,0.151-1.031,0.181c0.737,0.336,1.465,0.703,2.181,1.1c0.269-0.266,0.44-0.811,0.681-1.315
	C57.239,30.386,56.889,30.202,56.537,30.026"/>
<linearGradient id="SVGID_18_" gradientUnits="userSpaceOnUse" x1="-1082.6431" y1="1186.5449" x2="-1082.5354" y2="1186.5449" gradientTransform="matrix(-193.3442 212.4245 187.8817 171.0118 -432173.5938 27085.623)">
	<stop  offset="0" style="stop-color:#FFFFFF"/>
	<stop  offset="1" style="stop-color:#0085D0"/>
</linearGradient>
<path fill="url(#SVGID_18_)" d="M58.927,33.407c-0.235,0-0.499,0.004-0.745,0.008c-0.241,0.005-0.466,0.009-0.622,0.009
	c-0.09,0-0.158-0.002-0.198-0.005c-0.021-0.001-0.047-0.002-0.075-0.002c-0.057,0-0.126,0.003-0.202,0.005
	c-0.074,0.003-0.153,0.004-0.236,0.004s-0.169-0.001-0.25-0.01c1.813,1.056,3.541,2.313,5.157,3.778
	c3.347,3.035,5.859,6.641,7.522,10.535c0.571,0.154,1.138,0.285,1.701,0.392c-1.686-4.461-4.432-8.604-8.214-12.033
	c-0.92-0.834-1.877-1.605-2.865-2.309c-0.018,0.013-0.034,0.027-0.052,0.042c-0.181,0.151-0.364,0.3-0.605,0.3
	c-0.1,0-0.208-0.025-0.331-0.086c0.162-0.226,0.365-0.399,0.611-0.521c-0.049-0.034-0.094-0.065-0.142-0.098
	C59.26,33.409,59.102,33.407,58.927,33.407 M50.483,30.668c-0.038,0-0.074,0.003-0.109,0.008c1.975,0.617,3.901,1.439,5.747,2.469
	c-0.01-0.057,0-0.127,0.032-0.211c0.138-0.231,0.34-0.362,0.607-0.398c-0.157-0.219-0.132-0.414,0.074-0.583
	c0.025-0.02,0.049-0.04,0.072-0.063c-0.716-0.397-1.443-0.764-2.181-1.1c-0.225,0.017-0.452,0.025-0.683,0.025
	c-0.495,0-1.005-0.033-1.507-0.067c-0.505-0.033-1.003-0.068-1.476-0.068c-0.129,0-0.256,0.003-0.382,0.009
	C50.61,30.675,50.544,30.668,50.483,30.668"/>
<linearGradient id="SVGID_19_" gradientUnits="userSpaceOnUse" x1="-1082.6411" y1="1186.542" x2="-1082.536" y2="1186.542" gradientTransform="matrix(-193.3442 212.4245 187.8817 171.0118 -432173.5938 27085.623)">
	<stop  offset="0" style="stop-color:#FFFFFF"/>
	<stop  offset="1" style="stop-color:#0087D2"/>
</linearGradient>
<path fill="url(#SVGID_19_)" d="M50.375,30.676c-0.095,0.015-0.177,0.047-0.246,0.099c0.128,0.313,0.263,0.625,0.406,0.935
	c0.202-0.045,0.411-0.077,0.616-0.077c0.313,0,0.614,0.076,0.85,0.29c0.395,0.356,0.155,0.615-0.233,0.775
	c1.006,0.401,1.996,0.859,2.966,1.373c0.019-0.023,0.037-0.046,0.059-0.073c0.179-0.221,0.302-0.307,0.387-0.307
	c0.19,0,0.182,0.433,0.164,0.713c1.902,1.071,3.717,2.37,5.401,3.898c2.851,2.583,5.079,5.594,6.677,8.843
	c0.621,0.223,1.241,0.417,1.857,0.584c-1.663-3.894-4.176-7.5-7.522-10.535c-1.616-1.465-3.345-2.722-5.157-3.778
	c-0.243-0.022-0.45-0.09-0.477-0.272C54.275,32.115,52.35,31.293,50.375,30.676"/>
<linearGradient id="SVGID_20_" gradientUnits="userSpaceOnUse" x1="-1082.6421" y1="1186.543" x2="-1082.5356" y2="1186.543" gradientTransform="matrix(-193.3442 212.4245 187.8817 171.0118 -432173.5938 27085.623)">
	<stop  offset="0" style="stop-color:#FFFFFF"/>
	<stop  offset="1" style="stop-color:#0089D4"/>
</linearGradient>
<path fill="url(#SVGID_20_)" d="M55.342,34.404c-0.006,0.087-0.013,0.161-0.014,0.202c0.056-0.006,0.104-0.01,0.149-0.01
	c0.351,0,0.395,0.188,0.26,0.376c-0.136,0.187-0.45,0.375-0.817,0.375c-0.078,0-0.156-0.009-0.237-0.026
	c-0.063,0.272,0.31,0.127,0.216,0.428c-0.047,0.009-0.093,0.019-0.141,0.027c1.748,1.011,3.418,2.222,4.975,3.631
	c2.26,2.049,4.117,4.374,5.57,6.875c0.704,0.323,1.412,0.611,2.117,0.863c-1.598-3.25-3.826-6.26-6.677-8.843
	C59.059,36.774,57.244,35.475,55.342,34.404 M51.767,32.698c-0.203,0.084-0.447,0.142-0.663,0.172
	c0.016,0.03,0.03,0.058,0.046,0.087c0.3,0.05,0.632,0.116,0.666,0.15c-0.081,0.188-0.178,0.369-0.29,0.541
	c0.133,0.232,0.27,0.467,0.409,0.7c0.494,0.217,0.984,0.448,1.468,0.694c0.022,0,0.046-0.002,0.068-0.003
	c0.117-0.006,0.235-0.012,0.352-0.012c0.195,0,0.387,0.018,0.573,0.079c0.005-0.466,0.03-0.642,0.337-1.034
	C53.763,33.557,52.772,33.099,51.767,32.698"/>
<linearGradient id="SVGID_21_" gradientUnits="userSpaceOnUse" x1="-1082.6465" y1="1186.542" x2="-1082.5356" y2="1186.542" gradientTransform="matrix(-193.3442 212.4245 187.8817 171.0118 -432173.5938 27085.623)">
	<stop  offset="0" style="stop-color:#FFFFFF"/>
	<stop  offset="1" style="stop-color:#008AD5"/>
</linearGradient>
<path fill="url(#SVGID_21_)" d="M54.758,35.776c-0.475,0.094-1.072,0.205-1.631,0.384c0.161,0.226,0.326,0.451,0.494,0.674
	c1.797,1.011,3.509,2.238,5.101,3.681c1.482,1.346,2.788,2.811,3.914,4.37c0.881,0.522,1.771,0.988,2.667,1.397
	c-1.453-2.501-3.311-4.826-5.57-6.875C58.176,37.998,56.506,36.787,54.758,35.776 M51.935,34.348c0.037,0.06,0.073,0.121,0.11,0.181
	c0.033,0.032,0.067,0.055,0.101,0.068c0.342,0.139,0.466,0.111,0.674,0.438c0.097,0.013,0.195,0.017,0.293,0.017
	c0.097,0,0.192-0.003,0.29-0.009C52.919,34.796,52.429,34.565,51.935,34.348"/>
<linearGradient id="SVGID_22_" gradientUnits="userSpaceOnUse" x1="-1082.6411" y1="1186.541" x2="-1082.5359" y2="1186.541" gradientTransform="matrix(-193.3442 212.4245 187.8817 171.0118 -432173.5938 27085.623)">
	<stop  offset="0" style="stop-color:#FFFFFF"/>
	<stop  offset="1" style="stop-color:#008CD6"/>
</linearGradient>
<path fill="url(#SVGID_22_)" d="M53.621,36.834c0.651,0.862,1.364,1.705,2.134,2.522c0.793,0.579,1.563,1.204,2.308,1.879
	c0.642,0.583,1.249,1.187,1.824,1.813c0.897,0.674,1.817,1.288,2.749,1.836c-1.126-1.559-2.432-3.024-3.914-4.37
	C57.13,39.072,55.418,37.846,53.621,36.834"/>
<linearGradient id="SVGID_23_" gradientUnits="userSpaceOnUse" x1="-1082.6729" y1="1186.542" x2="-1082.5356" y2="1186.542" gradientTransform="matrix(-193.3442 212.4245 187.8817 171.0118 -432173.5938 27085.623)">
	<stop  offset="0" style="stop-color:#FFFFFF"/>
	<stop  offset="1" style="stop-color:#008DD7"/>
</linearGradient>
<path fill="url(#SVGID_23_)" d="M55.755,39.357c0.571,0.609,1.176,1.203,1.812,1.779c0.755,0.684,1.529,1.322,2.32,1.912
	c-0.575-0.625-1.183-1.23-1.824-1.813C57.318,40.561,56.548,39.936,55.755,39.357"/>
<linearGradient id="SVGID_24_" gradientUnits="userSpaceOnUse" x1="-1082.6426" y1="1186.4922" x2="-1082.5353" y2="1186.4922" gradientTransform="matrix(-193.3442 212.4245 187.8817 171.0118 -432173.5938 27085.623)">
	<stop  offset="0" style="stop-color:#FFFFFF"/>
	<stop  offset="1" style="stop-color:#7DCDF4"/>
</linearGradient>
<path fill="url(#SVGID_24_)" d="M55.178,33.691c-0.085,0-0.208,0.086-0.387,0.307c-0.021,0.027-0.04,0.05-0.059,0.073
	c-0.307,0.392-0.332,0.568-0.337,1.034c-0.187-0.061-0.378-0.079-0.573-0.079c-0.116,0-0.234,0.006-0.352,0.012
	c-0.022,0-0.046,0.003-0.068,0.003c-0.098,0.006-0.193,0.009-0.29,0.009c-0.098,0-0.196-0.003-0.293-0.017
	c-0.208-0.326-0.332-0.298-0.674-0.438c-0.033-0.013-0.067-0.037-0.101-0.068c0.337,0.55,0.697,1.093,1.082,1.632
	c0.559-0.179,1.156-0.291,1.631-0.384c0.048-0.009,0.094-0.018,0.141-0.027c0.094-0.301-0.278-0.155-0.216-0.428
	c0.081,0.017,0.159,0.026,0.237,0.026c0.367,0,0.682-0.188,0.817-0.375c0.135-0.188,0.091-0.376-0.26-0.376
	c-0.045,0-0.094,0.004-0.149,0.01c0.001-0.041,0.008-0.114,0.014-0.202C55.359,34.124,55.368,33.691,55.178,33.691 M51.149,32.958
	c0.121,0.231,0.246,0.461,0.376,0.691c0.112-0.172,0.209-0.353,0.29-0.541C51.781,33.074,51.449,33.008,51.149,32.958 M51.15,31.633
	c-0.205,0-0.414,0.032-0.616,0.077c0.179,0.388,0.368,0.774,0.569,1.161c0.216-0.03,0.46-0.088,0.663-0.172
	c0.389-0.16,0.628-0.419,0.233-0.775C51.765,31.708,51.464,31.633,51.15,31.633 M55.543,27.539c-0.059-0.262,0.12-0.29,0.313-0.302
	C55.659,27.345,55.523,27.454,55.543,27.539 M51.739,20.956c-0.284,0-0.531,0.183-0.665,0.674c-0.019,0.07-0.181,0.219-0.405,0.388
	c-0.455,0.341-1.165,0.761-1.454,0.761c-0.059,0-0.101-0.017-0.119-0.056c-0.152-0.326-0.282-0.415-0.421-0.415
	c-0.033,0-0.066,0.005-0.101,0.013c-0.169,2.664,0.367,5.563,1.553,8.453c0.069-0.052,0.151-0.084,0.246-0.099
	c0.035-0.005,0.071-0.008,0.109-0.008c0.061,0,0.127,0.006,0.196,0.02c0.125-0.005,0.252-0.009,0.382-0.009
	c0.473,0,0.971,0.035,1.476,0.068c0.502,0.034,1.012,0.067,1.507,0.067c0.23,0,0.458-0.008,0.683-0.025
	c0.358-0.029,0.705-0.085,1.031-0.181c0.325-0.098,0.563-0.332,0.779-0.583c0.101-0.116,0.197-0.235,0.296-0.346
	c0.432-0.005,0.861-0.029,1.291-0.072c0.182-0.012,0.352-0.068,0.495-0.153c0.329-0.195,0.523-0.539,0.4-0.846
	c-0.06-0.148-0.071-0.417-0.106-0.675c-0.049-0.348-0.146-0.678-0.48-0.678c-0.118,0-0.266,0.04-0.453,0.139
	c-0.173-0.038-0.136-0.585-0.69-0.585c-0.051,0-0.107,0.003-0.17,0.015c0.21-0.093,0.4-0.212,0.573-0.358
	c-0.179-0.337-1.478-0.689-2.172-0.689c-0.143,0-0.26,0.015-0.336,0.047c-0.097-0.252,0.171-0.458-0.354-0.861
	c-0.265-0.202-1.095-0.192-1.009-0.709c0.106,0.107,0.221,0.151,0.322,0.151c0.038,0,0.073-0.006,0.107-0.016
	c0.279-0.093,0.366-0.547-0.357-0.778c-0.035-0.212,0.736-0.063-0.036-0.535C53.734,23,53.411,22.795,53.27,22.61
	c-0.06-0.078-0.086-0.152-0.054-0.211C53.377,22.104,52.451,20.956,51.739,20.956"/>
<linearGradient id="SVGID_25_" gradientUnits="userSpaceOnUse" x1="-1082.6426" y1="1186.498" x2="-1082.5354" y2="1186.498" gradientTransform="matrix(-193.3442 212.4245 187.8817 171.0118 -432173.5938 27085.623)">
	<stop  offset="0" style="stop-color:#FFFFFF"/>
	<stop  offset="1" style="stop-color:#7DCDF4"/>
</linearGradient>
<path fill="url(#SVGID_25_)" d="M55.855,27.237c-0.192,0.012-0.371,0.04-0.313,0.302C55.523,27.454,55.659,27.345,55.855,27.237"/>
<linearGradient id="SVGID_26_" gradientUnits="userSpaceOnUse" x1="-1082.6426" y1="1186.6133" x2="-1082.5365" y2="1186.6133" gradientTransform="matrix(-193.3442 212.4245 187.8817 171.0118 -432173.5938 27085.623)">
	<stop  offset="0" style="stop-color:#FFFFFF"/>
	<stop  offset="1" style="stop-color:#7DCDF4"/>
</linearGradient>
<path fill="url(#SVGID_26_)" d="M85.932,34.13c-0.235,0-0.435,0.042-0.573,0.137c-0.025,0.016-0.047,0.034-0.066,0.055
	c-0.085,0.347,0.395,1.67,0.473,2.077c0.066,0.358-0.044,1.353-0.186,1.708c0.883,0.502-0.01,1.479,0.953,1.479
	c0.109,0,0.241-0.013,0.401-0.039c0.378-1.619,0.454-3.368,0.245-5.178c-0.067-0.022-0.135-0.042-0.201-0.062
	C86.609,34.201,86.242,34.13,85.932,34.13"/>
<linearGradient id="SVGID_27_" gradientUnits="userSpaceOnUse" x1="-1082.6421" y1="1186.5791" x2="-1082.5424" y2="1186.5791" gradientTransform="matrix(-193.3442 212.4245 187.8817 171.0118 -432173.5938 27085.623)">
	<stop  offset="0" style="stop-color:#FFFFFF"/>
	<stop  offset="1" style="stop-color:#7DCDF4"/>
</linearGradient>
<path fill="url(#SVGID_27_)" d="M83.815,25.12c-0.096,0.079-0.176,0.17-0.244,0.276c0.146,0.006,0.241,0.079,0.286,0.214
	c-0.171-0.001-0.304-0.087-0.457-0.15c-0.079-0.033-0.162-0.059-0.259-0.064c-0.182,0.328,0.9,1.652,0.252,1.652
	c-0.032,0-0.068-0.002-0.109-0.01c0.311,0.511,0.881,0.767,1.339,0.767c0.143,0,0.271-0.024,0.383-0.073
	c0.063-0.028,0.118-0.065,0.167-0.11C84.773,26.782,84.321,25.946,83.815,25.12"/>
<linearGradient id="SVGID_28_" gradientUnits="userSpaceOnUse" x1="-1082.6426" y1="1186.4883" x2="-1082.536" y2="1186.4883" gradientTransform="matrix(-193.3442 212.4245 187.8817 171.0118 -432173.5938 27085.623)">
	<stop  offset="0" style="stop-color:#FFFFFF"/>
	<stop  offset="1" style="stop-color:#7DCDF4"/>
</linearGradient>
<path fill="url(#SVGID_28_)" d="M61.684,17.708l0.024-0.023C61.708,17.701,61.699,17.706,61.684,17.708 M58.195,11.687
	c-0.191-0.006-0.061-0.027,0.109-0.053c0.094-0.004,0.198-0.005,0.271-0.006C58.43,11.663,58.188,11.685,58.195,11.687
	 M58.456,11.609c0.123-0.02,0.224-0.043,0.184-0.062c0.073,0.024,0.05,0.046-0.015,0.066c-0.044-0.004-0.089-0.005-0.132-0.005
	C58.48,11.609,58.467,11.609,58.456,11.609 M61.169,11.131c-1.347,0-2.644,0.154-3.861,0.465c0.044,0.071-0.153,0.187-0.294,0.302
	c-0.063,0.052-0.116,0.104-0.13,0.153c-0.117,0.207-0.097,0.311,0.058,0.311c0.034,0,0.074-0.004,0.121-0.014
	c-0.075,0.042-0.151,0.085-0.229,0.124c0.265,0.292,0.846,0.042,1.075,0.285c-0.813,0-0.977,0.338-0.727,0.627
	c0.145,0.166,0.426,0.314,0.798,0.373c0,0.541,0.186,0.599,0.718,0.714c-0.013-0.001-0.025-0.001-0.037-0.001
	c-0.405,0-0.313,0.248-0.118,0.497c0.105,0.136,0.241,0.271,0.345,0.365c0.084,0.08,0.146,0.131,0.148,0.131l0,0
	c0.12,0.361-0.013,0.179,0.352,0.438c0.127,0.09,0.663,0.085,0.744,0.212c-0.122,0.445,0.215,0.407,0.286,0.929
	c0.577,0.185,0.642,0.016,0.895,0.433c0.036,0.061,0.29,0.233,0.372,0.233c-0.057,0.052-0.087,0.099-0.097,0.14
	c-0.043,0.188,0.35,0.264,0.701,0.3c0.222,0.021,0.429,0.028,0.494,0.035c0.012,0.103,0.046,0.18,0.102,0.233
	c0.043,0.037,0.096,0.062,0.16,0.073c0.017,0.002,0.033,0.005,0.052,0.006c0.165,0.004,0.228,0.04,0.182,0.103
	c-0.028,0.04-0.097,0.092-0.208,0.156c0.111,0.009,0.22,0.013,0.326,0.013c0.074,0,0.149-0.002,0.222-0.007
	c0.319-0.017,0.627-0.071,0.958-0.149c-0.113,0.078-0.136,0.172-0.072,0.286c0.048,0.012,0.092,0.017,0.128,0.017
	c0.313,0,0.235-0.368,0.303-0.374c0.06,0.006,0.774,0.064,0.789,0.144c-0.193,0.06-0.337,0.179-0.431,0.356
	c0.359,0.064,0.718,0.136,1.075,0.215c-0.442,0.504,0.187,0.28,0.646,0.498c0.165-0.07,0.329-0.086,0.49-0.086
	c0.072,0,0.144,0.003,0.215,0.007c0.069,0.003,0.14,0.006,0.208,0.006c0.111,0,0.223-0.009,0.336-0.035
	c0.038-0.009,0.075-0.02,0.113-0.035c0.084-0.271,0.057-0.344,0.002-0.344c-0.032,0-0.076,0.027-0.108,0.053
	c-0.037,0.039-0.054,0.053-0.056,0.053s0.021-0.026,0.056-0.053c0.056-0.056,0.153-0.161,0.321-0.352
	c-0.127-0.358-0.458-0.168-0.215-0.888c0.011-0.031,0.021-0.063,0.028-0.091c0.204-0.702-0.3-0.548-0.603-1.162
	c0.012,0,0.025,0,0.037,0c0.136,0,0.267-0.024,0.394-0.072c0.009-0.171-0.063-0.29-0.216-0.357c0.17-0.024,0.338-0.019,0.491-0.064
	c0.176-0.054,0.331-0.178,0.44-0.506c-0.26-0.138-0.499-0.305-0.716-0.5c0.056,0.014,0.113,0.021,0.169,0.021
	c0.115,0,0.226-0.031,0.332-0.092c-0.152-0.182-0.319-0.348-0.501-0.5c0.05,0.01,0.1,0.014,0.147,0.014
	c0.094,0,0.185-0.016,0.271-0.049c0.028-0.01,0.056-0.021,0.082-0.035c-0.024-0.191-0.121-0.335-0.287-0.43
	c0.222,0.078,0.426,0.107,0.622,0.107c0.511,0,0.953-0.203,1.461-0.287c0.113-0.019,0.231-0.032,0.354-0.034
	c-0.048-0.114-0.072-0.233-0.07-0.357c0.188,0.144,0.403,0.214,0.644,0.214c0.013-0.037,0.02-0.076,0.025-0.113
	C68.005,12.034,64.435,11.131,61.169,11.131"/>
<linearGradient id="SVGID_29_" gradientUnits="userSpaceOnUse" x1="-1082.6357" y1="1186.4648" x2="-1082.5524" y2="1186.4648" gradientTransform="matrix(-193.3442 212.4245 187.8817 171.0118 -432173.5938 27085.623)">
	<stop  offset="0" style="stop-color:#FFFFFF"/>
	<stop  offset="1" style="stop-color:#7DCDF4"/>
</linearGradient>
<path fill="url(#SVGID_29_)" d="M58.575,11.627c-0.072,0.001-0.177,0.002-0.271,0.006c-0.17,0.026-0.301,0.047-0.109,0.053
	C58.188,11.685,58.43,11.663,58.575,11.627"/>
<linearGradient id="SVGID_30_" gradientUnits="userSpaceOnUse" x1="-1082.6357" y1="1186.4648" x2="-1082.5524" y2="1186.4648" gradientTransform="matrix(-193.3442 212.4245 187.8817 171.0118 -432173.5938 27085.623)">
	<stop  offset="0" style="stop-color:#FFFFFF"/>
	<stop  offset="1" style="stop-color:#7DCDF4"/>
</linearGradient>
<path fill="url(#SVGID_30_)" d="M58.64,11.548c0.04,0.019-0.061,0.042-0.184,0.062c0.011,0,0.024,0,0.037,0
	c0.043,0,0.088,0.001,0.132,0.005C58.689,11.594,58.713,11.572,58.64,11.548"/>
<linearGradient id="SVGID_31_" gradientUnits="userSpaceOnUse" x1="-1082.6421" y1="1186.5234" x2="-1082.5453" y2="1186.5234" gradientTransform="matrix(-193.3442 212.4245 187.8817 171.0118 -432173.5938 27085.623)">
	<stop  offset="0" style="stop-color:#FFFFFF"/>
	<stop  offset="1" style="stop-color:#7DCDF4"/>
</linearGradient>
<path fill="url(#SVGID_31_)" d="M73.771,15.378c-0.113,0-0.202,0.039-0.236,0.163c0.367,0.228,0.952,0.181,1.22,0.571
	c-0.051-0.015-0.097-0.022-0.137-0.022c-0.13,0-0.203,0.079-0.222,0.236c0.196,0.06,1.206,0.438,2.211,0.742
	c-0.725-0.573-1.464-1.105-2.213-1.598c-0.019,0.006-0.039,0.007-0.061,0.007c-0.075,0-0.171-0.024-0.271-0.049
	C73.963,15.403,73.859,15.378,73.771,15.378 M73.097,14.667c-0.034,0.034-0.058,0.086-0.063,0.161
	c0.143,0.298,0.519,0.272,0.844,0.312C73.618,14.976,73.358,14.818,73.097,14.667"/>
<linearGradient id="SVGID_32_" gradientUnits="userSpaceOnUse" x1="-1082.644" y1="1186.459" x2="-1082.5339" y2="1186.459" gradientTransform="matrix(-193.3442 212.4245 187.8817 171.0118 -432173.5938 27085.623)">
	<stop  offset="0" style="stop-color:#FFFFFF"/>
	<stop  offset="1" style="stop-color:#7DCDF4"/>
</linearGradient>
<path fill="url(#SVGID_32_)" d="M49.514,18.163c-0.117,0.28-0.223,0.567-0.318,0.858c0.539,0.112,1.059,0.334,1.616,0.377
	c0-0.061-0.004-0.119-0.013-0.172C50.701,18.618,50.075,18.415,49.514,18.163 M50.469,16.35c-0.33,0.506-0.618,1.038-0.861,1.593
	c0.266,0.101,0.532,0.193,0.807,0.255c0.483,0.11,0.848,0.549,1.329,0.557c0.028-0.101,0.055-0.685,0.006-0.777
	c-0.002-0.004-0.004-0.006-0.006-0.008c0.006,0.003,0.012,0.006,0.019,0.01c0.071,0.041,0.148,0.063,0.231,0.063
	c0.013,0,0.025-0.001,0.037-0.001c0.002-0.005,0.003-0.01,0.004-0.014c0.123-0.663-0.407-0.645-0.72-1.058
	c0.026,0.008,0.053,0.011,0.073,0.011c0.086,0,0.133-0.05,0.141-0.153h-0.002c-0.141,0-0.521-0.177-0.927-0.404
	C50.557,16.399,50.513,16.375,50.469,16.35 M53.033,14.328c-0.227,0.01-0.509,0.099-0.768,0.099c-0.061,0-0.12-0.006-0.179-0.018
	c-0.186,0.177-0.366,0.361-0.541,0.553c-0.16,0.175-0.313,0.354-0.46,0.537c0.097,0.071,0.191,0.145,0.287,0.221
	c0.437,0.34,0.88,0.679,1.408,0.679c0.012,0,0.023,0,0.038,0c0.076-0.214-0.274-0.478-0.073-0.643
	c0.286-0.024,0.675-0.143,0.97-0.143c0.011,0,0.023,0,0.036,0c0.052-0.031,0.066-0.061,0.06-0.09
	c-0.018-0.093-0.242-0.18-0.06-0.267c0.031,0.002,0.062,0.004,0.093,0.004c0.48,0,0.82-0.37,0.143-0.607
	C53.396,14.447,53.324,14.697,53.033,14.328 M52.367,14.154c-0.072,0.063-0.145,0.128-0.213,0.194
	c0.089-0.022,0.167-0.075,0.233-0.163C52.382,14.175,52.374,14.164,52.367,14.154"/>
<linearGradient id="SVGID_33_" gradientUnits="userSpaceOnUse" x1="-1082.6421" y1="1186.5234" x2="-1082.5358" y2="1186.5234" gradientTransform="matrix(-193.3442 212.4245 187.8817 171.0118 -432173.5938 27085.623)">
	<stop  offset="0" style="stop-color:#FFFFFF"/>
	<stop  offset="1" style="stop-color:#7DCDF4"/>
</linearGradient>
<path fill="url(#SVGID_33_)" d="M58.928,29.463c-0.088,0-0.171,0.008-0.25,0.024c-0.543,0.111-0.851,0.579-1.09,1.086
	c-0.24,0.505-0.412,1.049-0.681,1.315c-0.023,0.022-0.047,0.043-0.072,0.063c-0.206,0.169-0.231,0.364-0.074,0.583
	c-0.268,0.037-0.47,0.167-0.607,0.398c-0.032,0.084-0.042,0.154-0.032,0.211c0.026,0.182,0.233,0.25,0.477,0.272
	c0.081,0.008,0.167,0.01,0.25,0.01s0.162-0.001,0.236-0.004c0.076-0.002,0.146-0.005,0.202-0.005c0.028,0,0.054,0.001,0.075,0.002
	c0.04,0.003,0.108,0.005,0.198,0.005c0.156,0,0.381-0.004,0.622-0.009c0.246-0.004,0.51-0.008,0.745-0.008
	c0.175,0,0.333,0.002,0.454,0.009c0.147,0.008,0.244,0.024,0.249,0.048c-0.038,0.015-0.073,0.03-0.107,0.049
	c-0.246,0.122-0.449,0.295-0.611,0.521c0.123,0.062,0.231,0.086,0.331,0.086c0.241,0,0.425-0.149,0.605-0.3
	c0.018-0.014,0.034-0.028,0.052-0.042c0.166-0.135,0.331-0.257,0.539-0.257c0.038,0,0.081,0.003,0.123,0.013
	c-0.063,0.609-0.198,0.593,0.512,0.822c0.099,0.031,0.177,0.047,0.242,0.047c0.273,0,0.288-0.257,0.379-0.572
	c0.195-0.674-0.696-0.568-0.847-0.725c-0.02-0.2,0.106-0.262,0.239-0.315c0.159-0.066,0.33-0.122,0.262-0.4
	c-0.056-0.033-0.106-0.045-0.153-0.045c-0.073,0-0.139,0.03-0.208,0.061c-0.069,0.03-0.141,0.062-0.225,0.062
	c-0.02,0-0.038-0.002-0.06-0.004c0.012-0.35,0.559-0.766-0.098-0.914c-0.106-0.024-0.202-0.034-0.292-0.034
	c-0.126,0-0.239,0.019-0.346,0.037c-0.104,0.017-0.205,0.038-0.308,0.038c-0.181,0-0.366-0.058-0.604-0.27
	c0.823-0.238-0.207-0.292-0.545-0.292c-0.054,0-0.09,0.002-0.099,0.003c0.195-0.279,0.663-0.807,0.883-1.194
	c0.067-0.117,0.11-0.223,0.118-0.303C59.235,29.486,59.075,29.463,58.928,29.463"/>
<path fill="#BAE3F9" d="M90.502,63.262c1.233-4.233,1.857-8.632,1.857-13.13c0-3.135-0.304-6.219-0.904-9.235
	c0.671-0.395,1.296-0.8,1.879-1.213c-0.027-0.112-0.055-0.223-0.083-0.333c-0.58,0.415-1.2,0.821-1.862,1.216
	c-0.557-2.692-1.353-5.327-2.381-7.887c-1.48-3.673-3.396-7.09-5.725-10.205c0.35-0.23,0.68-0.465,0.993-0.703
	c-0.067-0.08-0.136-0.16-0.204-0.241c-0.311,0.235-0.636,0.466-0.98,0.693c-1.002-1.322-2.076-2.59-3.226-3.798
	C76.131,14.5,71.81,11.379,67.013,9.14c0.023-0.017,0.044-0.033,0.066-0.05c-0.111-0.047-0.222-0.093-0.334-0.14
	c-0.019,0.015-0.036,0.027-0.055,0.04c-0.129-0.058-0.257-0.119-0.386-0.176c-0.271-0.12-0.544-0.237-0.817-0.352
	C60.53,6.615,55.321,5.678,50.114,5.639c2.035,0.295,3.932,2.722,5.555,6.73c-1.843,0.215-3.808,0.333-5.847,0.333
	c-2.129,0-4.178-0.127-6.09-0.362c1.62-3.988,3.512-6.404,5.54-6.7c-1.447,0.017-2.892,0.102-4.329,0.255
	c-3.106,0.8-6.082,2.383-8.83,4.688c-1.149-0.434-2.144-0.922-2.951-1.452c0.018-0.008,0.036-0.017,0.053-0.024
	c3.48-1.548,7.104-2.584,10.826-3.104c-3.937,0.501-7.814,1.522-11.521,3.056l0.013,0.01c-4.859,2.245-9.235,5.39-13.01,9.358
	c-1.277,1.343-2.463,2.758-3.558,4.24c-0.331-0.2-0.647-0.405-0.951-0.611c-0.066,0.082-0.133,0.163-0.199,0.245
	c0.307,0.209,0.628,0.416,0.963,0.621c-2.18,2.995-3.989,6.259-5.396,9.759c-1.07,2.66-1.885,5.399-2.444,8.199
	c-0.628-0.357-1.222-0.723-1.781-1.098c-0.026,0.111-0.053,0.221-0.079,0.332c0.562,0.373,1.16,0.737,1.793,1.096
	c-0.559,2.916-0.841,5.897-0.841,8.923c0,4.634,0.662,9.165,1.971,13.516c-0.893-0.469-1.724-0.95-2.494-1.449
	c0.042,0.152,0.085,0.308,0.129,0.462c0.77,0.482,1.601,0.954,2.494,1.411c0.369,1.187,0.785,2.358,1.251,3.513
	c2.148,5.342,5.224,10.137,9.141,14.255c0.98,1.032,2,2.006,3.06,2.924c-0.885-0.306-1.729-0.626-2.533-0.962
	c0.244,0.216,0.489,0.426,0.737,0.636c0.278,0.111,0.562,0.215,0.851,0.322c0.521,0.192,1.054,0.377,1.597,0.555
	c3.002,2.5,6.299,4.557,9.851,6.138c5.261,2.338,10.85,3.524,16.609,3.524c5.761,0,11.349-1.187,16.61-3.524
	c3.837-1.706,7.377-3.971,10.569-6.749c1.065-0.396,2.06-0.811,2.982-1.241c0.268-0.243,0.531-0.488,0.795-0.737
	c-0.96,0.488-2,0.954-3.117,1.392c0.801-0.728,1.578-1.483,2.332-2.276c3.917-4.118,6.993-8.913,9.142-14.255
	c0.514-1.276,0.97-2.575,1.366-3.888c0.973-0.528,1.864-1.071,2.678-1.628c0.043-0.162,0.085-0.321,0.127-0.479
	C92.367,62.164,91.475,62.724,90.502,63.262z M91.098,40.737c-3.354,1.952-7.708,3.653-12.795,5.005
	c-0.425-6.873-1.848-13.414-4.154-19.21c0.886-0.272,1.745-0.561,2.572-0.865c2.483-0.911,4.587-1.926,6.295-3.017
	C87.012,27.985,89.759,34.149,91.098,40.737z M59.991,29.301c5.033-0.531,9.727-1.432,13.834-2.671
	c2.262,5.675,3.729,12.201,4.158,19.197c-4.958,1.296-10.601,2.265-16.687,2.82C61.24,41.801,60.791,35.222,59.991,29.301z
	 M60.982,50.132c0,7.524-0.475,14.618-1.314,20.839c-3.314,0.258-6.752,0.396-10.274,0.396c-3.308,0-6.54-0.119-9.667-0.35
	c-0.843-6.232-1.321-13.342-1.321-20.885c0-0.361,0-0.721,0.003-1.081c3.563,0.296,7.243,0.448,10.985,0.448
	c3.954,0,7.834-0.171,11.584-0.5C60.981,49.376,60.982,49.753,60.982,50.132z M59.947,28.982c-0.524-3.809-1.194-7.34-2.002-10.486
	c-0.568-2.217-1.186-4.174-1.848-5.858c2.655-0.336,5.095-0.885,7.159-1.625c4.258,3.637,7.859,8.929,10.45,15.322
	C69.709,27.533,65.043,28.444,59.947,28.982z M60.977,48.677c-3.716,0.329-7.594,0.501-11.583,0.501
	c-3.773,0-7.45-0.155-10.982-0.451c0.056-6.945,0.515-13.495,1.291-19.293c3.063,0.28,6.24,0.425,9.478,0.425
	c3.597,0,7.12-0.178,10.494-0.525C60.456,35.143,60.92,41.71,60.977,48.677z M38.091,48.7c-6.075-0.523-11.718-1.459-16.696-2.722
	c0.412-6.94,1.846-13.425,4.063-19.079c4.163,1.179,8.886,2.026,13.926,2.504C38.591,35.313,38.146,41.875,38.091,48.7z
	 M38.088,49.024c-0.002,0.369-0.003,0.739-0.003,1.108c0,7.391,0.457,14.507,1.317,20.862c-5.575-0.424-10.807-1.191-15.522-2.239
	c-1.673-5.666-2.608-11.978-2.608-18.623c0-1.288,0.036-2.563,0.104-3.827C26.451,47.593,32.104,48.512,38.088,49.024z
	 M39.446,71.318c0.524,3.795,1.194,7.313,1.997,10.449c0.668,2.607,1.407,4.854,2.199,6.72c-3.261-0.17-6.392-0.491-9.338-0.941
	c-4.443-4.499-8.037-10.887-10.317-18.433C28.76,70.165,33.975,70.912,39.446,71.318z M39.771,71.344
	c3.136,0.227,6.355,0.342,9.623,0.342c3.479,0,6.902-0.132,10.231-0.388c-0.978,7.097-2.429,13.035-4.186,17.148
	c-2.037,0.123-4.129,0.186-6.26,0.186c-1.765,0-3.503-0.044-5.206-0.129C42.21,84.398,40.752,78.452,39.771,71.344z M57.945,81.768
	c0.808-3.147,1.479-6.682,2.003-10.495c5.499-0.438,10.728-1.216,15.498-2.308c-2.243,7.501-5.784,13.869-10.168,18.387
	c-2.984,0.499-6.173,0.865-9.506,1.075C56.557,86.573,57.286,84.346,57.945,81.768z M59.993,70.945
	c0.856-6.344,1.312-13.441,1.312-20.813c0-0.386-0.002-0.774-0.005-1.161c5.996-0.542,11.646-1.494,16.704-2.817
	c0.074,1.31,0.112,2.638,0.112,3.978c0,6.587-0.918,12.846-2.565,18.479C70.841,69.694,65.596,70.492,59.993,70.945z M66.707,9.351
	c4.828,2.229,9.175,5.352,12.926,9.295c1.138,1.196,2.203,2.449,3.192,3.751c-2.288,1.463-5.275,2.763-8.793,3.839
	c-1.129-2.787-2.463-5.398-3.991-7.787c-1.932-3.021-4.091-5.557-6.417-7.573C64.844,10.417,65.877,9.905,66.707,9.351z
	 M66.173,9.106c0.068,0.03,0.135,0.062,0.203,0.094c-0.83,0.53-1.847,1.017-3.021,1.448c-2.792-2.356-5.818-3.97-8.979-4.772
	C58.439,6.344,62.393,7.424,66.173,9.106z M51.24,5.674c4.224,0.356,8.203,2.163,11.742,5.108c-1.976,0.687-4.359,1.221-7.006,1.549
	C54.554,8.799,52.941,6.53,51.24,5.674z M49.822,13.022c2.059,0,4.066-0.119,5.97-0.346c1.602,4.073,2.929,9.702,3.838,16.339
	c-3.325,0.341-6.83,0.522-10.45,0.522c-3.253,0-6.413-0.146-9.435-0.424c0.913-6.697,2.249-12.373,3.865-16.468
	C45.584,12.893,47.676,13.022,49.822,13.022z M48.148,5.674c-1.696,0.853-3.303,3.111-4.724,6.627
	c-2.629-0.342-4.992-0.887-6.942-1.583C40.003,7.811,43.956,6.028,48.148,5.674z M36.208,10.949l0.005,0.001
	c2.04,0.749,4.455,1.309,7.089,1.658c-0.665,1.689-1.288,3.657-1.859,5.888c-0.813,3.175-1.489,6.74-2.016,10.589
	c-5.101-0.485-9.794-1.34-13.853-2.481C28.188,20.052,31.858,14.637,36.208,10.949z M19.757,18.646
	c3.789-3.985,8.188-7.131,13.076-9.365c0.808,0.552,1.815,1.066,3.01,1.528c-2.356,2.026-4.542,4.586-6.495,7.641
	c-1.578,2.466-2.948,5.171-4.099,8.06c-3.56-1.023-6.616-2.27-9.011-3.681C17.32,21.371,18.493,19.973,19.757,18.646z
	 M16.052,23.084c1.57,0.927,3.437,1.793,5.585,2.583c1.112,0.408,2.28,0.788,3.496,1.141c-2.261,5.771-3.648,12.269-4.055,19.09
	c-5.071-1.308-9.438-2.957-12.848-4.854C9.51,34.519,12.169,28.403,16.052,23.084z M7.351,50.132c0-2.975,0.276-5.906,0.814-8.759
	c1.812,0.999,3.906,1.938,6.267,2.806c2.066,0.759,4.284,1.442,6.628,2.048c-0.07,1.292-0.108,2.595-0.108,3.905
	c0,6.504,0.881,12.793,2.555,18.542c-5.53-1.256-10.333-2.898-14.118-4.826C8.048,59.473,7.351,54.861,7.351,50.132z M19.757,81.619
	c-4.719-4.96-8.186-10.884-10.237-17.351c1.479,0.735,3.117,1.438,4.912,2.098c2.802,1.027,5.883,1.918,9.179,2.659
	c1.398,4.695,3.325,9.019,5.737,12.791c1.359,2.125,2.832,4.009,4.396,5.645c-3.802-0.604-7.287-1.426-10.338-2.424
	C22.135,83.978,20.917,82.837,19.757,81.619z M33.215,91.159c-3.278-1.457-6.337-3.328-9.147-5.579
	c3.05,0.95,6.436,1.708,10.052,2.266c3.3,3.332,6.996,5.554,10.892,6.54C40.949,93.919,36.998,92.842,33.215,91.159z M34.688,87.93
	c2.906,0.43,5.955,0.727,9.095,0.885c1.33,3.03,2.81,4.993,4.365,5.775C43.228,94.175,38.636,91.792,34.688,87.93z M44.117,88.83
	c1.666,0.08,3.356,0.122,5.063,0.122c2.068,0,4.112-0.061,6.117-0.177c-1.652,3.739-3.564,5.881-5.603,5.881
	C47.667,94.656,45.763,92.536,44.117,88.83z M55.632,88.756c3.207-0.195,6.313-0.535,9.26-1.013
	c-3.99,3.971-8.651,6.428-13.651,6.847C52.807,93.802,54.295,91.819,55.632,88.756z M66.173,91.159
	c-3.78,1.683-7.733,2.76-11.798,3.227c3.975-1.005,7.737-3.295,11.089-6.739c3.843-0.649,7.404-1.531,10.549-2.635
	C73.017,87.52,69.723,89.581,66.173,91.159z M79.633,81.619c-0.944,0.991-1.925,1.928-2.942,2.817
	c-3.128,1.151-6.795,2.111-10.854,2.818c1.493-1.585,2.901-3.404,4.204-5.438c2.437-3.812,4.379-8.187,5.779-12.935
	c3.054-0.715,5.917-1.556,8.536-2.516c2.088-0.768,3.966-1.593,5.626-2.464C87.947,70.512,84.439,76.566,79.633,81.619z
	 M90.113,63.474c-3.746,2.012-8.578,3.733-14.188,5.05c1.646-5.707,2.514-11.946,2.514-18.392c0-1.364-0.041-2.719-0.118-4.063
	c2.125-0.564,4.145-1.196,6.036-1.891c2.6-0.954,4.875-1.998,6.808-3.112c0.577,2.952,0.873,5.984,0.873,9.065
	C92.037,54.725,91.38,59.211,90.113,63.474z"/>
</svg>
