<?xml version="1.0" encoding="utf-8"?>
<!-- Generator: Adobe Illustrator 16.0.0, SVG Export Plug-In . SVG Version: 6.00 Build 0)  -->
<!DOCTYPE svg PUBLIC "-//W3C//DTD SVG 1.1//EN" "http://www.w3.org/Graphics/SVG/1.1/DTD/svg11.dtd">
<svg version="1.1" id="图层_1" xmlns="http://www.w3.org/2000/svg" xmlns:xlink="http://www.w3.org/1999/xlink" x="0px" y="0px"
	 width="100px" height="250px" viewBox="0 0 100 250" enable-background="new 0 0 100 250" xml:space="preserve">
<g>
	<g>
		<g>
			<path fill="#EDB38C" d="M49.961,155.03c-1.107,10.752-5.454,20.895-5.139,31.776c0.118,10.391,3.262,21.469,2.41,32.008
				c-0.344,5.519-1.664,6.577-3.156,11.978c-0.812,2.818,0.965,4.522,3.422,6.483c2.232,1.664,5.186,3.997,7.655,5.696
				c2.304,1.237,8.005-0.072,6.986-1.895c-2.439-4.347-4.381-7.863-5.446-11.221c-1.983-6.348-0.817-12.049,0.13-27.999
				c0.794-13.476,2.434-21.954,4.175-31.658c0.781-5.223,1.083-8.585,0.219-13.997c-0.675-5.133-3.564-12.456-7.911-5.399"/>
		</g>
	</g>
	<g>
		<g>
			<path fill="#010101" d="M44.905,227.719c-1.605,1.475-3.025,4.174-1.705,7.669c1.285,3.35,0.965,8.075,1.119,10.922l2.125,0.06
				c0,0-0.219-7.957,0.284-8.063c1.167-0.278,1.517,0.994,1.877,2.196c0.835,2.256,0.877,4.405,2.387,5.223
				c1.155,0.645,3.121,0.573,6.754,0.573c4.275,0,13.251,0,13.251,0c0-2.053-1.355-2.699-5.482-4.115
				c-2.173-0.804-3.973-2.147-3.973-2.147s-3.457,0.479-7.371-0.664C47.93,237.559,45.077,227.926,44.905,227.719z"/>
		</g>
	</g>
	<g>
		<g>
			<path fill="#F7BE8E" d="M37.332,153.49c-1.355,10.765-4.269,21.481-4.209,32.381c-0.083,10.438,3.6,31.6,3.132,42.127
				c-0.243,5.949-0.9,7.14-1.309,8.566c-1.379,4.513,3.588,7.572,6.442,8.248c2.486,0.597,6.82-3.653,5.423-6.938
				c-5.648-13.109-0.895-25.466,0.663-41.356c1.741-17.822-1.634-24.063,0.326-33.749c0.888-5.198,4.316-0.828,3.552-6.229
				c-0.568-5.175-3.268-12.552-7.768-5.595"/>
		</g>
	</g>
	<g>
		<path fill="#010101" d="M30.719,105.782c-1.51,7.066-4.151,15.012-4.151,27.093c0,7.892,1.297,17.063,2.511,25.654
			c1.291,9.077-2.676,19.479-2.676,19.479s4.559-2.89,11.362-0.752c7.732,2.469,11.475-1.457,17.141-0.077
			c4.091,0.978,11.077,0.746,11.077,0.746c-3.197-12.771-3.7-24.819-3.7-30.326c0-10.634,1.433-17.164,0.06-25.986
			c-0.96-6.098-4.127-15.199-4.127-15.199c-5.69-0.701-15.276-2.391-20.723-1.678"/>
	</g>
	<g>
		<g>
			<path fill="#010101" d="M46.373,244.292c-1.386,1.48-4.286,4.766-6.216,4.719c-2.676-0.048-7.289-6.17-7.242-7.727
				c0.024-1.553,0.983-3.198,2.031-4.72c0.012,1.729,1.741,3.808,5.471,3.902c3.191,0.047,4.79-1.272,6.027-3.375
				C48.014,239.531,48.783,241.716,46.373,244.292z"/>
		</g>
	</g>
	<path fill="#999DCF" d="M58.878,56.699c-7.277-0.266-11.25-1.705-10.516,3.792c0.267,2.075,4.115,2.271,6.52,5.443
		c0,0,17.425,23.834,20.545,19.689c3.215-4.248-6.999-13.893-7.165-15.977C67.972,65.985,65.378,56.95,58.878,56.699z"/>
	<g>
		<path fill="#754D25" d="M43.691,6.586c8.994,0.731,14.956,12.966,17.739,21.127c4.381,12.816,4.108,27.097-2.505,39.021
			c-2.641,4.819-7.561,11.661-13.505,11.083c-7.283-0.861-11.013-13.115-13.908-18.934c-2.001-4.243-4.641-8.585-6.098-13.112
			c-2.375-7.443,0-15.293,2.906-22.004c2.257-5.386,4.791-9.319,9.42-12.532c1.972-1.308,4.5-3.043,7.01-2.182"/>
	</g>
	<g>
		<path fill="#754D25" d="M44.508,3.865c5.364-0.941,11.859-0.844,15.773,2.448c4.967,4.23,7.714,9.829,9.142,15.539
			c1.586,6.625,1.504,13,0.076,19.621c-1.071,4.808-3.256,9.094-4.949,13.846c-4.008,11.066-5.003,15.957-5.341,22.881
			c-3.031-3.929-3.859-8.896-4.28-10.447c-0.711-3.642,0.308-4.583,1.367-8.195c2.315-7.975,7.401-24.639,4.032-33.227
			c-1.959-5.429-6.11-4.748-10.012-9.414c-1.764-2.274-3.73-3.919-4.092-6.764c-0.177-1.667-4.991-4.385-2.492-4.995"/>
	</g>
	<path fill="#999DCF" d="M60.399,57.261c-6.53-1.042-9.958-2.762-9.911,2.297c0.023,1.889,4.043,13.044,4.321,16.667
		c0.368,4.804,8.029,3.228,8.805-2.458c0.663-4.795,1.865-4.129,1.936-6.003C65.704,64.413,66.243,58.193,60.399,57.261z"/>
	<path fill="#999DCF" d="M29.114,59.363c-4.671,0.195-4.79,3.736-6.448,8.529c-2.326,6.749-3.996,18.57-3.996,22.939
		c0,3.763,4.145,15.459,6.11,21.578l5.797-4.36c-1.055-4.183-3.015-16.057-3.097-17.724c-0.189-3.02,7.164-16.329,7.348-20.391
		C34.994,66.566,34.728,59.146,29.114,59.363z"/>
	<path fill="#F7BE8E" d="M26.941,108.319c1.966-1.069,4.736,1.187,6.229,5.038c1.498,3.837,0.515,5.776-1.416,6.856
		c-1.959,1.045-4.132,0.808-5.643-3.049C24.626,113.345,25.005,109.375,26.941,108.319z"/>
	<path fill="#999DCF" d="M34.691,54.585c0,0,11.989-0.421,18.757,0c0,0-6.163,6.075-8.839,6.075
		C39.256,60.66,34.691,54.585,34.691,54.585z"/>
	<polygon fill="#EFB589" points="48.587,59.925 40.73,59.984 40.613,48.057 48.493,47.986 	"/>
	<path fill="#F7BE8E" d="M61.72,31.044c0.13,12.265-7.691,22.259-17.437,22.372c-9.757,0.083-17.75-9.781-17.88-22.037
		c-0.101-12.247,7.703-22.271,17.46-22.354C53.608,8.921,61.613,18.794,61.72,31.044z"/>
	<path fill="#999DCF" d="M60.554,85.305c-1.268,6.158-3.299,11.655-4.56,20.986c0,0-22.321-1.214-22.427-2.12
		c-0.302-2.945-1.741,3.277-2.09-3.186c-0.864-15.005-4.346-21.986-5.074-28.665c-0.557-5.346-2.617-11.308,0.468-12.762
		c4.429-2.099,9.408-1.397,10.438-2.013c2.872-1.678,4.239,1.365,7.43,1.51c3.121,0.122,5.423-3.736,8.16-1.974
		c4.321,2.789,10.841,4.666,11.675,7.442C65.858,68.738,62.116,77.854,60.554,85.305z"/>
	<path opacity="0.1" fill="#010101" d="M44.905,84.89c-8.697,6.021-12.771,10.675-11.338,21.401c0.165,1.14,1.438-1.016,1.285,0
		c2.096,0.66,21.143,0,21.143,0c1.261-9.331,3.796-16.256,4.743-22.481c0.68-4.372,2.534-8.774,2.534-8.774
		C59.872,80.787,50.749,80.873,44.905,84.89z"/>
	<path fill="#BCC1E2" d="M31.477,59.041l9.16,5.494c1.628-4,4.932-5.37,4.932-5.37s-4.37-1.69-5.809-2.227
		c-3.037-1.198-5.068-2.353-5.068-2.353L31.477,59.041z"/>
	<g>
		<path fill="#8D633A" d="M44.484,4.836c5.571-1.51,11.102-1.889,15.797,1.477c5.198,3.766,7.887,9.968,9.206,15.595
			c1.428,6.101,1.173,12.753-0.23,19.269c-1.054,4.74-3.191,8.955-4.896,13.621c-3.926,10.868-0.563-7.599-3.754-24.787
			c-1.249-6.794-5.341-10.19-9.194-14.787c-1.753-2.208-4.72-2.013-5.057-4.808c-0.189-1.633-4.908-4.298-2.457-4.891"/>
	</g>
	<g>
		<rect x="45.242" y="59.346" fill="#BCC1E2" width="0.61" height="44.521"/>
		<path fill="#BCC1E2" d="M44.2,63.575c0,0.468-0.373,0.838-0.829,0.838s-0.818-0.37-0.818-0.838c0-0.449,0.362-0.813,0.818-0.813
			S44.2,63.126,44.2,63.575z"/>
		<path fill="#BCC1E2" d="M44.2,70.473c0,0.48-0.373,0.832-0.829,0.832s-0.818-0.352-0.818-0.832c0-0.455,0.362-0.834,0.818-0.834
			S44.2,70.018,44.2,70.473z"/>
		<path fill="#BCC1E2" d="M44.2,77.362c0,0.48-0.373,0.838-0.829,0.838s-0.818-0.358-0.818-0.838c0-0.45,0.362-0.816,0.818-0.816
			S44.2,76.912,44.2,77.362z"/>
		<path fill="#BCC1E2" d="M44.2,84.269c0,0.468-0.373,0.834-0.829,0.834s-0.818-0.367-0.818-0.834c0-0.459,0.362-0.818,0.818-0.818
			S44.2,83.81,44.2,84.269z"/>
		<path fill="#BCC1E2" d="M44.2,91.167c0,0.468-0.373,0.826-0.829,0.826s-0.818-0.358-0.818-0.826c0-0.471,0.362-0.841,0.818-0.841
			S44.2,90.695,44.2,91.167z"/>
	</g>
	<rect x="30.577" y="100.985" fill="#010101" width="28.336" height="7.064"/>
	<path fill="#BCC1E2" d="M57.617,56.63l-8.26,7.593c-1.592-3.991-4.304-5.059-4.304-5.059s2.972-1.238,4.304-1.931
		c2.267-1.183,4.091-2.649,4.091-2.649L57.617,56.63z"/>
	<g>
		<path fill="#8D633A" d="M58.913,10.359c-0.971,5.738-4.612,4.089-9.23,5.879c-5.4,2.129-8.212,5.146-10.444,9.953
			c-3.499,7.543-4.944,19.242-3.357,27.224c2.398,10.98-2.896,20.664-2.896,31.815c-0.059-5.598-2.385-12.504-5.097-18.987
			c-1.575-3.905-3.191-6.247-4.908-10.163c-2.055-4.683-2.292-9.275-2.292-13.025c-0.159-5.288-0.899-9.334-0.899-14.604
			c0-7.825,3.167-15.833,11.385-21.771c6.016-4.352,21.208-6.169,25.999,3.399"/>
	</g>
	<g opacity="0.5">
		<path fill="#A67D52" d="M29.546,10.416c0.468-0.758,2.269-1.136,3.191-1.379c-2.327,1.791-5.103,4.976-4.754,10.642
			c2.161-3.519,5.891-6.424,7.034-7.413c0,0.989-1.03,2.605-0.865,4.636c1.143-1.24,2.931-2.158,4.092-2.904
			c1.143,2.96-4.163,9.12-4.618,12.59c-0.936,6.169-0.278,11.291-0.278,16.972c-1.605-0.494-0.409-1.903-1.333-3.396
			c-1.379,1.492-0.456,3.212-0.912,4.932c-0.468,2.241-0.924,2.48-1.617,4.215c-1.622,4.92,0.059,11.347,0.492,20.326
			c-2.113-8.979-3.037-15.9-4.636-21.329c-1.627-4.932-2.516-9.119-2.528-14.548C22.773,24.569,23.845,17.634,29.546,10.416"/>
	</g>
	<g opacity="0.5">
		<path fill="#A67D52" d="M48.014,7.346c14.044-1.915,18.194,13.532,19.153,21.06c1.457,11.418-7.751,34.296-5.82,28.997
			c2.794-7.697,4.861-22.375,3.89-27.715c-0.733-4.37-1.859-7.596-3.315-11.492C60.21,13.83,58.913,10.359,48.014,7.346"/>
	</g>
	<g opacity="0.5">
		<path fill="#A67D52" d="M51.542,13.436c8.1,2.17,17.448,17.774,9.479,37.372c-0.729-5.583,2.185-11.406,0.953-17.469
			c-0.723-5.116-4.37-18.194-9.941-19.663"/>
	</g>
	<path fill="#010101" d="M35.272,109.266l-0.433,0.5l-7.348,11.04l1.67,5.817c0,0,9.325-6.86,8.81-7.763"/>
	<polygon fill="#BCC1E2" points="30.399,104.417 33.075,109.909 24.277,114.16 21.601,108.674 	"/>
	<path fill="#999DCF" d="M77.006,86.246c6.473-1.648,3.305-8.328,1.601-13.644c-1.487-4.601-4.583-12.801-8.58-23.965l-6.613,1.312
		c1.137,5.568,4.755,23.103,5.915,27.413C70.251,80.944,71.045,87.813,77.006,86.246z"/>
	<g>
		<polygon fill="#F7BE8E" points="68.126,45.266 69.328,48.946 63.52,51.34 63.266,46.646 		"/>
		<g>
			<path fill="#010101" d="M63.075,25.431c0.023-0.352-0.225-0.674-0.598-0.689l-0.539-0.056c-0.337,0-0.639,0.254-0.675,0.607
				l-1.521,19.272c-0.024,0.334,0.249,0.645,0.586,0.689l0.551,0.027c0.338,0.029,0.651-0.229,0.675-0.578L63.075,25.431z"/>
			<path fill="#818181" d="M62.478,24.741l-0.539-0.056c-0.101,0-0.183,0.041-0.267,0.071l-1.563,20.382
				c0.053,0.053,0.137,0.086,0.219,0.116l0.551,0.027c0.255,0.029,0.479-0.113,0.599-0.311l1.539-19.864
				C62.909,24.925,62.727,24.756,62.478,24.741z"/>
		</g>
		<path fill="#F7BE8E" d="M63.266,46.646c-1.185-0.536-1.931-5.539-1.404-6.877c0.533-1.341,4.921-5.666,5.441-4.088
			c0.261,0.761,0.823,9.586,0.823,9.586S64.443,47.169,63.266,46.646z"/>
		<path fill="#F7BE8E" d="M67.303,35.68l-4.719-8.671c0,0-1.202,0.015-0.723,1.537c0.468,1.569,2.209,3.849,2.209,3.849
			s1.249,4.511,1.693,4.995C66.16,37.838,67.338,36.976,67.303,35.68z"/>
		<path fill="#F7BE8E" d="M66.101,36.947l-4.86-9.612c0,0-1.178,0.042-0.698,1.747c0.497,1.678,2.255,4.218,2.255,4.218
			s1.32,4.977,1.753,5.483C64.982,39.315,66.137,38.374,66.101,36.947z"/>
		<path fill="#F7BE8E" d="M66.112,39.896l-4.849-9.63c0,0-1.201,0.044-0.71,1.75c0.509,1.664,2.256,4.215,2.256,4.215
			s1.319,4.974,1.752,5.5C65.006,42.246,66.148,41.291,66.112,39.896z"/>
		<path fill="#F7BE8E" d="M62.489,36.115c-0.172-0.337-2.966-0.704-2.966-0.704s-0.468,0.523,0.267,0.961
			c0,0,0.994,0.675,1.51,0.574c0.219,1.214,0.84,4.542,1.166,4.98c0.396,0.577,1.616-0.27,1.692-1.693
			C64.158,40.233,63.135,37.358,62.489,36.115z"/>
	</g>
	<polygon fill="#BCC1E2" points="73.193,53.318 70.844,46.139 62.163,48.043 63.063,55.485 	"/>
</g>
</svg>
